<svg width="111" height="110" viewBox="0 0 111 110" fill="none" xmlns="http://www.w3.org/2000/svg">
<rect x="0.9375" width="110" height="110" rx="55" fill="#A70A12"/>
<g clip-path="url(#clip0_2553_2868)">
<path d="M38.6238 36.356C37.8138 36.356 36.9808 36.22 36.1798 35.944C34.3748 35.322 33.0438 34.09 32.5278 32.563C32.4598 32.361 32.4308 32.243 32.4308 32.243C32.3008 31.707 32.6278 31.164 33.1628 31.033C33.6968 30.9 34.2338 31.221 34.3698 31.753C34.3738 31.768 34.3908 31.828 34.4228 31.923C34.7388 32.858 35.6168 33.634 36.8318 34.053C38.2648 34.548 39.8598 34.428 40.8968 33.747C44.2008 31.582 48.8788 29 52.4008 29C52.9528 29 53.4008 29.448 53.4008 30C53.4008 30.552 52.9528 31 52.4008 31C49.2128 31 44.5118 33.77 41.9938 35.421C41.0508 36.039 39.8628 36.356 38.6238 36.356Z" fill="white"/>
<path d="M56.4023 35C53.6453 35 51.4023 32.757 51.4023 30C51.4023 27.243 53.6453 25 56.4023 25C59.1593 25 61.4023 27.243 61.4023 30C61.4023 32.757 59.1593 35 56.4023 35ZM56.4023 27C54.7483 27 53.4023 28.346 53.4023 30C53.4023 31.654 54.7483 33 56.4023 33C58.0563 33 59.4023 31.654 59.4023 30C59.4023 28.346 58.0563 27 56.4023 27Z" fill="white"/>
<path d="M75.4023 69H73.4023C67.3373 69 62.4023 64.065 62.4023 58C62.4023 57.448 62.8503 57 63.4023 57H85.4023C85.9543 57 86.4023 57.448 86.4023 58C86.4023 64.065 81.4673 69 75.4023 69ZM64.4573 59C64.9563 63.494 68.7773 67 73.4023 67H75.4023C80.0273 67 83.8483 63.494 84.3473 59H64.4573Z" fill="white"/>
<path d="M83.403 59C83.009 59 82.635 58.766 82.477 58.378L73.477 36.378C73.268 35.867 73.513 35.283 74.024 35.074C74.537 34.868 75.119 35.11 75.328 35.621L84.328 57.621C84.537 58.132 84.292 58.716 83.781 58.925C83.658 58.976 83.529 59 83.403 59Z" fill="white"/>
<path d="M65.402 59C65.276 59 65.148 58.976 65.024 58.925C64.513 58.716 64.268 58.132 64.477 57.621L73.477 35.621C73.686 35.11 74.269 34.867 74.781 35.074C75.292 35.283 75.537 35.867 75.328 36.378L66.328 58.378C66.169 58.766 65.796 59 65.402 59Z" fill="white"/>
<path d="M74.1793 36.356C72.9393 36.356 71.7523 36.039 70.8093 35.42C68.2913 33.77 63.5903 31 60.4023 31C59.8503 31 59.4023 30.552 59.4023 30C59.4023 29.448 59.8503 29 60.4023 29C63.9243 29 68.6023 31.582 71.9063 33.748C72.9423 34.428 74.5383 34.549 75.9713 34.054C77.1863 33.635 78.0643 32.858 78.3803 31.923C78.4123 31.828 78.4293 31.768 78.4323 31.753C78.5703 31.222 79.1103 30.901 79.6433 31.036C80.1753 31.17 80.5003 31.709 80.3713 32.243C80.3713 32.243 80.3423 32.362 80.2743 32.563C79.7573 34.09 78.4273 35.322 76.6223 35.944C75.8223 36.221 74.9893 36.356 74.1793 36.356Z" fill="white"/>
<path d="M62.4023 85H50.4023C49.8503 85 49.4023 84.552 49.4023 84V80C49.4023 79.448 49.8503 79 50.4023 79H62.4023C62.9543 79 63.4023 79.448 63.4023 80V84C63.4023 84.552 62.9543 85 62.4023 85ZM51.4023 83H61.4023V81H51.4023V83Z" fill="white"/>
<path d="M58.4023 81H54.4023C53.8503 81 53.4023 80.552 53.4023 80V33.445C53.4023 33.087 53.5933 32.757 53.9033 32.578C54.2133 32.399 54.5953 32.401 54.9043 32.58C55.8613 33.136 56.9423 33.136 57.8993 32.58C58.2083 32.4 58.5903 32.399 58.9003 32.578C59.2113 32.757 59.4023 33.087 59.4023 33.445V80C59.4023 80.552 58.9543 81 58.4023 81ZM55.4023 79H57.4023V34.896C56.7463 35.036 56.0583 35.036 55.4023 34.896V79Z" fill="white"/>
<path d="M39.4023 69H37.4023C31.3373 69 26.4023 64.065 26.4023 58C26.4023 57.448 26.8503 57 27.4023 57H49.4023C49.9543 57 50.4023 57.448 50.4023 58C50.4023 64.065 45.4673 69 39.4023 69ZM28.4573 59C28.9563 63.494 32.7773 67 37.4023 67H39.4023C44.0273 67 47.8483 63.494 48.3473 59H28.4573Z" fill="white"/>
<path d="M47.403 59C47.009 59 46.635 58.766 46.477 58.378L37.477 36.378C37.268 35.867 37.513 35.283 38.024 35.074C38.536 34.868 39.119 35.11 39.328 35.621L48.328 57.621C48.537 58.132 48.292 58.716 47.781 58.925C47.658 58.976 47.529 59 47.403 59Z" fill="white"/>
<path d="M29.402 59C29.276 59 29.148 58.976 29.024 58.925C28.513 58.716 28.268 58.132 28.477 57.621L37.477 35.621C37.686 35.11 38.269 34.867 38.781 35.074C39.292 35.283 39.537 35.867 39.328 36.378L30.328 58.378C30.169 58.766 29.796 59 29.402 59Z" fill="white"/>
</g>
<defs>
<clipPath id="clip0_2553_2868">
<rect width="60" height="60" fill="white" transform="translate(26.4023 25)"/>
</clipPath>
</defs>
</svg>
