<svg width="24" height="23" viewBox="0 0 24 23" fill="none" xmlns="http://www.w3.org/2000/svg">
<path d="M23.25 11.4932C23.25 10.8028 22.6903 10.2432 22 10.2432H2C1.30967 10.2432 0.75 10.8028 0.75 11.4932C0.75 12.1837 1.30967 12.7432 2 12.7432H22C22.6903 12.7432 23.25 12.1837 23.25 11.4932Z" fill="#A70A12"/>
<path d="M11.1162 0.616113C10.628 1.10426 10.628 1.89573 11.1162 2.38388L20.2322 11.5L11.1162 20.6162C10.628 21.1043 10.628 21.8957 11.1162 22.3838C11.6043 22.872 12.3957 22.872 12.8838 22.3838L22.8839 12.3838C23.372 11.8957 23.372 11.1043 22.8839 10.6162L12.8838 0.616113C12.3957 0.127962 11.6043 0.127962 11.1162 0.616113Z" fill="#A70A12"/>
</svg>
