<svg width="60" height="60" viewBox="0 0 60 60" fill="none" xmlns="http://www.w3.org/2000/svg">
<g clip-path="url(#clip0_2254_3377)">
<path d="M27.5002 57.4618C12.3376 57.4618 0 45.1246 0 29.9621C0 14.7996 12.3376 2.46191 27.5002 2.46191C32.7727 2.46191 37.9024 3.96429 42.3349 6.8093C43.2051 7.3696 43.4601 8.52957 42.8998 9.40207C42.3376 10.2746 41.18 10.5268 40.3075 9.96695C36.4824 7.50922 32.0526 6.21191 27.5002 6.21191C14.4049 6.21191 3.75 16.8668 3.75 29.9621C3.75 43.0569 14.4049 53.7118 27.5002 53.7118C40.5949 53.7118 51.2498 43.0569 51.2498 29.9621C51.2498 29.1793 51.2123 28.4043 51.14 27.6421C51.0402 26.6094 51.795 25.6943 52.825 25.5945C53.86 25.4993 54.7723 26.2496 54.8726 27.2796C54.9573 28.1621 54.9998 29.0571 54.9998 29.9621C54.9998 45.1246 42.6627 57.4618 27.5002 57.4618Z" fill="#707070"/>
<path d="M30.6241 36.2119C30.1443 36.2119 29.6642 36.0292 29.2993 35.6621L18.0493 24.4121C17.3169 23.6792 17.3169 22.4918 18.0493 21.7594C18.7817 21.0269 19.9692 21.0269 20.7016 21.7594L30.6268 31.6846L56.799 5.51196C57.5319 4.77954 58.7193 4.77954 59.4518 5.51196C60.1842 6.24438 60.1842 7.43182 59.4518 8.16425L31.9516 35.6644C31.584 36.0292 31.1043 36.2119 30.6241 36.2119Z" fill="#A70A12"/>
</g>
<defs>
<clipPath id="clip0_2254_3377">
<rect width="60.0019" height="60" fill="white"/>
</clipPath>
</defs>
</svg>
