<svg width="62" height="91" viewBox="0 0 62 91" fill="none" xmlns="http://www.w3.org/2000/svg">
<path d="M30.646 90.8243L4.36323 43.6865L57.4453 43.9782L30.646 90.8243Z" fill="#A70A12"/>
<rect x="0.9375" width="60" height="60" rx="30" fill="#A70A12"/>
<g clip-path="url(#clip0_2279_339)">
<path d="M19.1496 17.5705C18.6096 17.5705 18.0543 17.4798 17.5203 17.2958C16.317 16.8812 15.4296 16.0598 15.0856 15.0418C15.0403 14.9072 15.021 14.8285 15.021 14.8285C14.9343 14.4712 15.1523 14.1092 15.509 14.0218C15.865 13.9332 16.223 14.1472 16.3136 14.5018C16.3163 14.5118 16.3276 14.5518 16.349 14.6152C16.5596 15.2385 17.145 15.7558 17.955 16.0352C18.9103 16.3652 19.9736 16.2852 20.665 15.8312C22.8676 14.3878 25.9863 12.6665 28.3343 12.6665C28.7023 12.6665 29.0009 12.9652 29.0009 13.3332C29.0009 13.7012 28.7023 13.9998 28.3343 13.9998C26.209 13.9998 23.075 15.8465 21.3963 16.9472C20.7676 17.3592 19.9756 17.5705 19.1496 17.5705Z" fill="white"/>
<path d="M30.9993 16.6667C29.1613 16.6667 27.666 15.1713 27.666 13.3333C27.666 11.4953 29.1613 10 30.9993 10C32.8373 10 34.3327 11.4953 34.3327 13.3333C34.3327 15.1713 32.8373 16.6667 30.9993 16.6667ZM30.9993 11.3333C29.8967 11.3333 28.9993 12.2307 28.9993 13.3333C28.9993 14.436 29.8967 15.3333 30.9993 15.3333C32.102 15.3333 32.9993 14.436 32.9993 13.3333C32.9993 12.2307 32.102 11.3333 30.9993 11.3333Z" fill="white"/>
<path d="M43.6667 39.3335H42.3333C38.29 39.3335 35 36.0435 35 32.0002C35 31.6322 35.2987 31.3335 35.6667 31.3335H50.3333C50.7013 31.3335 51 31.6322 51 32.0002C51 36.0435 47.71 39.3335 43.6667 39.3335ZM36.37 32.6668C36.7027 35.6628 39.25 38.0002 42.3333 38.0002H43.6667C46.75 38.0002 49.2973 35.6628 49.63 32.6668H36.37Z" fill="white"/>
<path d="M48.9991 32.6666C48.7365 32.6666 48.4871 32.5106 48.3818 32.2519L42.3818 17.5852C42.2425 17.2446 42.4058 16.8552 42.7465 16.7159C43.0885 16.5786 43.4765 16.7399 43.6158 17.0806L49.6158 31.7472C49.7551 32.0879 49.5918 32.4772 49.2511 32.6166C49.1691 32.6506 49.0831 32.6666 48.9991 32.6666Z" fill="white"/>
<path d="M37.0004 32.6669C36.9164 32.6669 36.8311 32.6509 36.7484 32.6169C36.4077 32.4775 36.2444 32.0882 36.3837 31.7475L42.3837 17.0809C42.5231 16.7402 42.9117 16.5782 43.2531 16.7162C43.5937 16.8555 43.7571 17.2449 43.6177 17.5855L37.6177 32.2522C37.5117 32.5109 37.2631 32.6669 37.0004 32.6669Z" fill="white"/>
<path d="M42.8513 17.5705C42.0247 17.5705 41.2333 17.3592 40.6047 16.9465C38.926 15.8465 35.792 13.9998 33.6667 13.9998C33.2987 13.9998 33 13.7012 33 13.3332C33 12.9652 33.2987 12.6665 33.6667 12.6665C36.0147 12.6665 39.1333 14.3878 41.336 15.8318C42.0267 16.2852 43.0907 16.3658 44.046 16.0358C44.856 15.7565 45.4413 15.2385 45.652 14.6152C45.6733 14.5518 45.6847 14.5118 45.6867 14.5018C45.7787 14.1478 46.1387 13.9338 46.494 14.0238C46.8487 14.1132 47.0653 14.4725 46.9793 14.8285C46.9793 14.8285 46.96 14.9078 46.9147 15.0418C46.57 16.0598 45.6833 16.8812 44.48 17.2958C43.9467 17.4805 43.3913 17.5705 42.8513 17.5705Z" fill="white"/>
<path d="M35.0007 50H27.0007C26.6327 50 26.334 49.7013 26.334 49.3333V46.6667C26.334 46.2987 26.6327 46 27.0007 46H35.0007C35.3687 46 35.6673 46.2987 35.6673 46.6667V49.3333C35.6673 49.7013 35.3687 50 35.0007 50ZM27.6673 48.6667H34.334V47.3333H27.6673V48.6667Z" fill="white"/>
<path d="M32.3333 47.3333H29.6667C29.2987 47.3333 29 47.0346 29 46.6666V15.63C29 15.3913 29.1273 15.1713 29.334 15.052C29.5407 14.9326 29.7953 14.934 30.0013 15.0533C30.6393 15.424 31.36 15.424 31.998 15.0533C32.204 14.9333 32.4587 14.9326 32.6653 15.052C32.8727 15.1713 33 15.3913 33 15.63V46.6666C33 47.0346 32.7013 47.3333 32.3333 47.3333ZM30.3333 46H31.6667V16.5973C31.2293 16.6906 30.7707 16.6906 30.3333 16.5973V46Z" fill="white"/>
<path d="M19.6667 39.3335H18.3333C14.29 39.3335 11 36.0435 11 32.0002C11 31.6322 11.2987 31.3335 11.6667 31.3335H26.3333C26.7013 31.3335 27 31.6322 27 32.0002C27 36.0435 23.71 39.3335 19.6667 39.3335ZM12.37 32.6668C12.7027 35.6628 15.25 38.0002 18.3333 38.0002H19.6667C22.75 38.0002 25.2973 35.6628 25.63 32.6668H12.37Z" fill="white"/>
<path d="M24.9991 32.6666C24.7365 32.6666 24.4871 32.5106 24.3818 32.2519L18.3818 17.5852C18.2425 17.2446 18.4058 16.8552 18.7465 16.7159C19.0878 16.5786 19.4765 16.7399 19.6158 17.0806L25.6158 31.7472C25.7551 32.0879 25.5918 32.4772 25.2511 32.6166C25.1691 32.6506 25.0831 32.6666 24.9991 32.6666Z" fill="white"/>
<path d="M13.0004 32.6669C12.9164 32.6669 12.8311 32.6509 12.7484 32.6169C12.4077 32.4775 12.2444 32.0882 12.3837 31.7475L18.3837 17.0809C18.5231 16.7402 18.9117 16.5782 19.2531 16.7162C19.5937 16.8555 19.7571 17.2449 19.6177 17.5855L13.6177 32.2522C13.5117 32.5109 13.2631 32.6669 13.0004 32.6669Z" fill="white"/>
</g>
<defs>
<clipPath id="clip0_2279_339">
<rect width="40" height="40" fill="white" transform="translate(11 10)"/>
</clipPath>
</defs>
</svg>
