<svg width="40" height="40" viewBox="0 0 40 40" fill="none" xmlns="http://www.w3.org/2000/svg">
<rect x="1" y="1" width="38" height="38" rx="19" stroke="#A70A12" stroke-width="2"/>
<path d="M25 29.0003C23.3463 28.9988 21.7183 28.5901 20.26 27.8103L19.81 27.5603C16.7008 25.8886 14.1517 23.3395 12.48 20.2303L12.23 19.7803C11.4298 18.3137 11.0071 16.671 11 15.0003V14.3303C10.9996 13.7972 11.212 13.2861 11.59 12.9103L13.28 11.2203C13.4441 11.0549 13.6758 10.9751 13.907 11.0045C14.1381 11.0339 14.3425 11.1691 14.46 11.3703L16.71 15.2303C16.9375 15.6232 16.8718 16.12 16.55 16.4403L14.66 18.3303C14.503 18.4855 14.4665 18.7253 14.57 18.9203L14.92 19.5803C16.177 21.9087 18.0893 23.8175 20.42 25.0703L21.08 25.4303C21.275 25.5338 21.5148 25.4972 21.67 25.3403L23.56 23.4503C23.8802 23.1285 24.3771 23.0628 24.77 23.2903L28.63 25.5403C28.8312 25.6578 28.9664 25.8622 28.9957 26.0933C29.0251 26.3245 28.9454 26.5562 28.78 26.7203L27.09 28.4103C26.7142 28.7883 26.203 29.0007 25.67 29.0003H25Z" fill="#A70A12"/>
</svg>
