<svg width="40" height="40" viewBox="0 0 40 40" fill="none" xmlns="http://www.w3.org/2000/svg">
<g clip-path="url(#clip0_2343_260)">
<path d="M20.4787 10.0079C20.4787 9.04289 19.6936 8.25781 18.7286 8.25781C17.7636 8.25781 16.9785 9.04289 16.9785 10.0079C16.9785 10.9729 17.7636 11.758 18.7286 11.758C19.6936 11.758 20.4787 10.9729 20.4787 10.0079ZM18.1503 10.0079C18.1503 9.68906 18.4097 9.42969 18.7285 9.42969C19.0473 9.42969 19.3067 9.68906 19.3067 10.0079C19.3067 10.3267 19.0473 10.5861 18.7285 10.5861C18.4097 10.5861 18.1503 10.3267 18.1503 10.0079Z" fill="#A70A12"/>
<path d="M37.4939 18.8953C37.0249 18.8953 36.5759 19.0247 36.1877 19.2664V16.7C36.1877 15.9223 35.8851 15.1915 35.3356 14.6418C34.786 14.0924 34.0551 13.7898 33.2775 13.7898C32.7745 13.7898 32.3013 13.9185 31.8881 14.144V2.0875C31.8881 0.936483 30.9517 0 29.8006 0H10.6913C10.3676 0 10.1054 0.262343 10.1054 0.585936C10.1054 0.90953 10.3676 1.17187 10.6913 1.17187H29.8006C30.3055 1.17187 30.7163 1.58265 30.7163 2.0875V12.271C30.7063 12.2608 30.6969 12.2501 30.6867 12.2399C30.1431 11.6973 29.4211 11.3949 28.6533 11.3883C28.6456 11.3882 28.6381 11.3882 28.6305 11.3882C27.8704 11.3882 27.15 11.688 26.5998 12.234C26.5418 12.2915 26.4867 12.3513 26.4339 12.4131L25.5496 10.4487C26.3678 10.1179 26.9467 9.31584 26.9467 8.38053C26.9467 7.15077 25.9462 6.15022 24.7164 6.15022H20.5533V4.82655C20.5533 4.33905 20.3633 3.88062 20.0184 3.5357C19.674 3.19124 19.2159 3.00156 18.7282 3.00156C17.7224 3.00156 16.904 3.82023 16.904 4.82655V6.15022H12.7408C11.511 6.15022 10.5105 7.15069 10.5105 8.38053C10.5105 9.31576 11.0894 10.1179 11.9075 10.4487L10.3873 13.8267H10.0764C9.75272 13.8267 9.49045 14.089 9.49045 14.4126C9.49045 16.2049 10.9486 17.663 12.7408 17.663C14.533 17.663 15.9911 16.2049 15.9911 14.4126C15.9911 14.089 15.7289 13.8267 15.4052 13.8267H15.0943L13.647 10.6108H14.8983C15.085 11.8375 15.8494 12.8766 16.9041 13.442V18.2742H14.7166C14.2305 18.2742 13.7738 18.4633 13.4311 18.806C13.0868 19.1491 12.8971 19.6061 12.8971 20.0929C12.8971 21.0958 13.7133 21.9117 14.7166 21.9117H21.0689V25.7541L19.7302 24.4153C18.4952 23.1804 16.4852 23.1802 15.2492 24.4153C14.8339 24.8307 14.5483 25.3409 14.412 25.8968H6.28264V1.17187H8.34764C8.67131 1.17187 8.93358 0.90953 8.93358 0.585936C8.93358 0.262343 8.67131 0 8.34764 0H5.69679H5.69663C2.57054 7.81249e-05 0.0273438 2.54335 0.0273438 5.66952V31.5663C0.0273438 34.6588 2.5171 37.1791 5.59741 37.2326V38.4545C5.59741 39.0501 5.93015 39.582 6.46577 39.8426C7.00132 40.1031 7.62514 40.0367 8.09381 39.6691L9.2899 38.7308C9.42506 38.6248 9.61373 38.6248 9.74889 38.7308L10.945 39.669C11.2239 39.8878 11.5578 39.9999 11.8953 39.9999C12.1249 39.9999 12.3562 39.948 12.5731 39.8425C13.1087 39.582 13.4415 39.05 13.4415 38.4544V37.2351H23.5873C23.971 37.6267 24.1909 38.1634 24.1909 38.7116V39.414C24.1909 39.7376 24.4532 39.9999 24.7768 39.9999C25.1005 39.9999 25.3628 39.7376 25.3628 39.414V38.7116C25.3628 37.8479 25.0124 37.0021 24.4013 36.3911L16.0779 28.0685C15.7004 27.6909 15.4925 27.1894 15.4925 26.6562C15.4925 26.1231 15.7004 25.6215 16.0778 25.2442C16.8567 24.4659 18.1235 24.4658 18.9016 25.244L21.2406 27.5831C21.4082 27.7506 21.66 27.8007 21.8792 27.7101C22.0982 27.6194 22.2409 27.4057 22.2409 27.1688V16.3312C22.2409 15.8676 22.422 15.4309 22.7508 15.1015C23.0787 14.773 23.5152 14.5922 23.9799 14.5922C24.9381 14.5922 25.7177 15.3718 25.7182 16.3304C25.7182 16.3308 25.7181 16.3311 25.7181 16.3315V24.5541C25.7181 24.8777 25.9803 25.14 26.304 25.14C26.6277 25.14 26.8899 24.8777 26.8899 24.5541L26.89 14.3398C26.89 13.8676 27.0851 13.4033 27.4252 13.0658C27.7543 12.7394 28.182 12.5601 28.6304 12.5601C28.6348 12.5601 28.6392 12.5601 28.6437 12.5601C29.1023 12.5641 29.534 12.745 29.8582 13.0686C30.1867 13.3976 30.3675 13.8344 30.3675 14.2985L30.3672 19.2711C30.3672 19.5947 30.6295 19.8571 30.9531 19.8571C31.2768 19.8571 31.5391 19.5947 31.5391 19.2711V16.7061C31.5391 16.704 31.5394 16.7021 31.5394 16.7C31.5394 15.7415 32.3192 14.9618 33.2777 14.9618C33.7423 14.9618 34.1789 15.1425 34.507 15.4706C34.8352 15.7988 35.0159 16.2354 35.0159 16.7L35.0163 26.8565C35.0163 27.1801 35.2785 27.4424 35.6022 27.4424C35.9259 27.4424 36.1881 27.1801 36.1881 26.8565V21.3732C36.1881 21.3721 36.188 21.3712 36.188 21.3703C36.1888 21.0221 36.3245 20.6954 36.5709 20.4496C36.8174 20.2031 37.1452 20.0673 37.494 20.0673C38.2138 20.0673 38.7995 20.6532 38.7995 21.3736V31.3556C38.7995 32.9735 38.3342 34.5457 37.454 35.9023C37.4498 35.9088 37.4458 35.9153 37.4418 35.922C36.8048 36.9115 36.4682 38.0558 36.4682 39.2329V39.4141C36.4682 39.7377 36.7305 40.0001 37.0541 40.0001C37.3778 40.0001 37.6401 39.7377 37.6401 39.4141V39.2329C37.6401 38.2752 37.9156 37.3444 38.437 36.5409C38.4413 36.5345 38.4452 36.528 38.4491 36.5214C39.445 34.9788 39.9713 33.193 39.9713 31.3556V21.3734C39.9713 20.007 38.8599 18.8953 37.4939 18.8953ZM1.19922 5.66952C1.19922 3.3882 2.90687 1.49953 5.11077 1.21133V3.75101C3.5207 3.91499 2.12437 4.73952 1.19922 5.94397V5.66952ZM1.19922 9.37842C1.20523 7.10241 2.91062 5.21976 5.11077 4.93202V7.65545C3.5207 7.81944 2.12437 8.64397 1.19922 9.84842V9.37842ZM1.19922 13.2829C1.20523 11.0069 2.91062 9.1242 5.11077 8.83655V16.9386C3.5207 17.1026 2.12437 17.9272 1.19922 19.1316V13.2829ZM1.19922 22.5661C1.20523 20.29 2.91062 18.4074 5.11077 18.1197V20.8431C3.5207 21.0071 2.12437 21.8316 1.19922 23.036V22.5661ZM1.19922 26.4704C1.20523 24.1944 2.91062 22.3118 5.11077 22.024V25.927C3.5207 26.091 2.12429 26.9157 1.19922 28.1202V26.4704ZM1.19922 31.5663C1.19922 29.0863 3.21679 27.0687 5.69679 27.0687H14.3479C14.4372 27.7586 14.7488 28.3967 15.2493 28.8971L15.2521 28.8999H5.69679C4.22655 28.8999 3.03038 30.0961 3.03038 31.5663C3.03038 33.0028 4.17304 34.1769 5.59733 34.2295V36.0607C3.16328 36.0074 1.19922 34.0126 1.19922 31.5663ZM13.4414 30.0718H16.424L19.4125 33.0601H13.4413V30.0718H13.4414ZM5.59741 33.0551C4.81976 33.0035 4.20234 32.3565 4.20234 31.5664C4.20234 30.7759 4.81976 30.1285 5.59741 30.0769V33.0551ZM12.0603 38.7888C11.9973 38.8195 11.8331 38.8765 11.6681 38.747L10.472 37.8088C10.1915 37.5888 9.85537 37.4788 9.51928 37.4788C9.18319 37.4788 8.84701 37.5888 8.56655 37.8088L7.37045 38.7471C7.20522 38.8767 7.04124 38.8195 6.97827 38.7889C6.91538 38.7583 6.76913 38.6645 6.76913 38.4545V30.0718H12.2694V38.4545C12.2695 38.6644 12.1233 38.7582 12.0603 38.7888ZM13.4414 34.232H20.5846L22.416 36.0632H13.4414V34.232ZM18.076 4.82655C18.076 4.4664 18.3686 4.17343 18.7283 4.17343C18.9028 4.17343 19.0667 4.24116 19.1897 4.36429C19.3134 4.48788 19.3814 4.6521 19.3814 4.82655V6.15022H18.076V4.82655ZM12.7408 16.4911C11.7981 16.4911 11 15.8603 10.7465 14.9985H10.7662H14.7156H14.7354C14.4818 15.8603 13.6836 16.4911 12.7408 16.4911ZM11.6724 13.8266L12.7408 11.4526L13.8093 13.8266H11.6724ZM16.0259 10.0249C16.0259 9.70131 15.7636 9.43897 15.44 9.43897H12.7408C12.1572 9.43897 11.6825 8.9642 11.6825 8.38053C11.6825 7.79686 12.1572 7.3221 12.7408 7.3221H24.7164C25.3001 7.3221 25.7749 7.79686 25.7749 8.38053C25.7749 8.9642 25.3001 9.43897 24.7164 9.43897H22.0173C21.6936 9.43897 21.4314 9.70131 21.4314 10.0249C21.4314 11.5152 20.2189 12.7276 18.7286 12.7276C17.2383 12.7276 16.0259 11.5152 16.0259 10.0249ZM18.076 13.8436C18.2883 13.8798 18.5062 13.8995 18.7286 13.8995C18.9511 13.8995 19.169 13.8798 19.3814 13.8436V18.2743H18.0759V13.8436H18.076ZM14.7166 20.7398C14.3595 20.7398 14.069 20.4496 14.069 20.0929C14.069 19.92 14.1361 19.7578 14.2591 19.6354C14.3811 19.5133 14.5436 19.4461 14.7166 19.4461H21.0689V20.7398H14.7166ZM21.9214 14.2736C21.3717 14.8243 21.0689 15.555 21.0689 16.3312V18.2742H20.5533V13.4419C21.6079 12.8765 22.3721 11.8374 22.559 10.6108H23.8103L22.3095 13.9476C22.1724 14.044 22.0422 14.1525 21.9214 14.2736ZM23.9798 13.4203C23.9296 13.4203 23.8796 13.4217 23.8298 13.4242L24.7165 11.4529L25.7705 13.7944C25.7567 13.8665 25.7451 13.9391 25.7367 14.0122C25.2483 13.6408 24.6394 13.4203 23.9798 13.4203Z" fill="#A70A12"/>
<path d="M30.9531 21.0288C30.6295 21.0288 30.3672 21.2912 30.3672 21.6147V24.6265C30.3672 24.9501 30.6295 25.2124 30.9531 25.2124C31.2768 25.2124 31.5391 24.9501 31.5391 24.6265V21.6147C31.5391 21.2912 31.2768 21.0288 30.9531 21.0288Z" fill="#A70A12"/>
</g>
<defs>
<clipPath id="clip0_2343_260">
<rect width="40" height="40" fill="white"/>
</clipPath>
</defs>
</svg>
