<svg width="40" height="40" viewBox="0 0 40 40" fill="none" xmlns="http://www.w3.org/2000/svg">
<g clip-path="url(#clip0_2343_139)">
<path d="M32.2393 10.3313C32.0663 10.2792 31.9045 10.3184 31.7563 10.4256C31.6039 10.5357 31.543 10.7203 31.543 10.9084V11.6846C31.543 12.0082 31.8053 12.2705 32.1289 12.2705C32.4525 12.2705 32.7148 12.0082 32.7148 11.6846V11.4437C32.8561 11.4098 33.0149 11.3581 33.1886 11.2807C33.4842 11.1489 33.617 10.8025 33.4853 10.507C33.3536 10.2114 33.0071 10.0786 32.7116 10.2103C32.4532 10.3254 32.2871 10.3322 32.2393 10.3313Z" fill="#A70A12"/>
<path d="M31.2239 13.7598C30.7324 14.061 30.1219 14.061 29.6304 13.7598C29.3544 13.5907 28.9938 13.6773 28.8247 13.9532C28.6556 14.2291 28.7422 14.5899 29.0182 14.7589C29.4527 15.0253 29.94 15.1585 30.4272 15.1585C30.9145 15.1585 31.4017 15.0253 31.8363 14.7589C32.1122 14.5898 32.1988 14.2291 32.0297 13.9532C31.8606 13.6773 31.4999 13.5907 31.2239 13.7598Z" fill="#A70A12"/>
<path d="M29.3136 11.6847V10.9085C29.3136 10.7205 29.2527 10.5359 29.1003 10.4257C28.9521 10.3186 28.7903 10.2793 28.6173 10.3314C28.5693 10.3321 28.4032 10.3255 28.1449 10.2103C27.8494 10.0786 27.5029 10.2115 27.3712 10.507C27.2395 10.8026 27.3723 11.149 27.6679 11.2807C27.8417 11.3581 28.0005 11.4098 28.1417 11.4437V11.6846C28.1417 12.0082 28.4041 12.2705 28.7277 12.2705C29.0513 12.2705 29.3136 12.0083 29.3136 11.6847Z" fill="#A70A12"/>
<path d="M9.1836 10.9842V10.2117C9.1836 9.88808 8.92125 9.62573 8.59766 9.62573C8.27406 9.62573 8.01172 9.88808 8.01172 10.2117V10.9842C8.01172 11.3078 8.27406 11.5701 8.59766 11.5701C8.92125 11.5701 9.1836 11.3078 9.1836 10.9842Z" fill="#A70A12"/>
<path d="M11.252 11.5701C11.5755 11.5701 11.8379 11.3078 11.8379 10.9842V10.2117C11.8379 9.88808 11.5755 9.62573 11.252 9.62573C10.9284 9.62573 10.666 9.88808 10.666 10.2117V10.9842C10.6661 11.3078 10.9284 11.5701 11.252 11.5701Z" fill="#A70A12"/>
<path d="M11.5232 13.2408C11.3541 12.965 10.9934 12.8783 10.7175 13.0474C10.2292 13.3466 9.62263 13.3466 9.13435 13.0474C8.85841 12.8783 8.49763 12.9649 8.32865 13.2408C8.15951 13.5168 8.24615 13.8775 8.52208 14.0465C8.95505 14.3119 9.44045 14.4446 9.92592 14.4446C10.4113 14.4446 10.8969 14.3119 11.3298 14.0465C11.6057 13.8776 11.6922 13.5168 11.5232 13.2408Z" fill="#A70A12"/>
<path d="M19.4902 18.6598V18.0584C19.4902 17.7348 19.2279 17.4724 18.9043 17.4724C18.5807 17.4724 18.3184 17.7348 18.3184 18.0584V18.6598C18.3184 18.9834 18.5807 19.2458 18.9043 19.2458C19.2279 19.2458 19.4902 18.9834 19.4902 18.6598Z" fill="#A70A12"/>
<path d="M20.9727 17.4724C20.6491 17.4724 20.3867 17.7348 20.3867 18.0584V18.6598C20.3867 18.9834 20.6491 19.2458 20.9727 19.2458C21.2963 19.2458 21.5586 18.9834 21.5586 18.6598V18.0584C21.5586 17.7348 21.2963 17.4724 20.9727 17.4724Z" fill="#A70A12"/>
<path d="M20.4874 20.1555C20.149 20.3629 19.7286 20.3628 19.3903 20.1555C19.1142 19.9864 18.7535 20.0731 18.5845 20.3489C18.4154 20.6249 18.502 20.9856 18.7779 21.1547C19.136 21.3741 19.5374 21.4838 19.9388 21.4838C20.3403 21.4838 20.7417 21.3741 21.0997 21.1547C21.3756 20.9856 21.4622 20.6249 21.2931 20.3489C21.1241 20.0731 20.7634 19.9865 20.4874 20.1555Z" fill="#A70A12"/>
<path d="M39.9772 32.4065C39.8951 31.8387 39.5965 31.3366 39.1364 30.9927C38.9225 30.833 38.6856 30.717 38.4364 30.6461V25.5318C38.4364 25.3617 38.3625 25.2001 38.2339 25.0888C38.1053 24.9775 37.9347 24.9275 37.7664 24.952L35.8512 25.2295V22.587C35.8512 20.6824 34.8326 18.9355 33.2587 17.9641C34.115 17.4671 34.8232 16.7556 35.3214 15.9106H37.3559C37.6795 15.9106 37.9418 15.6483 37.9418 15.3247V7.99122C37.9418 3.848 34.5714 0.477295 30.4287 0.477295C26.2855 0.477295 22.9147 3.84808 22.9147 7.99122V10.8492C22.2398 10.5547 21.5059 10.3985 20.7475 10.3985H19.1289C18.8455 10.3985 18.566 10.4205 18.2921 10.4625C18.2055 9.73778 17.7872 9.11372 17.1932 8.74731V3.44863C17.1932 1.85425 15.8964 0.557139 14.3024 0.557139C13.3979 0.557139 12.5894 0.974874 12.0588 1.6273C11.5756 0.978311 10.8029 0.557139 9.93365 0.557139H7.1688C6.57934 0.557139 6.00864 0.676905 5.47239 0.913155C5.17629 1.04362 5.042 1.38948 5.17247 1.68558C5.30286 1.98175 5.64879 2.11597 5.94489 1.98558C6.3313 1.81534 6.74302 1.72902 7.1688 1.72902H9.93365C10.7478 1.72902 11.4102 2.39175 11.4102 3.20636V4.11465C11.3747 4.15808 11.3444 4.20636 11.3221 4.26011C10.7872 5.55012 9.53943 6.38371 8.1431 6.38371C7.99107 6.38528 7.59833 6.37863 7.4581 6.39121C6.16239 6.47582 5.06926 7.28129 4.55981 8.39981H4.12989V4.76808C4.12989 4.26136 4.25731 3.75964 4.49832 3.31722C4.65317 3.03308 4.54832 2.67722 4.2641 2.52238C3.97989 2.36753 3.6241 2.47238 3.46926 2.7566C3.13481 3.3705 2.95801 4.06605 2.95801 4.76816V8.58981C2.68895 8.70559 2.44144 8.87208 2.22832 9.08528C1.78527 9.52739 1.54121 10.1158 1.54121 10.7421C1.54121 12.034 2.59223 13.0851 3.88418 13.0851H4.25332C4.2616 14.5967 4.85551 16.0144 5.92903 17.0799C6.28106 17.4294 6.67122 17.7258 7.08911 17.968C5.51872 18.94 4.50254 20.6853 4.50254 22.5872V25.2804L2.23355 24.9518C2.06527 24.9273 1.89465 24.9773 1.76613 25.0886C1.63754 25.1999 1.56363 25.3616 1.56363 25.5316V30.6472C0.773551 30.8724 0.147612 31.5424 0.0227681 32.4062C-0.0598102 32.9745 0.083862 33.5408 0.427378 34.0008C0.770895 34.4608 1.27316 34.7593 1.84121 34.8414L14.923 36.7367C16.0178 38.4627 17.9368 39.5232 19.9999 39.5232C22.063 39.5232 23.982 38.4626 25.0768 36.7367L27.3445 36.408V38.1307C27.3445 38.6674 27.6444 39.1466 28.1271 39.3813C28.3224 39.4763 28.5308 39.523 28.7376 39.5229C29.0417 39.5229 29.3425 39.4219 29.5936 39.2247L30.5983 38.4364C30.6781 38.3739 30.7897 38.3739 30.8689 38.436L31.8742 39.2249C32.2967 39.556 32.8587 39.6159 33.3412 39.3811C33.8235 39.1464 34.1231 38.6672 34.1231 38.1307V35.4265L38.1584 34.8415C38.7267 34.7595 39.2289 34.461 39.5725 34.0009C39.916 33.5407 40.0598 32.9744 39.9772 32.4065ZM2.71301 10.7419C2.71301 10.4291 2.83481 10.1354 3.05637 9.91419C3.27738 9.69325 3.57129 9.57153 3.8841 9.57153H4.26215C4.25637 9.65255 4.25246 9.73403 4.25246 9.81638V11.913H3.8841C3.2384 11.913 2.71301 11.3876 2.71301 10.7419ZM34.6795 22.587V25.3992L32.7627 25.677C32.4424 25.7234 32.2204 26.0205 32.2668 26.3408C32.3132 26.6611 32.6105 26.8829 32.9306 26.8366L37.2646 26.2088V30.6273L34.1232 31.0828V30.002C34.1232 29.8319 34.0493 29.6702 33.9208 29.5589C33.7922 29.4477 33.6216 29.3977 33.4533 29.4221L27.8465 30.2342C27.5584 30.2759 27.3445 30.5229 27.3445 30.8141V32.0645L23.3538 32.6432C22.606 32.751 21.962 33.2528 21.6723 33.9547L21.5889 34.1587C21.401 34.617 21.033 34.9595 20.5858 35.1209V32.6524V32.6521C20.5858 31.5368 20.9871 30.4574 21.7159 29.6127C22.4446 28.7683 23.4532 28.2132 24.556 28.0497C24.5635 28.0486 24.5709 28.0473 24.5784 28.0459L30.6243 27.1711C30.9446 27.1247 31.1667 26.8275 31.1203 26.5073C31.0739 26.187 30.7764 25.9655 30.4565 26.0113L26.1772 26.6305V22.587C26.1772 20.7737 27.3545 19.1412 29.0592 18.5616C29.5014 18.6701 29.9597 18.7263 30.4267 18.7263C30.4412 18.7263 30.4559 18.7262 30.4705 18.7262C30.9158 18.7233 31.3594 18.6666 31.791 18.559C33.4995 19.1378 34.6795 20.7713 34.6795 22.587ZM15.3484 26.8512V22.587C15.3484 20.6811 14.3287 18.9334 12.7532 17.9623C13.1564 17.7277 13.5287 17.4436 13.8635 17.1155C14.0961 18.068 14.5848 18.9421 15.2958 19.6532C15.3273 19.6846 15.3594 19.7148 15.3915 19.7452V20.2708C15.3915 21.4917 15.8687 22.6378 16.7354 23.498C16.924 23.6852 17.1266 23.8526 17.3398 24.0018C16.5305 24.7266 16.0548 25.7653 16.0548 26.8895V26.9741C15.9155 26.9423 15.7751 26.9144 15.6331 26.8929C15.6196 26.8903 15.6062 26.8882 15.5919 26.8863L15.3484 26.8512ZM10.5493 18.6912C10.7969 18.6636 11.0433 18.6191 11.2867 18.5584C12.996 19.1369 14.1765 20.7706 14.1765 22.587V26.6814L10.5493 26.156V18.6912ZM24.4852 20.2209V19.7455C25.3381 18.9335 25.8984 17.8725 26.0924 16.7233C26.1949 16.8433 26.3016 16.9605 26.4149 17.073C26.7709 17.4263 27.1658 17.7257 27.5888 17.9698C26.0202 18.942 25.0053 20.6863 25.0053 22.587V26.8001L24.4093 26.8863C24.3978 26.8879 24.3836 26.8899 24.3673 26.8931C24.1831 26.9209 24.0012 26.9582 23.8217 27.0032V26.8896C23.8217 25.7616 23.3436 24.7205 22.5302 23.996C23.727 23.1539 24.4852 21.7556 24.4852 20.2209ZM23.3134 20.2209C23.3134 21.7668 22.2862 23.1269 20.8151 23.5285C20.538 23.6044 20.2516 23.6437 19.9637 23.6456C19.055 23.6527 18.2039 23.3046 17.5609 22.6664C16.9176 22.0279 16.5633 21.1772 16.5633 20.2709V17.7509C16.5633 16.894 17.2318 16.1793 18.0877 16.1234C18.162 16.1166 18.4711 16.1208 18.5507 16.1197C19.6592 16.1197 20.6812 15.6341 21.3751 14.824C21.4732 14.9606 21.5827 15.0898 21.7029 15.2102C22.1489 15.6562 22.7067 15.9498 23.3134 16.0649V20.2209ZM17.2266 26.8896C17.2266 25.9412 17.712 25.0804 18.5072 24.5877C18.9626 24.7382 19.4435 24.8176 19.9369 24.8176C19.9485 24.8176 19.9603 24.8176 19.9719 24.8175C20.3612 24.8149 20.749 24.7616 21.1241 24.659C21.2055 24.6368 21.2855 24.6116 21.3648 24.5851C22.1627 25.0766 22.65 25.9385 22.65 26.8896V27.4345C21.9602 27.7769 21.3396 28.2552 20.8288 28.8471C20.4964 29.2324 20.2191 29.657 20 30.1084C19.7809 29.657 19.5036 29.2324 19.1711 28.847C18.6302 28.2202 17.9655 27.722 17.2266 27.3766V26.8896H17.2266ZM34.9534 12.9651C34.9534 15.0364 33.5764 16.859 31.6045 17.3973C31.2326 17.499 30.8485 17.5519 30.4622 17.5544C30.4506 17.5545 30.4391 17.5546 30.4274 17.5546C29.2252 17.5546 28.0945 17.089 27.2405 16.2414C26.378 15.3853 25.903 14.2447 25.903 13.0296V11.6127C25.903 10.4177 26.8355 9.42075 28.0284 9.34286C28.1321 9.33356 28.5272 9.33911 28.6376 9.3377C30.095 9.3377 31.4321 8.66333 32.2949 7.55098C32.4458 7.78918 32.6235 8.01161 32.8254 8.21387C33.4102 8.79864 34.1506 9.17138 34.9534 9.29356V12.9651ZM24.0866 7.99114C24.0866 4.4941 26.9317 1.64902 30.4288 1.64902C33.9254 1.64902 36.7701 4.4941 36.7701 7.99114V14.7387H35.8466C36.0273 14.1762 36.1253 13.5796 36.1253 12.9651V8.75169C36.1253 8.42809 35.8629 8.16575 35.5393 8.16575C34.827 8.16575 34.1574 7.88856 33.6544 7.38551C33.3038 7.03426 33.0586 6.5966 32.9454 6.11988C32.8867 5.8727 32.6754 5.69145 32.4221 5.67113C32.1688 5.65105 31.9313 5.79613 31.8341 6.03082C31.2964 7.32778 30.0417 8.16575 28.6376 8.16575C28.4778 8.16723 28.1029 8.16059 27.9495 8.17356C26.1448 8.29137 24.7311 9.80192 24.7311 11.6126V12.1445C24.6818 12.0912 24.6323 12.0381 24.5806 11.9865C24.4238 11.8297 24.2583 11.6851 24.0866 11.5503V7.99114ZM20.7476 11.5703C21.8823 11.5703 22.9493 12.0124 23.752 12.8151C24.5546 13.6178 24.9967 14.6847 24.9967 15.8194C24.9967 16.5336 24.8168 17.2258 24.4852 17.8392V15.5336C24.4852 15.21 24.2229 14.9476 23.8993 14.9476C23.3824 14.9476 22.8966 14.7465 22.5319 14.3817C22.2774 14.1268 22.0995 13.8093 22.0174 13.4636C21.9587 13.2163 21.7473 13.0351 21.4941 13.0148C21.2409 12.9948 21.0034 13.1398 20.9061 13.3744C20.5099 14.3301 19.5853 14.9476 18.5507 14.9476C18.4221 14.9487 18.1326 14.9435 18.0089 14.954C16.5412 15.0497 15.3915 16.2782 15.3915 17.7507V17.8441C15.0576 17.2297 14.8798 16.5383 14.8798 15.8194C14.8798 15.7605 14.8811 15.7016 14.884 15.64C14.9131 14.9212 15.1272 14.2168 15.5029 13.6029C16.2826 12.3301 17.6381 11.5702 19.129 11.5702H20.7476V11.5703ZM15.5984 11.7012V9.57161H15.9672C16.6125 9.57161 17.1375 10.0966 17.1375 10.7419C17.1375 10.7525 17.1367 10.763 17.1365 10.7736C16.5758 10.9937 16.0566 11.3066 15.5984 11.7012ZM14.3024 1.72902C15.2502 1.72902 16.0213 2.50042 16.0213 3.44863V8.40106C16.0033 8.40067 15.9853 8.39965 15.9672 8.39965H15.5984V6.96957C15.5984 6.64598 15.3361 6.38363 15.0125 6.38363C14.3047 6.38363 13.6387 6.10793 13.1386 5.6084C12.9017 5.37059 12.7146 5.09285 12.5828 4.79113V3.44863C12.5828 2.50042 13.3542 1.72902 14.3024 1.72902ZM5.42434 13.0531V9.81638C5.42434 8.62864 6.35122 7.6377 7.54005 7.56012C7.63278 7.55161 8.04036 7.55692 8.14302 7.55551C9.5931 7.55551 10.9237 6.88489 11.783 5.77879C11.9329 6.01481 12.1091 6.23543 12.3094 6.43653C12.8918 7.01809 13.6284 7.38911 14.4266 7.51114V12.989C14.4266 13.0353 14.4238 13.0817 14.4224 13.1282C14.0187 13.8342 13.7784 14.6261 13.722 15.4341C13.1188 16.3922 12.1694 17.1048 11.0962 17.3978C10.7235 17.4993 10.3413 17.5518 9.95904 17.5537C8.74974 17.5638 7.61208 17.099 6.75458 16.248C5.89676 15.3967 5.42434 14.262 5.42434 13.0531ZM5.67434 22.587C5.67434 20.7734 6.85216 19.1407 8.55755 18.5609C8.82544 18.6269 9.09927 18.6733 9.3774 18.6998V25.9863L5.67434 25.45V22.587ZM15.4214 28.0458C15.4288 28.0472 15.4362 28.0484 15.4437 28.0495C16.5466 28.2131 17.5551 28.7682 18.2837 29.6126C19.0126 30.4573 19.414 31.5368 19.414 32.6523V35.1207C18.9668 34.9592 18.5987 34.6164 18.4108 34.1578L18.3266 33.9526C18.0376 33.2527 17.3937 32.7509 16.6464 32.6432L2.73543 30.6273V26.2084L15.4214 28.0458ZM24.6338 35.6167C24.4547 35.6427 24.2976 35.7499 24.2083 35.9074C23.3529 37.4148 21.7404 38.3512 20 38.3512C18.2596 38.3512 16.6471 37.4148 15.7917 35.9074C15.7023 35.7499 15.5453 35.6426 15.3661 35.6167L2.00894 33.6815C1.75058 33.6442 1.52238 33.5085 1.36629 33.2995C1.21019 33.0904 1.14488 32.833 1.18246 32.5742C1.25957 32.0409 1.75668 31.6699 2.28957 31.7467L16.4789 33.803C16.8188 33.852 17.1118 34.0806 17.243 34.3985L17.3266 34.6021C17.77 35.6845 18.8086 36.3856 19.9768 36.3948C19.9845 36.3951 19.9921 36.396 19.9999 36.396C20.0077 36.396 20.0153 36.3951 20.023 36.3948C21.1911 36.3856 22.2297 35.6849 22.6735 34.6024L22.7563 34.3997C22.888 34.0806 23.181 33.8519 23.5214 33.8028L27.3445 33.2485V35.2236L24.6338 35.6167ZM32.9514 38.1305C32.9514 38.2496 32.8743 38.305 32.8285 38.3273C32.7825 38.3497 32.6914 38.3762 32.5975 38.3027L31.5918 37.5136C31.3393 37.316 31.0367 37.2171 30.7341 37.2171C30.4313 37.2171 30.1284 37.3161 29.8755 37.5141L28.8701 38.3029C28.7767 38.3763 28.6856 38.3497 28.6396 38.3274C28.5936 38.305 28.5164 38.2497 28.5164 38.1306V31.3213L32.9514 30.6788V38.1305ZM38.6336 33.2995C38.4775 33.5085 38.2492 33.6442 37.9906 33.6815L34.1231 34.2422V32.2669L37.71 31.7467C38.2434 31.6695 38.7403 32.0408 38.8175 32.5745C38.855 32.833 38.7898 33.0905 38.6336 33.2995Z" fill="#A70A12"/>
</g>
<defs>
<clipPath id="clip0_2343_139">
<rect width="40" height="40" fill="white"/>
</clipPath>
</defs>
</svg>
