<svg width="40" height="40" viewBox="0 0 40 40" fill="none" xmlns="http://www.w3.org/2000/svg">
<path d="M36.8611 11.7421L33.2062 8.08727V3.65174C33.2062 1.63821 31.568 0 29.5545 0H5.49549C3.48195 0 1.84375 1.63821 1.84375 3.65174V8.31837C1.84375 8.64198 2.10603 8.90434 2.42972 8.90434C2.7534 8.90434 3.01568 8.64198 3.01568 8.31837V3.65174C3.01568 2.28441 4.12808 1.17193 5.49549 1.17193H29.5544C30.9218 1.17193 32.0342 2.28441 32.0342 3.65174V6.91534L30.6165 5.49769C29.7821 4.66327 28.6727 4.20372 27.4927 4.20372H10.4442C8.43079 4.20372 6.79266 5.84185 6.79266 7.85531V34.6243H5.49549C4.12808 34.6243 3.01568 33.5119 3.01568 32.1445V10.6622C3.01568 10.3386 2.7534 10.0763 2.42972 10.0763C2.10603 10.0763 1.84375 10.3386 1.84375 10.6622V32.1445C1.84375 34.1581 3.48195 35.7963 5.49549 35.7963H6.79266V36.3484C6.79266 38.3619 8.43079 40 10.4442 40H34.5034C36.5168 40 38.155 38.3619 38.155 36.3484V14.866C38.1551 13.6859 37.6955 12.5765 36.8611 11.7421ZM36.0325 12.5708C36.1248 12.6632 36.2101 12.7607 36.2897 12.8617C35.9892 12.7526 35.6652 12.6929 35.3273 12.6929H32.1455C30.7782 12.6929 29.6659 11.5805 29.6659 10.2132V7.03144C29.6659 6.69369 29.6062 6.36969 29.4971 6.06912C29.5981 6.14874 29.6955 6.23405 29.7878 6.3264L36.0325 12.5708ZM36.9831 36.3484C36.9831 37.7157 35.8708 38.8281 34.5035 38.8281H10.4442C9.07692 38.8281 7.9646 37.7157 7.9646 36.3484V7.85538C7.9646 6.48813 9.07692 5.37573 10.4442 5.37573H26.8383C27.7513 5.37573 28.494 6.1185 28.494 7.03144V10.2132C28.494 12.2267 30.1321 13.8648 32.1455 13.8648H35.3273C36.2404 13.8648 36.983 14.6076 36.983 15.5205L36.9831 36.3484Z" fill="#A70A12"/>
<path d="M11.334 17.8077H33.6143C33.938 17.8077 34.2003 17.5453 34.2003 17.2217C34.2003 16.8981 33.938 16.6357 33.6143 16.6357H11.334C11.0103 16.6357 10.748 16.8981 10.748 17.2217C10.748 17.5453 11.0103 17.8077 11.334 17.8077Z" fill="#A70A12"/>
<path d="M33.614 20.3589H28.209C27.8853 20.3589 27.623 20.6212 27.623 20.9449C27.623 21.2685 27.8853 21.5308 28.209 21.5308H33.614C33.9377 21.5308 34.1999 21.2685 34.1999 20.9449C34.1999 20.6212 33.9377 20.3589 33.614 20.3589Z" fill="#A70A12"/>
<path d="M11.334 20.3589C11.0103 20.3589 10.748 20.6212 10.748 20.9449C10.748 21.2685 11.0103 21.5308 11.334 21.5308H25.873C26.1967 21.5308 26.459 21.2685 26.459 20.9449C26.459 20.6212 26.1967 20.3589 25.873 20.3589H11.334Z" fill="#A70A12"/>
<path d="M11.334 25.2537H33.6143C33.938 25.2537 34.2003 24.9914 34.2003 24.6678C34.2003 24.3441 33.938 24.0818 33.6143 24.0818H11.334C11.0103 24.0818 10.748 24.3441 10.748 24.6678C10.748 24.9914 11.0103 25.2537 11.334 25.2537Z" fill="#A70A12"/>
<path d="M23.2696 28.3909C23.2696 28.0673 23.0073 27.8049 22.6836 27.8049H11.334C11.0103 27.8049 10.748 28.0673 10.748 28.3909C10.748 28.7145 11.0103 28.9769 11.334 28.9769H22.6837C23.0073 28.9769 23.2696 28.7145 23.2696 28.3909Z" fill="#A70A12"/>
<path d="M33.6337 29.3279C33.9616 28.1841 33.4851 26.9186 32.4098 26.2986C32.0068 26.0658 31.5487 25.9426 31.0853 25.9426C30.358 25.9426 29.6687 26.2433 29.1741 26.7545C28.3477 25.8976 27.0128 25.6771 25.9371 26.2987C25.1189 26.7714 24.6107 27.6523 24.6107 28.5975C24.6107 28.8454 24.6458 29.0917 24.714 29.3287C23.5595 29.6157 22.7012 30.6615 22.7012 31.9039C22.7012 32.6132 22.9773 33.2793 23.4778 33.7789C23.8238 34.1256 24.2491 34.3646 24.7131 34.4791C24.5804 34.9376 24.5746 35.4251 24.7013 35.8982C24.8848 36.5825 25.3236 37.1547 25.9374 37.5094C26.3409 37.7422 26.7988 37.8652 27.2616 37.8652C27.9889 37.8652 28.6779 37.5645 29.1725 37.0532C29.6335 37.533 30.2628 37.8257 30.946 37.8613C31.271 37.8775 31.5448 37.6298 31.5618 37.3065C31.5786 36.9834 31.3302 36.7077 31.007 36.6909C30.5033 36.6646 30.0522 36.3884 29.8003 35.9517L29.6808 35.7447C29.576 35.5633 29.3827 35.4517 29.1733 35.4517C28.9639 35.4517 28.7705 35.5634 28.6658 35.7447L28.5464 35.9518C28.2825 36.4091 27.7901 36.6932 27.2616 36.6932C27.0041 36.6932 26.7488 36.6243 26.5235 36.4944C26.1809 36.2964 25.9359 35.9769 25.8334 35.5947C25.731 35.2127 25.7836 34.8137 25.982 34.4704L26.1015 34.2626C26.2058 34.0812 26.2056 33.8581 26.1008 33.677C25.996 33.4959 25.8028 33.3844 25.5936 33.3844H25.3537C24.958 33.3844 24.5864 33.2305 24.3066 32.9501C24.0272 32.6712 23.8732 32.2996 23.8732 31.9038C23.8732 31.0869 24.5374 30.4225 25.3537 30.4225H25.5936C25.803 30.4225 25.9963 30.3107 26.101 30.1295C26.2057 29.9482 26.2057 29.7248 26.101 29.5435L25.9813 29.3363C25.8514 29.1114 25.7826 28.8559 25.7826 28.5974C25.7826 28.0694 26.0665 27.5773 26.5234 27.3132C27.2301 26.9049 28.1377 27.1479 28.5464 27.8551L28.6658 28.0622C28.7705 28.2435 28.9639 28.3552 29.1733 28.3552H29.1734C29.3827 28.3552 29.5761 28.2436 29.6808 28.0623L29.8003 27.8554C30.0643 27.3984 30.5567 27.1146 31.0852 27.1146C31.3431 27.1146 31.5982 27.1832 31.8237 27.3136C32.5309 27.7213 32.774 28.6289 32.366 29.3365L32.2465 29.5436C32.1418 29.7248 32.1418 29.9483 32.2465 30.1296C32.3512 30.3109 32.5445 30.4225 32.7539 30.4225H32.9931C33.3887 30.4225 33.7607 30.5766 34.0405 30.8564C34.3203 31.1362 34.4744 31.5081 34.4744 31.9039C34.4744 32.7202 33.8098 33.3844 32.9931 33.3844H32.7539C32.5447 33.3844 32.3515 33.4959 32.2467 33.677C32.1419 33.858 32.1417 34.0812 32.246 34.2626L32.3659 34.4711C32.4961 34.6966 32.5649 34.9519 32.5649 35.2095C32.5649 35.443 32.5084 35.6765 32.4019 35.8847C32.2544 36.1727 32.3683 36.5258 32.6563 36.6733C32.9445 36.8208 33.2975 36.7069 33.4451 36.4188C33.6359 36.0461 33.7368 35.6279 33.7368 35.2095C33.7368 34.9617 33.7016 34.7155 33.6332 34.4783C34.7879 34.1912 35.6463 33.1459 35.6463 31.9039C35.6463 31.1952 35.3704 30.5289 34.8693 30.0277C34.5229 29.6812 34.0975 29.4424 33.6337 29.3279Z" fill="#A70A12"/>
<path d="M31.3068 30.5833H27.041C26.7174 30.5833 26.4551 30.8456 26.4551 31.1692C26.4551 31.4928 26.7174 31.7552 27.041 31.7552H31.3068C31.6305 31.7552 31.8928 31.4928 31.8928 31.1692C31.8928 30.8456 31.6305 30.5833 31.3068 30.5833Z" fill="#A70A12"/>
<path d="M28.0371 32.74C27.7135 32.74 27.4512 33.0023 27.4512 33.326C27.4512 33.6496 27.7135 33.9119 28.0371 33.9119H30.3114C30.6351 33.9119 30.8974 33.6496 30.8974 33.326C30.8974 33.0023 30.6351 32.74 30.3114 32.74H28.0371Z" fill="#A70A12"/>
</svg>
