<svg width="40" height="40" viewBox="0 0 40 40" fill="none" xmlns="http://www.w3.org/2000/svg">
<g clip-path="url(#clip0_2343_171)">
<path d="M18.3024 3.71803C18.3024 3.39443 18.04 3.13208 17.7164 3.13208C17.1624 3.13208 16.6202 3.28599 16.1477 3.57771L1.50573 12.6448C1.0676 12.9157 0.761426 13.3411 0.643612 13.8427C0.525876 14.3438 0.61033 14.8608 0.881193 15.2983L1.98863 17.088C2.54848 17.9906 3.73889 18.2704 4.64257 17.7117L4.80843 17.609V29.6973C4.80843 30.0209 5.07078 30.2832 5.39438 30.2832C5.71798 30.2832 5.98033 30.0209 5.98033 29.6973V16.8834L17.1305 9.97874V17.8346H12.1385C10.7668 17.8346 9.65084 18.9506 9.65084 20.3223V27.9702C9.65084 29.3419 10.7668 30.4578 12.1385 30.4578H17.1305V34.4277H5.98033V32.041C5.98033 31.7174 5.71798 31.455 5.39438 31.455C5.07078 31.455 4.80843 31.7174 4.80843 32.041V35.0137C4.80843 35.3373 5.07078 35.5996 5.39438 35.5996H17.7164C18.04 35.5996 18.3024 35.3373 18.3024 35.0137V3.71803ZM4.02608 16.7152C3.67154 16.9344 3.20427 16.8245 2.98482 16.4709L1.87769 14.6816C1.65675 14.3407 1.77214 13.8479 2.12238 13.6414L16.7641 4.57444C16.88 4.50288 17.0029 4.44491 17.1305 4.40132V8.60036L4.02608 16.7152ZM17.1305 22.7554H13.1716V21.3555H17.1305V22.7554ZM17.1303 29.286H12.1385C11.413 29.286 10.8227 28.6957 10.8227 27.9702V20.3223C10.8227 19.5968 11.413 19.0065 12.1385 19.0065H17.1303V20.1835H12.5856C12.2621 20.1835 11.9997 20.4458 11.9997 20.7694V23.3406V23.3413C11.9997 23.3413 11.9997 23.3418 11.9997 23.3421V27.5231C11.9997 27.8467 12.2621 28.1091 12.5856 28.1091H17.1303V29.286ZM13.1716 26.9372V23.9273H17.1305V26.9372H13.1716Z" fill="#A70A12"/>
<path d="M37.7321 23.2556C36.4983 22.5589 35.0015 22.7462 33.9783 23.6128V14.477C34.451 14.8103 35.037 14.9579 35.6003 14.8172C36.1014 14.6993 36.5267 14.3934 36.7984 13.9555L37.9056 12.1669C38.4647 11.2627 38.1847 10.0722 37.2814 9.51286L33.2415 7.01127C32.9666 6.84095 32.6053 6.9258 32.4349 7.20096C32.2645 7.47604 32.3495 7.83722 32.6246 8.00761L36.6645 10.5093C37.0187 10.7286 37.1284 11.1957 36.9091 11.5503L35.8024 13.3382C35.5951 13.6879 35.1025 13.805 34.7611 13.5832L21.6563 5.46906V1.26955C21.7836 1.31322 21.9063 1.37111 22.0221 1.44268L30.6714 6.79822C30.9465 6.96861 31.3078 6.88369 31.478 6.60853C31.6484 6.33345 31.5634 5.97227 31.2883 5.80188L22.6386 0.4461C22.1665 0.154299 21.6242 0 21.0703 0C20.7466 0 20.4844 0.262347 20.4844 0.585945V31.8817C20.4844 32.2053 20.7466 32.4676 21.0703 32.4676H22.7288C22.8079 32.609 22.8983 32.7462 23.0005 32.8781L27.5321 38.7235C28.1519 39.5228 29.1256 40 30.1368 40C30.2163 40 30.2969 39.9971 30.3765 39.9913C31.4798 39.911 32.4632 39.288 33.0071 38.3247L38.9813 27.7465C39.875 26.164 39.3146 24.1494 37.7321 23.2556ZM25.6147 19.6235H21.6563V18.2236H25.6147V19.6235ZM25.6147 20.7954V23.8053H21.6563V20.7954H25.6147ZM21.6563 24.9773H26.2006C26.5243 24.9773 26.7866 24.7149 26.7866 24.3913V20.2156C26.7866 20.2136 26.7869 20.2116 26.7869 20.2096C26.7869 20.2075 26.7866 20.2056 26.7866 20.2036V17.6377C26.7866 17.3141 26.5243 17.0518 26.2006 17.0518H21.6563V15.8749H26.6477C27.3732 15.8749 27.9635 16.4651 27.9635 17.1907V24.8385C27.9635 25.564 27.3732 26.1543 26.6477 26.1543H21.6563V24.9773ZM21.6563 31.2957V27.3261H26.6477C28.0195 27.3261 29.1354 26.2101 29.1354 24.8384V17.1906C29.1354 15.8189 28.0195 14.7029 26.6477 14.7029H21.6563V6.84736L32.8064 13.7514V25.2747L29.7049 30.7667L28.2105 28.8391C27.0969 27.4028 25.0224 27.1401 23.586 28.2537C22.6263 28.9977 22.1915 30.1706 22.3402 31.2957H21.6563ZM37.9609 27.1702L31.9868 37.7485C31.6362 38.3693 31.0024 38.7708 30.2916 38.8225C29.5896 38.8731 28.8893 38.5612 28.4583 38.0054L23.9268 32.1601C23.2091 31.2344 23.3783 29.8975 24.304 29.1799C24.6904 28.8804 25.1484 28.7354 25.6032 28.7354C26.2379 28.7354 26.8663 29.018 27.2843 29.5572L29.3186 32.1812C29.4389 32.3363 29.629 32.421 29.8243 32.4066C30.02 32.3924 30.1955 32.2812 30.2919 32.1104L34.2617 25.0812C34.8377 24.0613 36.1361 23.7003 37.1559 24.2761C38.1757 24.8521 38.5369 26.1504 37.9609 27.1702Z" fill="#A70A12"/>
</g>
<defs>
<clipPath id="clip0_2343_171">
<rect width="40" height="40" fill="white"/>
</clipPath>
</defs>
</svg>
