<svg width="40" height="40" viewBox="0 0 40 40" fill="none" xmlns="http://www.w3.org/2000/svg">
<path d="M37.514 11.8856C37.514 10.5813 37.0061 9.35516 36.0838 8.43289L29.0813 1.43031C28.159 0.508047 26.9328 0.00015625 25.6285 0.00015625L6.51055 0C4.29156 0 2.48633 1.80523 2.48633 4.02422V5.31875C2.48633 5.64234 2.74867 5.90469 3.07227 5.90469C3.39586 5.90469 3.6582 5.64234 3.6582 5.31875V4.02422C3.6582 2.45148 4.93773 1.17188 6.51055 1.17188L24.9024 1.17203C25.9617 1.17609 26.8223 2.0393 26.8223 3.1V6.66797C26.8223 8.88648 28.6275 10.6914 30.8465 10.6914H34.4145C35.4772 10.6914 36.3418 11.5563 36.3418 12.6195V35.9758C36.3418 37.5485 35.0626 38.8281 33.4902 38.8281H6.51055C4.93773 38.8281 3.6582 37.5486 3.6582 35.9758V7.6625C3.6582 7.33891 3.39586 7.07656 3.07227 7.07656C2.74867 7.07656 2.48633 7.33891 2.48633 7.6625V35.9758C2.48633 38.1948 4.29156 40 6.51055 40H33.4902C35.7088 40 37.5137 38.1948 37.5137 35.9758L37.514 11.8856ZM30.8465 9.51953C29.2737 9.51953 27.9941 8.24031 27.9941 6.66797V3.1C27.9941 2.64062 27.893 2.20477 27.713 1.81219C27.9044 1.94266 28.0853 2.09156 28.2527 2.25898L35.2553 9.26156C35.4225 9.42875 35.5713 9.60945 35.7016 9.80062C35.3093 9.6207 34.8736 9.51953 34.4145 9.51953H30.8465Z" fill="#A70A12"/>
<path d="M11.8711 19.865C11.8711 20.1886 12.1334 20.4509 12.457 20.4509H31.1396C31.4632 20.4509 31.7255 20.1886 31.7255 19.865C31.7255 19.5414 31.4632 19.2791 31.1396 19.2791H12.457C12.1334 19.2791 11.8711 19.5414 11.8711 19.865Z" fill="#A70A12"/>
<path d="M8.86133 24.1736H31.1405C31.4641 24.1736 31.7264 23.9112 31.7264 23.5876C31.7264 23.2641 31.4641 23.0017 31.1405 23.0017H8.86133C8.53773 23.0017 8.27539 23.2641 8.27539 23.5876C8.27539 23.9112 8.53773 24.1736 8.86133 24.1736Z" fill="#A70A12"/>
<path d="M24.4152 27.311C24.4152 26.9874 24.1529 26.7251 23.8293 26.7251H8.86133C8.53773 26.7251 8.27539 26.9874 8.27539 27.311C8.27539 27.6346 8.53773 27.897 8.86133 27.897H23.8293C24.1529 27.897 24.4152 27.6346 24.4152 27.311Z" fill="#A70A12"/>
<path d="M31.1395 26.7251H26.1699C25.8463 26.7251 25.584 26.9874 25.584 27.311C25.584 27.6346 25.8463 27.897 26.1699 27.897H31.1395C31.463 27.897 31.7254 27.6346 31.7254 27.311C31.7254 26.9874 31.463 26.7251 31.1395 26.7251Z" fill="#A70A12"/>
<path d="M8.86133 30.4478C8.53773 30.4478 8.27539 30.7101 8.27539 31.0337C8.27539 31.3573 8.53773 31.6196 8.86133 31.6196H20.2105C20.5341 31.6196 20.7964 31.3573 20.7964 31.0337C20.7964 30.7101 20.5341 30.4478 20.2105 30.4478H8.86133Z" fill="#A70A12"/>
<path d="M13.4888 3.90411C13.4867 3.89872 13.4845 3.89333 13.4824 3.88794C13.3744 3.62567 13.1215 3.4563 12.8379 3.4563C12.8376 3.4563 12.8373 3.4563 12.837 3.4563C12.553 3.45669 12.3002 3.62677 12.1927 3.88958C12.191 3.89395 12.1893 3.89825 12.1876 3.90263L10.3491 8.72989C10.2339 9.03231 10.3856 9.37083 10.6881 9.48599C10.9906 9.60138 11.329 9.44935 11.4441 9.147L11.7583 8.32216H13.9034L14.214 9.14536C14.3026 9.37997 14.5255 9.52458 14.7624 9.52458C14.831 9.52458 14.901 9.51239 14.9691 9.48669C15.2718 9.37247 15.4247 9.03435 15.3104 8.73161L13.4888 3.90411ZM12.2047 7.15028L12.8359 5.49317L13.4613 7.15028H12.2047Z" fill="#A70A12"/>
<path d="M16.7598 10.1748C16.4362 10.1748 16.1738 10.4371 16.1738 10.7607V15.6529C16.1738 15.9382 16.3795 16.1821 16.6608 16.2304C16.7032 16.2376 16.7359 16.2432 17.2723 16.2432C17.5341 16.2432 17.9159 16.2419 18.4775 16.2388C18.8011 16.237 19.062 15.9732 19.0602 15.6496C19.0584 15.326 18.7964 15.066 18.4709 15.0669C18.0831 15.0691 17.667 15.0707 17.3457 15.071V10.7607C17.3457 10.4371 17.0834 10.1748 16.7598 10.1748Z" fill="#A70A12"/>
<path d="M19.4902 10.7607V15.6528C19.4902 15.9382 19.6959 16.1821 19.9773 16.2304C20.0197 16.2376 20.0524 16.2432 20.5885 16.2432C20.8503 16.2432 21.2323 16.2419 21.794 16.2388C22.1176 16.237 22.3784 15.9732 22.3766 15.6496C22.3748 15.3271 22.1129 15.0669 21.7908 15.0669C21.7897 15.0669 21.7885 15.0669 21.7874 15.0669C21.3995 15.0691 20.9834 15.0707 20.6621 15.071V10.7607C20.6621 10.4371 20.3998 10.1748 20.0762 10.1748C19.7526 10.1748 19.4902 10.4371 19.4902 10.7607Z" fill="#A70A12"/>
<path d="M7.45312 3.4563C7.12953 3.4563 6.86719 3.71864 6.86719 4.04224V8.93435C6.86719 9.21981 7.07289 9.46372 7.35422 9.51192C7.39664 9.51919 7.42937 9.52481 7.96547 9.52481C8.22727 9.52481 8.60922 9.52349 9.17094 9.52036C9.49453 9.51856 9.75539 9.25474 9.75359 8.93114C9.7518 8.60864 9.48984 8.34849 9.16773 8.34849C9.16664 8.34849 9.16547 8.34849 9.16437 8.34849C8.77648 8.35067 8.36031 8.35224 8.03906 8.35255V4.04224C8.03906 3.71864 7.7768 3.4563 7.45312 3.4563Z" fill="#A70A12"/>
<path d="M15.1855 15.657V10.7607C15.1855 10.4371 14.9232 10.1748 14.5996 10.1748C14.276 10.1748 14.0137 10.4371 14.0137 10.7607V15.657C14.0137 15.9806 14.276 16.2429 14.5996 16.2429C14.9232 16.2429 15.1855 15.9806 15.1855 15.657Z" fill="#A70A12"/>
<path d="M17.8391 8.3527C17.3452 8.3527 16.8696 8.15332 16.567 7.81934C16.3497 7.57965 15.9792 7.56129 15.7393 7.77864C15.4996 7.9959 15.4814 8.36645 15.6986 8.60629C16.2197 9.18121 17.0199 9.5245 17.839 9.5245C18.8582 9.5245 19.7139 8.87512 19.8736 7.98035C19.9937 7.30809 19.6871 6.42934 18.467 5.97926C17.8612 5.75582 17.2974 5.51231 17.1292 5.43864C16.9827 5.32317 16.9875 5.16114 16.9972 5.09379C17.0103 5.00246 17.0763 4.77926 17.4049 4.6802C18.1089 4.46801 18.7586 4.98223 18.7764 4.99653C19.024 5.20207 19.3917 5.16934 19.5991 4.92262C19.8073 4.67489 19.7753 4.30528 19.5276 4.09707C19.4819 4.05864 18.3912 3.1591 17.0669 3.55817C16.4008 3.75879 15.9296 4.28348 15.8372 4.92731C15.7507 5.53074 16.0121 6.11121 16.5199 6.44223C16.5457 6.4591 16.5729 6.47387 16.6011 6.48645C16.6294 6.4991 17.3029 6.79895 18.0615 7.07871C18.2824 7.16012 18.7886 7.39098 18.7202 7.77434C18.6693 8.05871 18.326 8.3527 17.8391 8.3527Z" fill="#A70A12"/>
<path d="M6.87844 10.8745L7.83242 15.6972C7.83797 15.7252 7.84547 15.7527 7.85508 15.7796C7.95422 16.0587 8.22016 16.2457 8.51602 16.2429C8.81227 16.2409 9.07539 16.0511 9.17071 15.7707C9.17243 15.7656 9.17407 15.7605 9.17571 15.7554L10.1056 12.7512L11.0313 15.756C11.0337 15.764 11.0363 15.7719 11.0391 15.7797C11.1378 16.0573 11.4011 16.2429 11.6954 16.2429H11.7002C11.9964 16.2409 12.2595 16.0511 12.3548 15.7707C12.3631 15.7464 12.3697 15.7216 12.3747 15.6965L13.3324 10.8841C13.3956 10.5668 13.1895 10.2583 12.8721 10.1951C12.5548 10.132 12.2463 10.338 12.1831 10.6554L11.5955 13.6074L10.6655 10.5883C10.5802 10.3112 10.3052 10.1383 10.0183 10.1814C9.77164 10.2186 9.58032 10.406 9.53164 10.6423L8.61375 13.6078L8.02805 10.6471C7.96524 10.3297 7.65696 10.1234 7.33953 10.186C7.02211 10.2488 6.81563 10.557 6.87844 10.8745Z" fill="#A70A12"/>
<path d="M21.9462 9.52442C22.2698 9.52442 22.5321 9.26208 22.5321 8.93849V4.62817H23.3036C23.6272 4.62817 23.8895 4.36583 23.8895 4.04224C23.8895 3.71864 23.6272 3.4563 23.3036 3.4563H20.5996C20.276 3.4563 20.0137 3.71864 20.0137 4.04224C20.0137 4.36583 20.276 4.62817 20.5996 4.62817H21.3602V8.93849C21.3602 9.26208 21.6226 9.52442 21.9462 9.52442Z" fill="#A70A12"/>
<path d="M30.2864 31.4498C29.4709 31.4498 28.8073 32.1133 28.8073 32.9288V33.5314C28.8073 33.7008 28.6695 33.8387 28.5001 33.8387H28.4205V32.4214C28.4205 30.9938 27.259 29.8323 25.8313 29.8323C24.4037 29.8323 23.2422 30.9938 23.2422 32.4214C23.2422 33.8491 24.4037 35.0106 25.8313 35.0106H27.2486V36.4833C27.2486 36.8069 27.5109 37.0692 27.8345 37.0692C28.1581 37.0692 28.4205 36.8069 28.4205 36.4833V35.0106H28.5001C29.3156 35.0106 29.9791 34.347 29.9791 33.5314V32.9288C29.9791 32.7595 30.117 32.6217 30.2864 32.6217C30.4558 32.6217 30.5936 32.7595 30.5936 32.9288V34.3146C30.5936 35.3889 31.4677 36.2629 32.5419 36.2629H33.0345C33.3581 36.2629 33.6205 36.0006 33.6205 35.677C33.6205 35.3534 33.3581 35.091 33.0345 35.091H32.5419C32.1138 35.091 31.7655 34.7427 31.7655 34.3146V32.9288C31.7655 32.1132 31.102 31.4498 30.2864 31.4498ZM24.4141 32.4214C24.4141 31.6399 25.0499 31.0042 25.8314 31.0042C26.6129 31.0042 27.2487 31.6399 27.2487 32.4214V33.8387H25.8314C25.0499 33.8386 24.4141 33.2029 24.4141 32.4214Z" fill="#A70A12"/>
</svg>
