<svg width="40" height="40" viewBox="0 0 40 40" fill="none" xmlns="http://www.w3.org/2000/svg">
<g clip-path="url(#clip0_2254_3338)">
<path d="M39.3876 4.29968C38.8994 3.70029 38.1666 3.37012 37.3241 3.37012C36.8696 3.37012 36.388 3.46528 35.8928 3.65286L2.02787 16.4838C0.227261 17.1662 -0.0150916 18.1933 0.000690242 18.7448C0.016394 19.2936 0.314139 20.2979 2.12655 20.8776L9.30846 23.5095L13.0935 32.1736C13.474 33.3719 14.269 34.2126 15.2838 34.4853C15.5177 34.5481 15.7565 34.5791 15.9971 34.5791C16.8212 34.5791 17.6649 34.2162 18.3936 33.5318L21.5295 30.5856L29.181 35.852C29.8701 36.3613 30.6199 36.6302 31.351 36.6301C32.835 36.63 34.0185 35.5437 34.3663 33.8626L39.9048 7.07541C40.1324 5.97451 39.9487 4.98877 39.3876 4.29968ZM11.6886 23.1028L21.4617 17.8619L14.6505 24.1097C14.408 24.3321 14.2729 24.6455 14.2725 24.9721C14.2721 24.9841 14.2706 24.9958 14.2705 25.0079L14.247 28.959L11.6886 23.1028ZM16.7889 31.8234C16.7166 31.8913 16.6442 31.951 16.5726 32.003L16.6013 27.1933L19.5538 29.2256L16.7889 31.8234ZM37.6095 6.60078L32.071 33.3879C32.0152 33.658 31.8331 34.2863 31.3508 34.2863C31.1256 34.2863 30.8462 34.1703 30.5642 33.9597C30.5521 33.9506 30.5398 33.9419 30.5274 33.9334L22.092 28.1273C22.0908 28.1265 22.0896 28.1257 22.0885 28.1249L17.3193 24.8422L29.9178 13.2859C30.3531 12.8866 30.4232 12.2257 30.0813 11.7439C29.7394 11.2622 29.0923 11.1103 28.5718 11.3895L10.0911 21.3L2.909 18.6681C2.90377 18.6662 2.89853 18.6643 2.89322 18.6624L36.7233 5.84466C37.0084 5.73661 37.2074 5.71395 37.3241 5.71395C37.382 5.71395 37.5219 5.72036 37.5701 5.77974C37.6321 5.85576 37.7101 6.11428 37.6095 6.60078Z" fill="#A70A12"/>
</g>
<defs>
<clipPath id="clip0_2254_3338">
<rect width="40" height="40" fill="white"/>
</clipPath>
</defs>
</svg>
