<svg width="24" height="24" viewBox="0 0 24 24" fill="none" xmlns="http://www.w3.org/2000/svg">
<path d="M18.75 11.9958C18.75 11.5816 18.4142 11.2458 18 11.2458H6C5.5858 11.2458 5.25 11.5816 5.25 11.9958C5.25 12.4101 5.5858 12.7458 6 12.7458H18C18.4142 12.7458 18.75 12.4101 18.75 11.9958Z" fill="#A70A12"/>
<path d="M11.4697 5.46967C11.1768 5.76256 11.1768 6.23744 11.4697 6.53033L16.9393 12L11.4697 17.4697C11.1768 17.7626 11.1768 18.2374 11.4697 18.5303C11.7626 18.8232 12.2374 18.8232 12.5303 18.5303L18.5303 12.5303C18.8232 12.2374 18.8232 11.7626 18.5303 11.4697L12.5303 5.46967C12.2374 5.17678 11.7626 5.17678 11.4697 5.46967Z" fill="#A70A12"/>
</svg>
