<svg width="25" height="26" viewBox="0 0 25 26" fill="none" xmlns="http://www.w3.org/2000/svg">
<path d="M23.5371 1.28231L24.3452 2.09035C24.7915 2.53668 24.7916 3.26023 24.3453 3.70655L15.0518 13L24.3453 22.2935C24.7915 22.7397 24.7915 23.4633 24.3452 23.9097L23.5371 24.7177C23.0908 25.164 22.3671 25.164 21.9209 24.7178L12.6275 15.4244L3.33404 24.7178C2.88773 25.1641 2.16408 25.1641 1.71775 24.7178L0.909711 23.9097C0.463385 23.4634 0.463361 22.7397 0.909675 22.2934L10.2031 13L0.909651 3.70658C0.463336 3.26027 0.463373 2.53663 0.9097 2.0903L1.71774 1.28226C2.16407 0.835933 2.88771 0.835897 3.33402 1.28221L12.6275 10.5756L21.9209 1.28219C22.3672 0.835859 23.0908 0.835981 23.5371 1.28231Z" fill="#878C91"/>
</svg>
