<svg width="39" height="41" viewBox="0 0 39 41" fill="none" xmlns="http://www.w3.org/2000/svg">
<path d="M4.43359 4.66671V39.3333C4.43359 39.7016 4.71842 40.0001 5.0698 40.0001H29.2429C29.594 40.0001 29.8788 39.7016 29.8788 39.3333V11.3336C29.8788 11.3187 29.872 11.3061 29.8707 11.2915C29.8675 11.2331 29.8565 11.1754 29.8382 11.1202C29.8311 11.0988 29.8261 11.0782 29.8172 11.0573C29.7863 10.9848 29.7433 10.9186 29.6899 10.8621L23.3286 4.19549C23.2747 4.13919 23.2113 4.09416 23.1416 4.06203C23.1224 4.05352 23.103 4.04638 23.0831 4.04006C23.0299 4.02084 22.9746 4.00931 22.9183 4.00546C22.9076 4.00738 22.895 4.00024 22.8816 4.00024H5.0698C4.71842 4.00024 4.43359 4.29846 4.43359 4.66671ZM27.7071 10.6668H23.5176V6.27617L27.7071 10.6668ZM5.70574 5.33345H22.2454V11.3336C22.2454 11.7015 22.5302 12 22.8814 12H28.6067V38.6669H5.70574V5.33345Z" fill="#A70A12"/>
<path d="M31.1509 34.6666V35.9998H33.0593C33.4106 35.9998 33.6955 35.7016 33.6955 35.3334V0.66674C33.6955 0.298495 33.4106 0 33.0593 0H8.8862C8.53482 0 8.25 0.298495 8.25 0.66674V2.66669H9.5224V1.33321H32.4231V34.6666H31.1509Z" fill="#A70A12"/>
<path d="M9.52344 13.3335H24.7905V14.6667H9.52344V13.3335Z" fill="#A70A12"/>
<path d="M9.52344 9.33325H14.6125V10.6667H9.52344V9.33325Z" fill="#A70A12"/>
<path d="M9.52344 17.3333H19.7016V18.6667H9.52344V17.3333Z" fill="#A70A12"/>
<path d="M20.9727 17.3333H24.7893V18.6667H20.9727V17.3333Z" fill="#A70A12"/>
<path d="M9.52344 21.3333H24.7905V22.6667H9.52344V21.3333Z" fill="#A70A12"/>
<path d="M9.52344 29.3333H24.7905V30.6667H9.52344V29.3333Z" fill="#A70A12"/>
<path d="M15.25 25.3333H24.792V26.6665H15.25V25.3333Z" fill="#A70A12"/>
<path d="M9.52344 25.3333H13.9763V26.6665H9.52344V25.3333Z" fill="#A70A12"/>
<path d="M9.52344 33.3334H12.068V34.6666H9.52344V33.3334Z" fill="#A70A12"/>
<path d="M13.3398 33.3334H24.7902V34.6666H13.3398V33.3334Z" fill="#A70A12"/>
</svg>
