<svg width="40" height="40" viewBox="0 0 40 40" fill="none" xmlns="http://www.w3.org/2000/svg">
<g clip-path="url(#clip0_2254_3340)">
<path d="M34.142 5.85781C30.3645 2.08031 25.342 0 19.9998 0C19.9995 0 20 0 19.9997 0C14.658 0 9.63516 2.08055 5.85781 5.85781C2.08039 9.63531 0 14.6577 0 20C0.00015625 23.4007 0.865625 26.7431 2.50719 29.6994L0.0432812 38.5125C-0.070625 38.9201 0.0440625 39.3574 0.343281 39.6566C0.6425 39.9559 1.07969 40.0705 1.4875 39.9566L10.3009 37.4927C13.2568 39.1345 16.5991 39.9999 19.9999 40C25.3422 40 30.3646 37.9196 34.1422 34.1421C37.9198 30.3646 40 25.3421 40 19.9999C39.9998 14.6577 37.9194 9.63531 34.142 5.85781ZM19.9998 37.6562C16.8478 37.6562 13.7538 36.8146 11.0521 35.2226C10.8702 35.1153 10.6645 35.0603 10.4572 35.0603C10.3514 35.0603 10.2453 35.0746 10.1416 35.1036L2.86086 37.1391L4.89633 29.8585C4.98219 29.5515 4.93922 29.2228 4.77742 28.9481C3.18539 26.246 2.34391 23.1518 2.34375 19.9999C2.34375 15.2837 4.18031 10.8499 7.51516 7.51508C10.85 4.18023 15.2838 2.34375 19.9998 2.34375C29.7353 2.34375 37.6559 10.2643 37.6562 19.9999C37.6562 29.7356 29.7356 37.6562 19.9998 37.6562Z" fill="#A70A12"/>
<path d="M28.6327 21.4986C27.9164 20.7822 26.9612 20.3876 25.9431 20.3876C24.9249 20.3876 23.9698 20.7822 23.2536 21.4985L22.7103 22.0417C22.5763 22.1756 22.3963 22.2494 22.2034 22.2494C22.0103 22.2494 21.8302 22.1756 21.696 22.0414L17.9559 18.3014C17.822 18.1675 17.7482 17.9873 17.7481 17.7943C17.7481 17.6012 17.8218 17.4212 17.9556 17.2874L18.4991 16.744C19.9821 15.261 19.9821 12.8479 18.4991 11.3648L17.4124 10.2777C16.6959 9.56153 15.7407 9.16724 14.7227 9.16724C13.7046 9.16724 12.7495 9.56161 12.0331 10.278L11.2227 11.0885C9.50954 12.8017 8.88766 15.3529 9.47149 18.2725C10.0209 21.0197 11.5915 23.8008 13.8939 26.1034C16.7954 29.0046 20.4907 30.7368 23.7791 30.737H23.7797C25.8516 30.737 27.6255 30.0586 28.909 28.775L29.7194 27.9647C31.2024 26.4816 31.2024 24.0683 29.7194 22.5851L28.6327 21.4986ZM28.0622 26.3074L27.2518 27.1178C26.4173 27.9522 25.2168 28.3933 23.7798 28.3933H23.7794C21.0988 28.3931 18.0228 26.9175 15.5513 24.4462C13.5724 22.4672 12.2295 20.1114 11.7699 17.8129C11.3446 15.6865 11.7389 13.8871 12.8802 12.7458L13.6904 11.9354C13.9641 11.6618 14.3306 11.5111 14.7227 11.5111C15.115 11.5111 15.4817 11.6618 15.7552 11.9352L16.8419 13.0221C17.4111 13.5914 17.4111 14.5175 16.842 15.0868L16.2985 15.6301C15.7219 16.2067 15.4044 16.9754 15.4045 17.7947C15.4045 18.6137 15.7222 19.3824 16.2988 19.9589L20.0388 23.6988C20.6156 24.2757 21.3843 24.5933 22.2034 24.5933C23.0224 24.5933 23.791 24.2758 24.3676 23.6992L24.9109 23.1559C25.1845 22.8822 25.5511 22.7315 25.9431 22.7315C26.3352 22.7315 26.7018 22.8822 26.9756 23.156L28.0622 24.2426C28.6314 24.8118 28.6315 25.7381 28.0622 26.3074Z" fill="#A70A12"/>
</g>
<defs>
<clipPath id="clip0_2254_3340">
<rect width="40" height="40" fill="white"/>
</clipPath>
</defs>
</svg>
