<svg width="60" height="60" viewBox="0 0 60 60" fill="none" xmlns="http://www.w3.org/2000/svg">
<path d="M42.5 52.5005C38.3658 52.4967 34.2958 51.475 30.65 49.5255L29.525 48.9005C21.7519 44.7212 15.3792 38.3485 11.2 30.5755L10.575 29.4505C8.57455 25.784 7.51783 21.6772 7.5 17.5004V15.8254C7.49895 14.4928 8.0299 13.2149 8.975 12.2754L13.2 8.05042C13.6103 7.63692 14.1895 7.43762 14.7674 7.51107C15.3453 7.58452 15.8562 7.92242 16.15 8.42542L21.775 18.0754C22.3438 19.0576 22.1796 20.2998 21.375 21.1004L16.65 25.8255C16.2576 26.2135 16.1662 26.813 16.425 27.3005L17.3 28.9505C20.4426 34.7715 25.2233 39.5435 31.05 42.6755L32.7 43.5755C33.1875 43.8342 33.787 43.7427 34.175 43.3505L38.9 38.6255C39.7005 37.821 40.9428 37.6567 41.925 38.2255L51.575 43.8505C52.078 44.1442 52.416 44.6552 52.4893 45.233C52.5628 45.811 52.3635 46.3902 51.95 46.8005L47.725 51.0255C46.7855 51.9705 45.5075 52.5015 44.175 52.5005H42.5Z" fill="#878C91"/>
</svg>
