<svg width="40" height="40" viewBox="0 0 40 40" fill="none" xmlns="http://www.w3.org/2000/svg">
<path d="M35 6H5C2.875 6 1.0625 7.75 1.0625 9.9375V30.1875C1.0625 32.3125 2.8125 34.125 5 34.125H35C37.125 34.125 38.9375 32.375 38.9375 30.1875V9.875C38.9375 7.75 37.125 6 35 6ZM35 8.8125C35.0625 8.8125 35.125 8.8125 35.1875 8.8125L20 18.5625L4.8125 8.8125C4.875 8.8125 4.9375 8.8125 5 8.8125H35ZM35 31.1875H5C4.375 31.1875 3.875 30.6875 3.875 30.0625V11.5625L18.5 20.9375C18.9375 21.25 19.4375 21.375 19.9375 21.375C20.4375 21.375 20.9375 21.25 21.375 20.9375L36 11.5625V30.125C36.125 30.75 35.625 31.1875 35 31.1875Z" fill="#A70A12"/>
</svg>
