<svg width="20" height="24" viewBox="0 0 20 24" fill="none" xmlns="http://www.w3.org/2000/svg">
<path d="M9.99965 0.802002C9.56732 0.802002 9.22146 1.15242 9.22146 1.58475V15.797L5.69 12.2656C5.3851 11.9607 4.88905 11.9607 4.58415 12.2656C4.27924 12.5705 4.27924 13.0665 4.58415 13.3714L9.449 18.2363C9.59463 18.3819 9.79486 18.4638 9.99965 18.4638C10.209 18.4638 10.4047 18.3819 10.5503 18.2363L15.4152 13.3669C15.7201 13.062 15.7201 12.5659 15.4152 12.261C15.1102 11.9561 14.6142 11.9561 14.3093 12.261L10.7778 15.7925V1.58475C10.7824 1.15242 10.432 0.802002 9.99965 0.802002Z" fill="#878C91"/>
<path d="M19.5984 22.3094C19.5984 21.877 19.248 21.5266 18.8157 21.5266H1.18118C0.748852 21.5266 0.398438 21.877 0.398438 22.3094C0.398438 22.7417 0.748852 23.0876 1.18118 23.0876H18.8202C19.2526 23.0921 19.5984 22.7417 19.5984 22.3094Z" fill="#878C91"/>
</svg>
