<svg width="60" height="60" viewBox="0 0 60 60" fill="none" xmlns="http://www.w3.org/2000/svg">
<path d="M30.0007 4.99902C20.0158 4.99902 11.8926 13.1223 11.8926 23.107C11.8926 35.4985 28.0975 53.6898 28.7875 54.458C29.4355 55.1798 30.567 55.1785 31.214 54.458C31.9037 53.6898 48.1087 35.4985 48.1087 23.107C48.1085 13.1223 39.9855 4.99902 30.0007 4.99902ZM30.0007 32.2178C24.977 32.2178 20.8901 28.1308 20.8901 23.107C20.8901 18.0834 24.9771 13.9965 30.0007 13.9965C35.0242 13.9965 39.1112 18.0835 39.1112 23.1071C39.1112 28.1308 35.0242 32.2178 30.0007 32.2178Z" fill="#878C91"/>
</svg>
