<svg width="40" height="40" viewBox="0 0 40 40" fill="none" xmlns="http://www.w3.org/2000/svg">
<path d="M37.6253 34.5L36.5003 23.1875C36.3128 21.125 34.5627 19.5625 32.5002 19.5625H7.50025C5.43775 19.5625 3.75025 21.125 3.50025 23.1875L2.37525 34.5C2.25025 35.625 2.62525 36.75 3.37525 37.5625C4.12525 38.375 5.18775 38.875 6.31275 38.875H33.5627C34.6878 38.875 35.7503 38.375 36.5003 37.5625C37.3753 36.75 37.6878 35.625 37.6253 34.5ZM34.5003 35.6875C34.2502 35.9375 33.9377 36.0625 33.6252 36.0625H6.37525C6.06275 36.0625 5.75025 35.9375 5.50025 35.6875C5.25025 35.4375 5.18775 35.125 5.18775 34.75L6.31275 23.4375C6.37525 22.8125 6.87525 22.375 7.50025 22.375H32.5002C33.1252 22.375 33.6252 22.8125 33.6878 23.4375L34.8128 34.75C34.8128 35.125 34.7503 35.4375 34.5003 35.6875Z" fill="#A70A12"/>
<path d="M20 24.5625C17.4375 24.5625 15.3125 26.6875 15.3125 29.25C15.3125 31.875 17.4375 33.9375 20 33.9375C22.625 33.9375 24.6875 31.8125 24.6875 29.25C24.6875 26.6875 22.625 24.5625 20 24.5625ZM20 31.125C18.9375 31.125 18.125 30.25 18.125 29.25C18.125 28.1875 19 27.375 20 27.375C21.0625 27.375 21.875 28.25 21.875 29.25C21.875 30.3125 21.0625 31.125 20 31.125Z" fill="#A70A12"/>
<path d="M3.8125 12.875C3.9375 15.625 6.3125 17.0625 7.9375 17.0625H12.3125H12.375C14.375 16.9375 16.375 15.625 16.375 12.875V11.6875C18.5 11.6875 22.5625 11.6875 24.625 11.6875V12.875C24.625 15.625 26.625 16.9375 28.625 17.0625H33.0625C34.75 17.0625 37.0625 15.625 37.1875 12.875C37.1875 12.6875 37.1875 10.4375 37.1875 10.3125C37.1875 10.25 37.1875 10.1875 37.1875 10.125C37 8.3125 36.375 6.8125 35.25 5.625L35.1875 5.5625C33.5625 4.0625 31.6875 3.25 30.25 2.75C26 1.125 20.6875 1.125 20.4375 1.125C16.6875 1.1875 14.3125 1.5 10.6875 2.75C9.1875 3.3125 7.3125 4.125 5.6875 5.5625L5.625 5.625C4.5 6.8125 3.875 8.3125 3.6875 10.125C3.6875 10.1875 3.6875 10.25 3.6875 10.3125C3.75 10.4375 3.8125 12.625 3.8125 12.875ZM7.6875 7.625C8.9375 6.5 10.4375 5.875 11.6875 5.375C14.9375 4.1875 17 4 20.5 3.875C20.8125 3.875 25.5625 3.9375 29.3125 5.375C30.625 5.875 32.125 6.5 33.3125 7.625C33.9375 8.3125 34.3125 9.25 34.4375 10.3125C34.4375 10.5 34.4375 12.5625 34.4375 12.75C34.375 14.0625 33.125 14.25 33.125 14.25H28.8125C28.1875 14.1875 27.5 13.9375 27.5 12.875V10.3125C27.5 9.6875 27.125 9.125 26.5 9C26.0625 8.75 15 8.75 14.5625 8.9375C14 9.125 13.5625 9.6875 13.5625 10.25V12.875C13.5625 13.9375 12.875 14.1875 12.25 14.25H7.9375C7.9375 14.25 6.6875 14.0625 6.625 12.8125C6.625 12.625 6.625 11.9375 6.625 11.3125C6.625 10.875 6.625 10.5625 6.625 10.375C6.6875 9.1875 7.0625 8.3125 7.6875 7.625Z" fill="#A70A12"/>
</svg>
