<svg width="40" height="40" viewBox="0 0 40 40" fill="none" xmlns="http://www.w3.org/2000/svg">
<path d="M30.3742 38.0625C25.3117 38.0625 18.1242 34.4375 11.4992 28.1875C2.49917 19.5625 -1.31333 9.93755 2.68667 5.68755C2.87417 5.50005 3.12417 5.31255 3.37417 5.18755L8.43667 2.31255C9.74917 1.56255 11.3742 1.93755 12.2492 3.18755L15.9367 8.43755C16.3742 9.06255 16.5617 9.81255 16.3742 10.5625C16.2492 11.25 15.8117 11.8751 15.1867 12.3126L12.9992 13.75C14.6867 16.1875 19.2492 22.25 26.4992 26.5625C26.5617 26.625 26.6242 26.5625 26.6242 26.5625L28.1867 24.4375C29.0617 23.25 30.7492 22.9375 32.0617 23.75L37.5617 27.25C38.8742 28.0625 39.2492 29.75 38.4367 31.0625L35.4367 35.875C35.2492 36.125 35.0617 36.375 34.8742 36.5625C33.7492 37.5625 32.1867 38.0625 30.3742 38.0625ZM9.87417 4.75005L4.74917 7.62505C2.37417 10.1875 5.31167 18.375 13.4992 26.125C21.8117 34 30.3742 36.8125 33.1242 34.4375L36.1242 29.625L30.6242 26.125C30.5617 26.125 30.4992 26.125 30.4992 26.125L28.9367 28.25C28.0617 29.4375 26.3742 29.75 25.1242 29C17.3117 24.3125 12.4367 17.8125 10.6867 15.25C10.2492 14.625 10.1242 13.8751 10.2492 13.1875C10.3742 12.4375 10.8117 11.8125 11.4367 11.4375L13.6242 10L9.99917 4.81255C9.93667 4.81255 9.87417 4.75005 9.87417 4.75005Z" fill="#A70A12"/>
</svg>
