<svg width="40" height="41" viewBox="0 0 40 41" fill="none" xmlns="http://www.w3.org/2000/svg">
<path d="M35 6.16504H5C2.875 6.16504 1.0625 7.91504 1.0625 10.1025V30.3525C1.0625 32.4775 2.8125 34.29 5 34.29H35C37.125 34.29 38.9375 32.54 38.9375 30.3525V10.04C38.9375 7.91504 37.125 6.16504 35 6.16504ZM35 8.97754C35.0625 8.97754 35.125 8.97754 35.1875 8.97754L20 18.7275L4.8125 8.97754C4.875 8.97754 4.9375 8.97754 5 8.97754H35ZM35 31.3525H5C4.375 31.3525 3.875 30.8525 3.875 30.2275V11.7275L18.5 21.1025C18.9375 21.415 19.4375 21.54 19.9375 21.54C20.4375 21.54 20.9375 21.415 21.375 21.1025L36 11.7275V30.29C36.125 30.915 35.625 31.3525 35 31.3525Z" fill="#7899D4"/>
</svg>
