<svg width="101" height="101" viewBox="0 0 101 101" fill="none" xmlns="http://www.w3.org/2000/svg">
<path d="M26.8311 41.6462C26.8311 44.4182 29.0861 46.6742 31.8591 46.6742C34.6321 46.6742 36.8871 44.4182 36.8871 41.6462C36.8871 38.8742 34.6311 36.6182 31.8591 36.6182C29.0871 36.6182 26.8311 38.8742 26.8311 41.6462ZM33.9811 41.6462C33.9811 42.8162 33.0291 43.7682 31.8591 43.7682C30.6891 43.7682 29.7371 42.8162 29.7371 41.6462C29.7371 40.4762 30.6891 39.5242 31.8591 39.5242C33.0291 39.5242 33.9811 40.4762 33.9811 41.6462Z" fill="black"/>
<path d="M76.4274 26.0496C75.7224 25.6676 74.8404 25.9246 74.4554 26.6286C74.0704 27.3326 74.3304 28.2156 75.0344 28.6006C85.0184 34.0496 90.9784 42.8426 90.9784 52.1216C90.9784 60.6716 87.5614 66.9846 79.8994 72.5916C79.6154 72.8006 79.4164 73.1056 79.3384 73.4486L76.4744 86.3506H71.1134L69.4064 79.7756C69.3024 79.3786 69.0364 79.0426 68.6724 78.8526C68.3084 78.6626 67.8784 78.6366 67.4944 78.7786C62.7384 80.5456 59.1344 81.1126 52.6594 81.1126C46.5124 81.1126 42.1184 80.6806 36.5164 78.4046C36.1234 78.2436 35.6804 78.2636 35.3044 78.4586C34.9274 78.6526 34.6544 79.0026 34.5564 79.4146L32.9084 86.3516H27.5944L24.7724 72.4326C24.6964 72.0586 24.4764 71.7296 24.1604 71.5166C12.0624 63.3666 5.92944 56.3346 5.92944 50.6146V45.1276C5.92944 42.7726 7.59644 40.8566 9.64444 40.8566H16.0974L16.2234 40.8556C16.2804 40.8546 16.3324 40.8516 16.3884 40.8566C16.9434 40.9076 17.4854 40.6386 17.7734 40.1566C19.8634 36.6666 22.8924 33.5216 26.7754 30.8096C27.1644 30.5376 27.3964 30.0926 27.3964 29.6186V17.5376C32.5794 18.0786 36.2314 21.4586 37.6344 24.8116C37.9434 25.5516 38.7954 25.9006 39.5354 25.5916C40.2754 25.2816 40.6254 24.4306 40.3154 23.6906C38.4144 19.1446 33.2334 14.5566 25.9434 14.5566C25.1404 14.5566 24.4904 15.2066 24.4904 16.0096V28.8696C20.8224 31.5326 17.8774 34.5816 15.7214 37.9506H9.64444C5.99344 37.9506 3.02344 41.1706 3.02344 45.1276V50.6146C3.02344 60.4556 16.7824 70.0396 22.0414 73.5926L24.9814 88.0926C25.1184 88.7696 25.7134 89.2566 26.4054 89.2566H34.0564C34.7294 89.2566 35.3144 88.7946 35.4704 88.1396L36.9994 81.7026C42.3104 83.6316 46.7214 84.0176 52.6594 84.0176C58.1354 84.0176 62.0244 83.6956 66.9914 82.0376L68.5834 88.1686C68.7494 88.8096 69.3274 89.2566 69.9894 89.2566H77.6404C78.3214 89.2566 78.9114 88.7826 79.0594 88.1186L82.0594 74.6086C90.1234 68.5516 93.8854 61.3926 93.8854 52.1216C93.8854 41.7616 87.3584 32.0156 76.4274 26.0496Z" fill="black"/>
<path d="M47.6702 30.1722C48.1102 30.1962 48.5202 30.0192 48.8102 29.6992C50.7822 27.5362 53.9442 26.2452 57.2672 26.2452C60.5632 26.2452 63.6232 27.5322 65.6632 29.7762C65.9382 30.0802 66.3302 30.2522 66.7382 30.2522C66.7582 30.2522 66.7772 30.2522 66.7972 30.2512C67.2272 30.2342 67.6272 30.0272 67.8902 29.6862C69.7082 27.3262 70.6682 24.5002 70.6672 21.5152C70.6672 14.1262 64.6552 8.11523 57.2672 8.11523C49.8792 8.11523 43.8672 14.1262 43.8672 21.5152C43.8672 24.4602 44.8052 27.2562 46.5792 29.5982C46.8392 29.9412 47.2392 30.1522 47.6702 30.1722ZM57.2672 11.0202C63.0532 11.0202 67.7612 15.7282 67.7612 21.5152C67.7622 23.3032 67.3232 25.0172 66.4802 26.5502C63.9892 24.4922 60.7242 23.3392 57.2682 23.3392C53.7632 23.3392 50.4842 24.4632 48.0132 26.4692C47.1992 24.9552 46.7742 23.2692 46.7742 21.5142C46.7732 15.7282 51.4802 11.0202 57.2672 11.0202Z" fill="black"/>
</svg>
