<svg width="800" height="800" viewBox="0 0 800 800" fill="none" xmlns="http://www.w3.org/2000/svg">
<path d="M735.746 47.0659C725.575 47.539 715.995 50.4961 707.48 53.808H707.362C698.729 57.2382 657.69 74.5075 595.364 100.648C533.038 126.907 452.145 160.972 371.842 194.801C211.474 262.341 53.8263 328.816 53.8263 328.816L55.7185 328.106C55.7185 328.106 44.8381 331.655 33.4846 339.462C27.6896 343.247 21.3032 348.451 15.7448 356.613C10.1863 364.774 5.69217 377.312 7.34791 390.205C10.068 412.087 24.2599 425.217 34.4307 432.432C44.7198 439.766 54.5359 443.196 54.5359 443.196H54.7724L202.604 492.993C209.227 514.284 247.664 640.61 256.888 669.708C262.329 687.095 267.65 697.978 274.273 706.257C277.467 710.516 281.251 714.064 285.745 716.903C287.519 717.967 289.411 718.795 291.304 719.505C291.895 719.86 292.486 719.978 293.196 720.096L291.658 719.742C292.131 719.86 292.486 720.215 292.841 720.333C294.024 720.688 294.852 720.806 296.389 721.043C319.806 728.14 338.61 713.591 338.61 713.591L339.674 712.763L426.954 633.277L573.249 745.527L576.56 746.947C607.073 760.313 637.94 752.861 654.261 739.731C670.7 726.484 677.086 709.569 677.086 709.569L678.15 706.849L791.212 127.617C794.405 113.304 795.233 99.9384 791.685 86.9272C788.137 73.9161 779.031 61.733 768.032 55.2274C756.915 48.6035 745.917 46.5927 735.746 47.0659ZM732.671 109.164C732.553 111.057 732.907 110.82 732.079 114.487V114.842L620.082 688.042C619.609 688.87 618.781 690.644 616.534 692.418C614.169 694.311 612.276 695.494 602.46 691.59L423.525 554.382L315.43 652.912L338.137 507.897C338.137 507.897 618.426 246.609 630.489 235.372C642.552 224.136 638.531 221.77 638.531 221.77C639.359 208.049 620.318 217.748 620.318 217.748L251.685 446.153L251.566 445.561L74.8776 386.065V385.947C74.7593 385.947 74.5228 385.829 74.4045 385.829C74.5228 385.829 75.3506 385.474 75.3506 385.474L76.2968 385.001L77.2429 384.646C77.2429 384.646 235.009 318.171 395.377 250.631C475.68 216.802 556.573 182.737 618.781 156.478C680.989 130.337 726.994 111.175 729.596 110.111C732.079 109.164 730.897 109.164 732.671 109.164Z" fill="black"/>
</svg>
