<svg width="800" height="800" viewBox="0 0 800 800" fill="none" xmlns="http://www.w3.org/2000/svg">
<path d="M679.724 125.232C643.138 89.5034 599.59 61.1824 551.615 41.9152C503.635 22.648 452.182 12.8201 400.25 13.0025C330.825 13.0683 262.632 30.8141 202.507 64.4626C142.381 98.1112 92.4321 146.482 57.6605 204.729C22.8889 262.977 4.51639 329.06 4.38164 396.354C4.2474 463.653 22.3564 529.801 56.8949 588.18L1 787L210.606 733.788C268.485 764.999 333.52 781.635 399.75 782.163C505.038 782.167 606.063 741.857 680.832 670.01C755.607 598.169 798.077 500.602 799 398.55C798.651 347.626 787.931 297.27 767.464 250.369C746.998 203.467 717.179 160.942 679.724 125.232ZM400.25 715.889C341.245 715.928 283.32 700.554 232.565 671.384L220.587 664.128L96.3208 696.055L129.259 578.505L121.274 566.411C78.8162 499.978 62.9705 420.754 76.7386 343.751C90.5068 266.751 132.933 197.318 195.979 148.608C259.025 99.8977 338.311 75.2928 418.82 79.4545C499.328 83.6157 575.47 116.255 632.812 171.188C695.495 230.602 731.377 311.645 732.625 396.615C731.836 481.557 696.468 562.759 634.22 622.555C571.977 682.346 487.885 715.894 400.25 715.889ZM580.411 476.918C570.43 472.08 522.021 448.86 513.038 445.958C504.054 443.055 497.068 441.12 490.58 450.795C480.818 463.764 470.318 476.197 459.139 488.044C453.649 494.816 447.66 495.3 437.679 488.044C380.771 466.246 333.36 426.095 303.432 374.363C292.951 357.432 313.413 358.399 332.377 322.118C333.78 319.501 334.508 316.598 334.508 313.652C334.508 310.706 333.78 307.804 332.377 305.187C332.377 300.349 309.919 252.942 301.934 234.075C293.949 215.209 285.964 218.112 279.477 217.628H260.013C254.97 217.703 250.002 218.821 245.441 220.906C240.879 222.992 236.83 225.997 233.563 229.722C222.365 240.276 213.631 253.034 207.949 267.137C202.267 281.239 199.77 296.358 200.625 311.476C203.754 347.665 217.814 382.156 241.049 410.644C283.579 472.361 341.864 522.356 410.231 555.768C446.088 576.057 487.76 584.542 529.008 579.956C542.742 577.315 555.752 571.901 567.186 564.065C578.624 556.233 588.231 546.152 595.383 534.484C602.01 520.242 604.096 504.409 601.372 489.011C596.88 484.174 590.392 481.755 580.411 476.918Z" fill="black"/>
</svg>
