<svg xmlns="http://www.w3.org/2000/svg" fill="none" viewBox="0 0 111 110"><rect width="110" height="110" x="0.9375" fill="#A70A12" rx="55"/><g fill="#fff" clip-path="url(#clip0_2553_2868)"><path d="M38.62 36.36c-.8 0-1.64-.14-2.44-.42a5.6 5.6 0 0 1-3.65-3.38l-.1-.32a1 1 0 0 1 1.94-.49l.05.17c.32.94 1.2 1.71 2.41 2.13 1.43.5 3.03.38 4.07-.3 3.3-2.17 7.98-4.75 11.5-4.75a1 1 0 0 1 0 2c-3.19 0-7.89 2.77-10.4 4.42a6 6 0 0 1-3.38.94"/><path d="M56.4 35a5 5 0 1 1 .01-10.01 5 5 0 0 1 0 10.01m0-8a3 3 0 1 0 .01 6 3 3 0 0 0 0-6m18.98 42h-2c-6.06 0-11-4.94-11-11a1 1 0 0 1 1-1h22a1 1 0 0 1 1 1c0 6.06-4.93 11-11 11m-10.94-10a9 9 0 0 0 8.94 8h2c4.63 0 8.45-3.5 8.95-8z"/><path d="M83.4 59a1 1 0 0 1-.92-.62l-9-22a1 1 0 0 1 1.85-.76l9 22a1 1 0 0 1-.93 1.38"/><path d="M65.4 59a1 1 0 0 1-.92-1.38l9-22a1 1 0 0 1 1.85.76l-9 22a1 1 0 0 1-.93.62"/><path d="M74.18 36.36a6 6 0 0 1-3.37-.94c-2.52-1.65-7.22-4.42-10.4-4.42a1 1 0 0 1 0-2c3.51 0 8.2 2.58 11.5 4.75a4.8 4.8 0 0 0 4.06.3c1.22-.41 2.1-1.2 2.41-2.13l.05-.17a1 1 0 0 1 1.94.5l-.1.31a5.6 5.6 0 0 1-3.65 3.38 8 8 0 0 1-2.44.42m-11.78 48.64h-12a1 1 0 0 1-1-1v-4a1 1 0 0 1 1-1h12a1 1 0 0 1 1 1v4a1 1 0 0 1-1 1m-11-2h10v-2h-10z"/><path d="M58.4 81h-4a1 1 0 0 1-1-1v-46.55a1 1 0 0 1 1.5-.87 2.9 2.9 0 0 0 3 0 1 1 0 0 1 1.5.87v46.55a1 1 0 0 1-1 1m-3-2h2v-44.1q-1 .21-2 0zm-16-10h-2c-6.06 0-11-4.94-11-11a1 1 0 0 1 1-1h22a1 1 0 0 1 1 1c0 6.06-4.93 11-11 11m-10.94-10a9 9 0 0 0 8.94 8h2c4.63 0 8.45-3.5 8.95-8z"/><path d="M47.4 59a1 1 0 0 1-.92-.62l-9-22a1 1 0 0 1 1.85-.76l9 22a1 1 0 0 1-.93 1.38"/><path d="M29.4 59a1 1 0 0 1-.93-1.38l9-22a1 1 0 0 1 1.86.76l-9 22a1 1 0 0 1-.93.62"/></g><defs><clipPath id="clip0_2553_2868"><path fill="#fff" d="M26.4 25h60v60h-60z"/></clipPath></defs></svg>