<svg width="61" height="61" viewBox="0 0 61 61" fill="none" xmlns="http://www.w3.org/2000/svg">
<g clip-path="url(#clip0_2254_3423)">
<path d="M41.2121 49.8489H39.4543V44.5756C39.4543 43.6048 38.6672 42.8178 37.6964 42.8178H9.45484C8.48406 42.8178 7.69703 43.6048 7.69703 44.5756V49.8489H5.93922C3.03168 49.8489 0.666016 52.2145 0.666016 55.1223V58.755C0.666016 59.7257 1.45305 60.4893 2.42383 60.4893H44.7276C45.6984 60.4893 46.4854 59.7257 46.4854 58.755V55.1223C46.4854 52.2145 44.1197 49.8489 41.2121 49.8489ZM11.2127 46.3099H35.9386V49.8488H11.2127V46.3099ZM42.9698 56.9971H4.18152V55.1221C4.18152 54.1529 4.97008 53.3409 5.93934 53.3409C25.678 53.3409 34.3736 53.3865 41.2121 53.3409C42.1813 53.3409 42.9699 54.1529 42.9699 55.1221V56.9971H42.9698Z" fill="#A70A12"/>
<path d="M59.7005 48.4167C59.6978 48.413 59.6951 48.4092 59.6924 48.4055L43.9755 26.4936C45.1602 25.3001 46.2052 24.0335 47.0909 22.7189C48.483 23.0661 49.9758 22.8163 51.1959 21.9556L51.6222 21.6549C53.8807 20.0617 54.4219 16.9281 52.8334 14.6762L44.4223 2.6353C42.8254 0.371586 39.701 -0.168415 37.437 1.42862L37.0107 1.72932C35.8183 2.57049 35.0427 3.90362 34.9071 5.45952C31.7985 6.25709 28.6562 7.73987 25.7329 9.80202C22.808 11.8653 20.3559 14.3296 18.5615 16.9923C18.4416 16.9624 18.3205 16.9355 18.1976 16.9142C16.8782 16.6863 15.5491 16.986 14.455 17.7578L14.0289 18.0583C11.765 19.6554 11.2253 22.7797 12.8223 25.0438L21.2288 36.9609C22.8228 39.2204 25.9566 39.7599 28.2142 38.1675L28.6403 37.8669C29.7344 37.0951 30.4625 35.9434 30.6904 34.6242C30.7116 34.5013 30.7267 34.3782 30.7389 34.2552C32.2812 33.8599 33.8314 33.2968 35.3595 32.5765L51.0869 54.5028C52.7561 56.8617 56.0346 57.4562 58.4311 55.7658C60.8127 54.0855 61.3807 50.7985 59.7005 48.4167ZM39.0372 4.60205C39.4739 4.29397 39.8757 3.92752 40.5811 4.04952C40.9752 4.1176 41.3191 4.33498 41.545 4.65514L49.9561 16.696C50.432 17.3706 50.2703 18.3064 49.5959 18.7822L49.1696 19.0829C48.495 19.5587 47.5591 19.3971 47.0834 18.7226L38.6768 6.80541C38.1966 6.12467 38.3673 5.07455 39.0372 4.60205ZM26.6139 34.9939L26.1878 35.2945C25.5132 35.7704 24.5772 35.6086 24.1016 34.9342L15.6951 23.017C15.2182 22.3411 15.3791 21.4078 16.0555 20.9308C16.4918 20.623 16.8939 20.2564 17.5994 20.3783C17.9935 20.4464 18.3373 20.6638 18.5678 20.9905L26.9744 32.9078C27.4512 33.5838 27.2903 34.5169 26.6139 34.9939ZM29.8318 30.8593L21.4561 18.9861C23.0128 16.6656 25.1692 14.5019 27.7595 12.6746C30.3497 10.8474 33.1115 9.54174 35.8197 8.85373L44.1952 20.7269C42.5506 23.1785 40.3359 25.3142 37.8918 27.0383C35.4542 28.7579 32.6985 30.131 29.8318 30.8593ZM38.4658 30.8751C38.9549 30.569 39.4398 30.2487 39.9183 29.9112C40.4052 29.5677 40.8775 29.2119 41.3373 28.8472L47.5146 37.4592L44.642 39.4856L38.4658 30.8751ZM46.691 42.3424L49.5637 40.316L51.6128 43.1727L48.7402 45.1991L46.691 42.3424ZM57.1237 51.7556C56.8591 53.2874 54.8601 53.7525 53.9553 52.4698C53.9526 52.466 53.95 52.4623 53.9472 52.4585L50.7893 48.056L53.6619 46.0296L56.831 50.4479C57.0993 50.8305 57.2032 51.2948 57.1237 51.7556Z" fill="#A70A12"/>
</g>
<defs>
<clipPath id="clip0_2254_3423">
<rect width="60" height="60" fill="white" transform="translate(0.666016 0.5)"/>
</clipPath>
</defs>
</svg>
