<svg width="61" height="61" viewBox="0 0 61 61" fill="none" xmlns="http://www.w3.org/2000/svg">
<g clip-path="url(#clip0_2254_3435)">
<path d="M57.4308 31.4677V24.3887C57.4308 21.2745 55.3211 18.5726 52.2998 17.8168L50.854 17.4548C52.5369 15.8513 53.5598 13.5955 53.5598 11.1452V9.20968C53.5598 4.40774 49.652 0.5 44.8501 0.5C40.0482 0.5 36.1404 4.40774 36.1404 9.20968V11.1452C36.1404 13.5955 37.1633 15.8513 38.8472 17.4548L37.4014 17.8168C34.3791 18.5716 32.2695 21.2745 32.2695 24.3887V31.4677H28.3985V24.3887C28.3985 21.2745 26.2888 18.5726 23.2675 17.8168L21.8217 17.4548C23.5046 15.8513 24.5275 13.5955 24.5275 11.1452V9.20968C24.5275 4.40774 20.6198 0.5 15.8179 0.5C11.0159 0.5 7.10818 4.40774 7.10818 9.20968V11.1452C7.10818 13.5955 8.13108 15.8513 9.81495 17.4548L8.36915 17.8168C5.34689 18.5716 3.23721 21.2745 3.23721 24.3887V31.4677C1.63656 31.4677 0.333984 32.7703 0.333984 34.371V36.3065C0.333984 37.9071 1.63656 39.2097 3.23721 39.2097V60.5H57.4308V39.2097C59.0314 39.2097 60.334 37.9071 60.334 36.3065V34.371C60.334 32.7703 59.0314 31.4677 57.4308 31.4677ZM51.8295 19.6942C53.9875 20.2342 55.4953 22.1639 55.4953 24.3887V31.4677H53.4311L52.5824 25.5239L50.6672 25.7977L51.4762 31.4677H49.6888V30.5C49.6888 28.8994 48.3862 27.5968 46.7856 27.5968H45.8179V22.58C46.9414 22.1794 47.7533 21.1148 47.7533 19.8548V19.3584C48.0998 19.2365 48.4327 19.0874 48.7559 18.9258L51.8295 19.6942ZM46.7856 29.5323C47.3188 29.5323 47.7533 29.9668 47.7533 30.5V31.4677H41.9469V30.5C41.9469 29.9668 42.3814 29.5323 42.9146 29.5323H46.7856ZM43.8824 19.8548V17.9194C43.8824 17.3861 44.3169 16.9516 44.8501 16.9516C45.3833 16.9516 45.8179 17.3861 45.8179 17.9194V19.8548C45.8179 20.3881 45.3833 20.8226 44.8501 20.8226C44.3169 20.8226 43.8824 20.3881 43.8824 19.8548ZM38.0759 11.1452V9.20968C38.0759 5.47419 41.1146 2.43548 44.8501 2.43548C48.5856 2.43548 51.6243 5.47419 51.6243 9.20968V11.1452C51.6243 13.8277 50.0498 16.2084 47.6827 17.2961C47.3962 15.9945 46.2369 15.0161 44.8501 15.0161C43.4633 15.0161 42.304 15.9945 42.0175 17.2961C39.6504 16.2084 38.0759 13.8268 38.0759 11.1452ZM34.205 24.3887C34.205 22.1648 35.7127 20.2342 37.8708 19.6942L40.9453 18.9258C41.2685 19.0884 41.6004 19.2365 41.9479 19.3594V19.8548C41.9479 21.1148 42.7598 22.1794 43.8833 22.58V27.5968H42.9156C41.315 27.5968 40.0124 28.8994 40.0124 30.5V31.4677H38.225L39.035 25.7987L37.1198 25.5248L36.2691 31.4677H34.205V24.3887ZM22.7972 19.6942C24.9553 20.2342 26.463 22.1639 26.463 24.3887V31.4677H24.3988L23.5501 25.5239L21.635 25.7977L22.444 31.4677H20.6566V30.5C20.6566 28.8994 19.354 27.5968 17.7533 27.5968H16.7856V22.58C17.9091 22.1794 18.7211 21.1148 18.7211 19.8548V19.3584C19.0675 19.2365 19.4004 19.0874 19.7237 18.9258L22.7972 19.6942ZM17.7533 29.5323C18.2866 29.5323 18.7211 29.9668 18.7211 30.5V31.4677H12.9146V30.5C12.9146 29.9668 13.3491 29.5323 13.8824 29.5323H17.7533ZM14.8501 19.8548V17.9194C14.8501 17.3861 15.2846 16.9516 15.8179 16.9516C16.3511 16.9516 16.7856 17.3861 16.7856 17.9194V19.8548C16.7856 20.3881 16.3511 20.8226 15.8179 20.8226C15.2846 20.8226 14.8501 20.3881 14.8501 19.8548ZM9.04366 11.1452V9.20968C9.04366 5.47419 12.0824 2.43548 15.8179 2.43548C19.5533 2.43548 22.592 5.47419 22.592 9.20968V11.1452C22.592 13.8277 21.0175 16.2084 18.6504 17.2961C18.364 15.9945 17.2046 15.0161 15.8179 15.0161C14.4311 15.0161 13.2717 15.9945 12.9853 17.2961C10.6182 16.2084 9.04366 13.8268 9.04366 11.1452ZM5.17269 24.3887C5.17269 22.1648 6.68044 20.2342 8.8385 19.6942L11.913 18.9258C12.2362 19.0884 12.5682 19.2365 12.9156 19.3594V19.8548C12.9156 21.1148 13.7275 22.1794 14.8511 22.58V27.5968H13.8833C12.2827 27.5968 10.9801 28.8994 10.9801 30.5V31.4677H9.19269L10.0027 25.7987L8.0856 25.5239L7.23689 31.4677H5.17269V24.3887ZM58.3985 36.3065C58.3985 36.8406 57.964 37.2742 57.4308 37.2742H53.5598V39.2097H55.4953V58.5645H5.17269V39.2097H51.6243V37.2742H3.23721C2.70398 37.2742 2.26947 36.8406 2.26947 36.3065V34.371C2.26947 33.8368 2.70398 33.4032 3.23721 33.4032H57.4308C57.964 33.4032 58.3985 33.8368 58.3985 34.371V36.3065Z" fill="#A70A12"/>
<path d="M9.04297 54.6935H51.6236V43.0806H9.04297V54.6935ZM10.9785 45.0161H49.6881V52.758H10.9785V45.0161Z" fill="#A70A12"/>
</g>
<defs>
<clipPath id="clip0_2254_3435">
<rect width="60" height="60" fill="white" transform="translate(0.333984 0.5)"/>
</clipPath>
</defs>
</svg>
