<svg width="60" height="61" viewBox="0 0 60 61" fill="none" xmlns="http://www.w3.org/2000/svg">
<g clip-path="url(#clip0_2254_3411)">
<path d="M35.6751 30.0099C37.0061 28.6064 37.8252 26.7129 37.8252 24.6305C37.8252 20.3151 34.3143 16.8043 29.999 16.8043C25.6837 16.8043 22.1729 20.3151 22.1729 24.6305C22.1729 26.7129 22.992 28.6064 24.3229 30.0099C20.7106 32.0139 18.2598 35.8671 18.2598 40.2826C18.2598 41.3631 19.1357 42.2392 20.2163 42.2392H39.7816C40.8621 42.2392 41.7382 41.3632 41.7382 40.2826C41.7383 35.8671 39.2874 32.0139 35.6751 30.0099ZM29.9991 20.7174C32.1568 20.7174 33.9121 22.4728 33.9121 24.6305C33.9121 26.7881 32.1568 28.5435 29.9991 28.5435C27.8415 28.5435 26.0861 26.7881 26.0861 24.6305C26.0861 22.4728 27.8415 20.7174 29.9991 20.7174ZM22.4206 38.3262C23.2916 34.9544 26.3591 32.4566 29.9991 32.4566C33.6392 32.4566 36.7067 34.9544 37.5777 38.3262H22.4206Z" fill="#A70A12"/>
<path d="M54.1304 48.7609C53.2254 48.7609 52.3677 48.9671 51.6014 49.3345L46.5471 44.2802C53.2683 36.3283 53.2986 24.6144 46.6388 16.6283L51.6014 11.6656C52.3677 12.0329 53.2253 12.2391 54.1304 12.2391C57.3669 12.2391 60 9.60605 60 6.36957C60 3.13309 57.3669 0.5 54.1304 0.5C50.8939 0.5 48.2609 3.13309 48.2609 6.36957C48.2609 7.27461 48.4671 8.1323 48.8345 8.89859L43.8718 13.8612C35.8856 7.20125 24.1716 7.2316 16.2199 13.9529L11.1656 8.89859C11.5329 8.1323 11.7391 7.27473 11.7391 6.36957C11.7391 3.13309 9.10605 0.5 5.86957 0.5C2.63309 0.5 0 3.13309 0 6.36957C0 9.60605 2.63309 12.2391 5.86957 12.2391C6.77461 12.2391 7.6323 12.0329 8.39859 11.6655L13.4696 16.7366C10.3022 20.5779 8.57883 25.3561 8.57883 30.3993C8.57883 35.4908 10.3361 40.3113 13.5616 44.1713L8.39859 49.3344C7.6323 48.9671 6.77473 48.7609 5.86957 48.7609C2.63309 48.7609 0 51.3939 0 54.6304C0 57.8669 2.63309 60.5 5.86957 60.5C9.10605 60.5 11.7391 57.8669 11.7391 54.6304C11.7391 53.7254 11.5329 52.8677 11.1655 52.1014L16.3287 46.9382C20.1886 50.1637 25.0092 51.9212 30.1007 51.9212C35.1439 51.9212 39.9221 50.1978 43.7634 47.0304L48.8345 52.1014C48.4672 52.8677 48.261 53.7253 48.261 54.6304C48.261 57.8669 50.8941 60.5 54.1305 60.5C57.367 60.5 60 57.8669 60 54.6304C60 51.3939 57.3669 48.7609 54.1304 48.7609ZM54.1304 4.41301C55.2093 4.41301 56.087 5.29074 56.087 6.36957C56.087 7.4484 55.2093 8.32613 54.1304 8.32613C53.0516 8.32613 52.1739 7.4484 52.1739 6.36957C52.1739 5.29074 53.0516 4.41301 54.1304 4.41301ZM5.86957 8.32613C4.79074 8.32613 3.91301 7.4484 3.91301 6.36957C3.91301 5.29074 4.79074 4.41301 5.86957 4.41301C6.9484 4.41301 7.82613 5.29074 7.82613 6.36957C7.82613 7.4484 6.9484 8.32613 5.86957 8.32613ZM5.86957 56.587C4.79074 56.587 3.91301 55.7093 3.91301 54.6304C3.91301 53.5516 4.79074 52.6739 5.86957 52.6739C6.9484 52.6739 7.82613 53.5516 7.82613 54.6304C7.82613 55.7093 6.9484 56.587 5.86957 56.587ZM42.5518 42.8506C39.2261 46.1764 34.804 48.0082 30.1005 48.0082C20.3686 48.0082 12.4918 40.1325 12.4918 30.3995C12.4918 20.6046 20.4257 12.7989 30.1005 12.7989C34.6091 12.7989 39.1194 14.5157 42.5518 17.9482C49.4174 24.8137 49.4174 35.9851 42.5518 42.8506ZM54.1304 56.587C53.0516 56.587 52.1739 55.7093 52.1739 54.6304C52.1739 53.5516 53.0516 52.6739 54.1304 52.6739C55.2093 52.6739 56.087 53.5516 56.087 54.6304C56.087 55.7093 55.2093 56.587 54.1304 56.587Z" fill="#A70A12"/>
</g>
<defs>
<clipPath id="clip0_2254_3411">
<rect width="60" height="60" fill="white" transform="translate(0 0.5)"/>
</clipPath>
</defs>
</svg>
