<svg width="101" height="101" viewBox="0 0 101 101" fill="none" xmlns="http://www.w3.org/2000/svg">
<path d="M87.6422 22.388H70.8862L69.3192 16.672C69.2082 16.263 68.9272 15.921 68.5492 15.73C68.1712 15.539 67.7292 15.516 67.3352 15.668L49.4832 22.52C49.2962 22.436 49.0902 22.388 48.8722 22.388H27.4162C27.0092 22.388 26.6192 22.554 26.3362 22.847L13.1142 36.559C12.8282 36.784 12.6352 37.1 12.5682 37.451C12.5602 37.487 12.5582 37.525 12.5532 37.562C12.5482 37.61 12.5402 37.656 12.5392 37.705C12.5382 37.724 12.5332 37.743 12.5332 37.762C12.5332 37.763 12.5332 37.764 12.5332 37.766V84.61C12.5332 85.438 13.2042 86.11 14.0332 86.11H80.9502C81.7782 86.11 82.4502 85.438 82.4502 84.61V79.422H87.6412C88.4692 79.422 89.1412 78.75 89.1412 77.922V23.888C89.1422 23.059 88.4702 22.388 87.6422 22.388ZM71.5822 36.267H22.0422L66.8642 19.061L71.5822 36.267ZM28.0532 25.388H42.0122L19.8512 33.895L28.0532 25.388ZM79.4502 83.11H15.5332V39.267H79.4502V83.11ZM86.1422 76.422H82.4502V37.767C82.4502 36.938 81.7782 36.267 80.9502 36.267H74.6912L71.7082 25.388H86.1412L86.1422 76.422Z" fill="black"/>
</svg>
