<svg xmlns="http://www.w3.org/2000/svg" fill="none" viewBox="0 0 61 61"><g fill="#A70A12" clip-path="url(#clip0_2254_3435)"><path d="M57.43 31.47v-7.08a6.76 6.76 0 0 0-5.13-6.57l-1.45-.37a8.7 8.7 0 0 0 2.71-6.3v-1.94a8.72 8.72 0 0 0-17.42 0v1.94a8.7 8.7 0 0 0 2.7 6.3l-1.44.37a6.76 6.76 0 0 0-5.13 6.57v7.08h-3.87v-7.08a6.76 6.76 0 0 0-5.13-6.57l-1.45-.37a8.7 8.7 0 0 0 2.7-6.3v-1.94a8.72 8.72 0 0 0-17.41 0v1.94a8.7 8.7 0 0 0 2.7 6.3l-1.44.37a6.76 6.76 0 0 0-5.13 6.57v7.08a2.9 2.9 0 0 0-2.9 2.9v1.94c0 1.6 1.3 2.9 2.9 2.9v21.29h54.2v-21.29c1.6 0 2.9-1.3 2.9-2.9v-1.94c0-1.6-1.3-2.9-2.9-2.9m-5.6-11.78a4.8 4.8 0 0 1 3.67 4.7v7.08h-2.07l-.85-5.95-1.91.28.8 5.67h-1.78v-.97c0-1.6-1.3-2.9-2.9-2.9h-.97v-5.02a2.9 2.9 0 0 0 1.93-2.73v-.5a9 9 0 0 0 1-.42zm-5.04 9.84c.53 0 .96.44.96.97v.97h-5.8v-.97c0-.53.43-.97.96-.97zm-2.9-9.68v-1.93a.97.97 0 0 1 1.93 0v1.93a.97.97 0 0 1-1.94 0m-5.81-8.7v-1.94a6.78 6.78 0 0 1 13.54 0v1.94a6.8 6.8 0 0 1-3.94 6.15 2.9 2.9 0 0 0-5.66 0 6.8 6.8 0 0 1-3.94-6.15m-3.87 13.24c0-2.23 1.5-4.16 3.66-4.7l3.08-.76q.48.24 1 .43v.5a2.9 2.9 0 0 0 1.93 2.72v5.02h-.96a2.9 2.9 0 0 0-2.9 2.9v.97h-1.8l.81-5.67-1.91-.28-.85 5.95h-2.07zm-11.41-4.7a4.8 4.8 0 0 1 3.66 4.7v7.08h-2.06l-.85-5.95-1.91.28.8 5.67h-1.78v-.97c0-1.6-1.3-2.9-2.9-2.9h-.97v-5.02a2.9 2.9 0 0 0 1.93-2.73v-.5q.52-.17 1-.42zm-5.05 9.84c.54 0 .97.44.97.97v.97h-5.8v-.97c0-.53.43-.97.96-.97zm-2.9-9.68v-1.93a.97.97 0 0 1 1.94 0v1.93a.97.97 0 0 1-1.94 0m-5.8-8.7v-1.94a6.78 6.78 0 0 1 13.54 0v1.94a6.8 6.8 0 0 1-3.94 6.15 2.9 2.9 0 0 0-5.66 0 6.8 6.8 0 0 1-3.95-6.15m-3.88 13.24a4.84 4.84 0 0 1 3.67-4.7l3.07-.76q.5.24 1 .43v.5a2.9 2.9 0 0 0 1.94 2.72v5.02h-.97a2.9 2.9 0 0 0-2.9 2.9v.97h-1.79l.81-5.67-1.91-.28-.85 5.95h-2.07zm53.23 11.92c0 .53-.44.96-.97.96h-3.87v1.94h1.94v19.35h-50.33v-19.35h46.45v-1.94h-48.38a.97.97 0 0 1-.97-.96v-1.94c0-.53.43-.97.97-.97h54.2c.52 0 .96.44.96.97z"/><path d="M9.04 54.7h42.58v-11.62h-42.58zm1.94-9.68h38.7v7.74h-38.7z"/></g><defs><clipPath id="clip0_2254_3435"><path fill="#fff" d="M.33.5h60v60h-60z"/></clipPath></defs></svg>