<svg xmlns="http://www.w3.org/2000/svg" xmlns:xlink="http://www.w3.org/1999/xlink"><symbol id="sprite-arrow-right" viewBox="0 0 24 24"><path d="M18.75 12a.75.75 0 0 0-.75-.75h-12a.75.75 0 0 0 0 1.5h12c.41 0 .75-.34.75-.75"/><path d="M11.47 5.47c-.3.3-.3.77 0 1.06l5.47 5.47-5.47 5.47a.75.75 0 1 0 1.06 1.06l6-6c.3-.3.3-.77 0-1.06l-6-6a.75.75 0 0 0-1.06 0"/></symbol><use xlink:href="#sprite-arrow-right" width="24" height="24"/><view id="sprite-arrow-right-view" viewBox="0 0 24 24"/><symbol id="sprite-icon-check" viewBox="0 0 60 60"><g clip-path="url(#clip0_2254_3377)"><path d="M27.5 57.46a27.53 27.53 0 0 1-27.5-27.5 27.53 27.53 0 0 1 27.5-27.5c5.27 0 10.4 1.5 14.83 4.35a1.88 1.88 0 0 1-2.02 3.16 23.78 23.78 0 0 0-36.56 20 23.8 23.8 0 0 0 23.75 23.74 23.8 23.8 0 0 0 23.64-26.07 1.87 1.87 0 1 1 3.73-.36q.13 1.32.13 2.68a27.53 27.53 0 0 1-27.5 27.5"/><path d="M30.62 36.21c-.48 0-.96-.18-1.32-.55l-11.25-11.25a1.88 1.88 0 0 1 2.65-2.65l9.93 9.92 26.17-26.17a1.88 1.88 0 0 1 2.65 2.65l-27.5 27.5c-.37.37-.85.55-1.33.55"/></g><defs><clipPath id="clip0_2254_3377"><rect/></clipPath></defs></symbol><use xlink:href="#sprite-icon-check" width="60" height="60" y="24"/><view id="sprite-icon-check-view" viewBox="0 24 60 60"/><symbol id="sprite-icon-chevron-down" viewBox="0 0 25 24"><path fill-rule="evenodd" d="M12.87 15.66a.56.56 0 0 1-.8 0l-5.74-5.73a.56.56 0 0 1 0-.8l.27-.26a.56.56 0 0 1 .8 0l5.07 5.07 5.07-5.07a.56.56 0 0 1 .8 0l.26.26c.22.22.22.58 0 .8z" clip-rule="evenodd"/></symbol><use xlink:href="#sprite-icon-chevron-down" width="25" height="24" y="84"/><view id="sprite-icon-chevron-down-view" viewBox="0 84 25 24"/><symbol id="sprite-icon-mail-2" viewBox="0 0 40 40"><path d="M35 6h-30a3.96 3.96 0 0 0-3.94 3.94v20.25a3.96 3.96 0 0 0 3.94 3.93h30a3.96 3.96 0 0 0 3.94-3.93v-20.32a3.95 3.95 0 0 0-3.94-3.87m0 2.81h.19l-15.19 9.75-15.19-9.75zm0 22.38h-30c-.62 0-1.12-.5-1.12-1.13v-18.5l14.62 9.38q.68.45 1.44.43.77.02 1.43-.43l14.63-9.38v18.56c.13.63-.37 1.07-1 1.07"/></symbol><use xlink:href="#sprite-icon-mail-2" width="40" height="40" y="108"/><view id="sprite-icon-mail-2-view" viewBox="0 108 40 40"/><symbol id="sprite-icon-main" viewBox="0 0 60 60"><path fill-rule="evenodd" d="M10 10h40a5 5 0 0 1 5 5v30a5 5 0 0 1-5 5h-40a5 5 0 0 1-5-5v-30a5 5 0 0 1 5-5m24.13 28.63 15.87-11.13v-5.25l-18.37 12.88c-.98.67-2.28.67-3.25 0l-18.38-12.88v5.25l15.88 11.13a7.2 7.2 0 0 0 8.25 0" clip-rule="evenodd"/></symbol><use xlink:href="#sprite-icon-main" width="60" height="60" y="148"/><view id="sprite-icon-main-view" viewBox="0 148 60 60"/><symbol id="sprite-icon-phone-2" viewBox="0 0 40 40"><path d="M30.37 38.06c-5.06 0-12.25-3.62-18.87-9.87-9-8.63-12.81-18.25-8.81-22.5q.29-.3.68-.5l5.07-2.88a2.9 2.9 0 0 1 3.8.88l3.7 5.25c.43.62.62 1.37.43 2.12a2.8 2.8 0 0 1-1.18 1.75l-2.2 1.44a45 45 0 0 0 13.5 12.81c.07.07.13 0 .13 0l1.57-2.12a2.9 2.9 0 0 1 3.87-.69l5.5 3.5c1.31.81 1.69 2.5.88 3.81l-3 4.82c-.2.24-.38.5-.57.68a6.6 6.6 0 0 1-4.5 1.5m-20.5-33.31-5.12 2.88c-2.38 2.56.56 10.75 8.75 18.5 8.31 7.87 16.87 10.68 19.62 8.3l3-4.8-5.5-3.5h-.12l-1.56 2.12a2.9 2.9 0 0 1-3.82.75 48 48 0 0 1-14.43-13.75 2.7 2.7 0 0 1-.44-2.06 2.5 2.5 0 0 1 1.19-1.75l2.18-1.44-3.62-5.19c-.06 0-.13-.06-.13-.06"/></symbol><use xlink:href="#sprite-icon-phone-2" width="40" height="40" y="208"/><view id="sprite-icon-phone-2-view" viewBox="0 208 40 40"/><symbol id="sprite-icon-phone-3" viewBox="0 0 40 40"><path d="m37.63 34.5-1.13-11.31a4 4 0 0 0-4-3.63h-25a4.05 4.05 0 0 0-4 3.63l-1.12 11.31a4 4 0 0 0 1 3.06 4 4 0 0 0 2.93 1.31h27.25c1.13 0 2.19-.5 2.94-1.3a3.8 3.8 0 0 0 1.13-3.07m-3.13 1.19q-.39.37-.87.37h-27.25q-.5 0-.88-.37c-.25-.25-.31-.56-.31-.94l1.12-11.31c.07-.63.57-1.07 1.19-1.07h25c.63 0 1.13.44 1.19 1.07l1.12 11.31c0 .38-.06.69-.31.94"/><path d="M20 24.56a4.68 4.68 0 1 0-.01 9.39 4.68 4.68 0 0 0 .01-9.39m0 6.57a1.9 1.9 0 0 1-1.87-1.88 1.87 1.87 0 0 1 3.75 0c0 1.06-.82 1.88-1.88 1.88m-16.19-18.25a4.37 4.37 0 0 0 4.13 4.18h4.43c2-.12 4-1.43 4-4.18v-1.2h8.25v1.2c0 2.74 2 4.06 4 4.18h4.44c1.69 0 4-1.43 4.13-4.18v-2.76a7.4 7.4 0 0 0-1.94-4.5l-.06-.06a14 14 0 0 0-4.94-2.81c-4.25-1.62-9.56-1.62-9.81-1.62-3.75.06-6.13.37-9.75 1.62a16 16 0 0 0-5 2.81l-.07.07a7.4 7.4 0 0 0-1.93 4.5v.18a32 32 0 0 1 .12 2.56m3.88-5.26a13 13 0 0 1 4-2.24c3.25-1.2 5.31-1.38 8.81-1.5.31 0 5.06.06 8.81 1.5 1.32.5 2.82 1.12 4 2.25.63.68 1 1.62 1.13 2.68v2.44c-.06 1.31-1.31 1.5-1.31 1.5h-4.32c-.62-.06-1.31-.31-1.31-1.37v-2.57c0-.62-.37-1.19-1-1.31-.44-.25-11.5-.25-11.94-.06-.56.19-1 .75-1 1.31v2.63c0 1.06-.69 1.3-1.31 1.37h-4.31s-1.25-.19-1.32-1.44v-2.44a4.2 4.2 0 0 1 1.07-2.74"/></symbol><use xlink:href="#sprite-icon-phone-3" width="40" height="40" y="248"/><view id="sprite-icon-phone-3-view" viewBox="0 248 40 40"/><symbol id="sprite-icon-phone" viewBox="0 0 60 60"><path d="M42.5 52.5c-4.13 0-8.2-1.02-11.85-2.97l-1.12-.63a45 45 0 0 1-18.33-18.32l-.62-1.13c-2-3.67-3.06-7.77-3.08-11.95v-1.67a5 5 0 0 1 1.47-3.55l4.23-4.23a1.88 1.88 0 0 1 2.95.38l5.63 9.65c.56.98.4 2.22-.4 3.02l-4.73 4.73c-.4.38-.48.98-.22 1.47l.87 1.65a34 34 0 0 0 13.75 13.73l1.65.9c.49.25 1.09.16 1.47-.23l4.73-4.72a2.5 2.5 0 0 1 3.02-.4l9.66 5.62a1.87 1.87 0 0 1 .37 2.95l-4.23 4.23a5 5 0 0 1-3.55 1.47z"/></symbol><use xlink:href="#sprite-icon-phone" width="60" height="60" y="288"/><view id="sprite-icon-phone-view" viewBox="0 288 60 60"/><symbol id="sprite-icon-pin" viewBox="0 0 60 60"><path d="M30 5c-9.98 0-18.1 8.12-18.1 18.1 0 12.4 16.2 30.59 16.89 31.36.65.72 1.78.72 2.42 0 .7-.77 16.9-18.96 16.9-31.35 0-9.99-8.12-18.11-18.1-18.11m0 27.22a9.12 9.12 0 0 1 0-18.22 9.12 9.12 0 0 1 0 18.22"/></symbol><use xlink:href="#sprite-icon-pin" width="60" height="60" y="348"/><view id="sprite-icon-pin-view" viewBox="0 348 60 60"/><symbol id="sprite-icon-tg-2" viewBox="0 0 32 32"><path d="M26.07 4q-.51.03-.93.22c-.3.11-1.65.68-3.7 1.55l-7.39 3.1-10.5 4.43.06-.02s-.36.11-.73.37q-.3.18-.6.57c-.17.27-.32.68-.27 1.1.1.73.56 1.16.9 1.4s.66.36.66.36l4.9 1.64 1.78 5.84c.18.57.36.93.58 1.2q.15.22.38.36l.24.1h-.05l.04.01.12.02c.77.24 1.4-.24 1.4-.24l.03-.03 2.88-2.62 4.83 3.7.11.05c1.01.44 2.03.2 2.57-.24s.75-1 .75-1l.04-.08 3.73-19.13c.1-.48.14-.92.02-1.35a1.8 1.8 0 0 0-1.85-1.31m-.1 2.05-.02.17v.01l-3.7 18.93q-.02.05-.12.15c-.08.06-.14.1-.46-.03l-5.91-4.53-3.57 3.25.75-4.79s9.26-8.62 9.65-9c.4-.37.27-.44.27-.44.03-.46-.6-.14-.6-.14l-12.18 7.55v-.02l-5.84-1.97h-.01l.03-.02.03-.01.03-.02 10.5-4.42 7.39-3.11 3.66-1.53c.08-.03.04-.03.1-.03"/></symbol><use xlink:href="#sprite-icon-tg-2" width="800" height="800" y="408"/><view id="sprite-icon-tg-2-view" viewBox="0 408 800 800"/><symbol id="sprite-icon-tg" viewBox="0 0 40 40"><g clip-path="url(#clip0_2254_3338)"><path d="M39.39 4.3a2.6 2.6 0 0 0-2.07-.93q-.68 0-1.43.28l-33.86 12.83c-1.8.69-2.05 1.71-2.03 2.26s.31 1.56 2.13 2.14l7.18 2.63 3.78 8.66c.38 1.2 1.18 2.04 2.2 2.32q.35.09.7.09c.83 0 1.67-.36 2.4-1.05l3.14-2.94 7.65 5.26q1.05.77 2.17.78c1.48 0 2.67-1.09 3.02-2.77l5.53-26.78c.23-1.1.05-2.1-.51-2.78m-27.7 18.8 9.77-5.24-6.81 6.25c-.24.22-.38.54-.38.86v.04l-.02 3.95zm5.1 8.72-.22.18.03-4.8 2.95 2.03zm20.82-25.22-5.54 26.79c-.05.27-.24.9-.72.9a1.4 1.4 0 0 1-.82-.36l-8.44-5.8-4.77-3.29 12.6-11.55a1.17 1.17 0 0 0-1.35-1.9l-18.48 9.91-7.18-2.63h-.02l33.83-12.83q.43-.14.6-.13c.06 0 .2.01.25.07.06.08.14.33.04.82"/></g><defs><clipPath id="clip0_2254_3338"><rect/></clipPath></defs></symbol><use xlink:href="#sprite-icon-tg" width="40" height="40" y="1208"/><view id="sprite-icon-tg-view" viewBox="0 1208 40 40"/><symbol id="sprite-icon-tgm" viewBox="0 0 40 40"><g clip-path="url(#clip0_2651_159)"><path d="M39.39 4.3a2.6 2.6 0 0 0-2.07-.93q-.68 0-1.43.28l-33.86 12.83c-1.8.69-2.05 1.71-2.03 2.26s.31 1.56 2.13 2.14l7.18 2.63 3.78 8.66c.38 1.2 1.18 2.04 2.2 2.32q.35.09.7.09c.83 0 1.67-.36 2.4-1.05l3.14-2.94 7.65 5.26q1.05.77 2.17.78c1.48 0 2.67-1.09 3.02-2.77l5.53-26.78c.23-1.1.05-2.1-.51-2.78m-27.7 18.8 9.77-5.24-6.81 6.25c-.24.22-.38.54-.38.86v.04l-.02 3.95zm5.1 8.72-.22.18.03-4.8 2.95 2.03zm20.82-25.22-5.54 26.79c-.05.27-.24.9-.72.9a1.4 1.4 0 0 1-.82-.36l-8.44-5.8-4.77-3.29 12.6-11.55a1.17 1.17 0 0 0-1.35-1.9l-18.48 9.91-7.18-2.63h-.02l33.83-12.83q.43-.14.6-.13c.06 0 .2.01.25.07.06.08.14.33.04.82"/></g><defs><clipPath id="clip0_2651_159"><rect/></clipPath></defs></symbol><use xlink:href="#sprite-icon-tgm" width="40" height="40" y="1248"/><view id="sprite-icon-tgm-view" viewBox="0 1248 40 40"/><symbol id="sprite-icon-whap-2" viewBox="0 0 24 24"><path d="M17.6 6.32a7.85 7.85 0 0 0-9.56-1.26 7.94 7.94 0 0 0-2.92 10.83l-1.12 4.11 4.2-1.1c1.16.65 2.46.99 3.79 1a8 8 0 0 0 8-7.93 8 8 0 0 0-2.39-5.65m-5.6 12.21a6.6 6.6 0 0 1-3.36-.92l-.24-.15-2.49.66.66-2.43-.16-.25a6.6 6.6 0 0 1 10.25-8.17 6.7 6.7 0 0 1 2 4.66 6.66 6.66 0 0 1-6.66 6.6m3.61-4.94c-.2-.1-1.17-.58-1.35-.64s-.32-.1-.45.1a9 9 0 0 1-.63.77q-.15.22-.43 0a5.3 5.3 0 0 1-2.69-2.35c-.21-.35.2-.33.58-1.08a.4.4 0 0 0 0-.35c0-.1-.45-1.08-.61-1.47s-.32-.33-.45-.34h-.39a.7.7 0 0 0-.53.25 2.2 2.2 0 0 0-.66 1.69c.06.75.34 1.46.81 2.05a9 9 0 0 0 3.39 3c.72.42 1.55.6 2.38.5a2 2 0 0 0 1.33-.94q.2-.46.12-.94c-.09-.1-.22-.15-.42-.25"/></symbol><use xlink:href="#sprite-icon-whap-2" width="800" height="800" y="1288"/><view id="sprite-icon-whap-2-view" viewBox="0 1288 800 800"/><symbol id="sprite-icon-whap" viewBox="0 0 40 40"><g clip-path="url(#clip0_2651_158)"><path d="M34.14 5.86a20 20 0 0 0-14.14-5.86 20 20 0 0 0-14.14 5.86 20 20 0 0 0-3.35 23.84l-2.47 8.81a1.17 1.17 0 0 0 1.45 1.45l8.81-2.47a20 20 0 0 0 29.7-17.49c0-5.34-2.08-10.36-5.86-14.14m-14.14 31.8c-3.15 0-6.25-.85-8.95-2.44a1.2 1.2 0 0 0-.9-.12l-7.29 2.04 2.04-7.28c.08-.3.04-.64-.12-.91a17.64 17.64 0 0 1 2.74-21.43 17.68 17.68 0 0 1 30.14 12.48c0 9.74-7.92 17.66-17.66 17.66"/><path d="M28.63 21.5a3.8 3.8 0 0 0-2.69-1.11c-1.02 0-1.97.4-2.69 1.1l-.54.55a.7.7 0 0 1-.5.2.7.7 0 0 1-.51-.2l-3.74-3.74a.7.7 0 0 1-.21-.5q0-.3.2-.51l.55-.55a3.8 3.8 0 0 0 0-5.38l-1.09-1.08a3.8 3.8 0 0 0-2.69-1.11c-1.02 0-1.97.4-2.69 1.1l-.8.82c-1.72 1.71-2.34 4.26-1.76 7.18a16 16 0 0 0 4.42 7.83c2.9 2.9 6.6 4.64 9.89 4.64 2.07 0 3.85-.68 5.13-1.96l.8-.82a3.8 3.8 0 0 0 0-5.37zm-.57 4.8-.8.82a4.8 4.8 0 0 1-3.48 1.27c-2.68 0-5.76-1.47-8.23-3.94a13.4 13.4 0 0 1-3.78-6.64c-.43-2.12-.03-3.92 1.11-5.06l.81-.81a1.45 1.45 0 0 1 2.06 0l1.1 1.08c.56.57.56 1.5 0 2.07l-.55.54a3.04 3.04 0 0 0 0 4.33l3.74 3.74a3.04 3.04 0 0 0 4.33 0l.54-.54a1.45 1.45 0 0 1 2.06 0l1.1 1.08c.56.57.56 1.5 0 2.07"/></g><defs><clipPath id="clip0_2651_158"><rect/></clipPath></defs></symbol><use xlink:href="#sprite-icon-whap" width="40" height="40" y="2088"/><view id="sprite-icon-whap-view" viewBox="0 2088 40 40"/><symbol id="sprite-icon-whatsapp" viewBox="0 0 40 40"><g clip-path="url(#clip0_2254_3340)"><path d="M34.14 5.86a20 20 0 0 0-14.14-5.86 20 20 0 0 0-14.14 5.86 20 20 0 0 0-3.35 23.84l-2.47 8.81a1.17 1.17 0 0 0 1.45 1.45l8.81-2.47a20 20 0 0 0 29.7-17.49c0-5.34-2.08-10.36-5.86-14.14m-14.14 31.8c-3.15 0-6.25-.85-8.95-2.44a1.2 1.2 0 0 0-.9-.12l-7.29 2.04 2.04-7.28c.08-.3.04-.64-.12-.91a17.64 17.64 0 0 1 2.74-21.43 17.68 17.68 0 0 1 30.14 12.48c0 9.74-7.92 17.66-17.66 17.66"/><path d="M28.63 21.5a3.8 3.8 0 0 0-2.69-1.11c-1.02 0-1.97.4-2.69 1.1l-.54.55a.7.7 0 0 1-.5.2.7.7 0 0 1-.51-.2l-3.74-3.74a.7.7 0 0 1-.21-.5q0-.3.2-.51l.55-.55a3.8 3.8 0 0 0 0-5.38l-1.09-1.08a3.8 3.8 0 0 0-2.69-1.11c-1.02 0-1.97.4-2.69 1.1l-.8.82c-1.72 1.71-2.34 4.26-1.76 7.18a16 16 0 0 0 4.42 7.83c2.9 2.9 6.6 4.64 9.89 4.64 2.07 0 3.85-.68 5.13-1.96l.8-.82a3.8 3.8 0 0 0 0-5.37zm-.57 4.8-.8.82a4.8 4.8 0 0 1-3.48 1.27c-2.68 0-5.76-1.47-8.23-3.94a13.4 13.4 0 0 1-3.78-6.64c-.43-2.12-.03-3.92 1.11-5.06l.81-.81a1.45 1.45 0 0 1 2.06 0l1.1 1.08c.56.57.56 1.5 0 2.07l-.55.54a3.04 3.04 0 0 0 0 4.33l3.74 3.74a3.04 3.04 0 0 0 4.33 0l.54-.54a1.45 1.45 0 0 1 2.06 0l1.1 1.08c.56.57.56 1.5 0 2.07"/></g><defs><clipPath id="clip0_2254_3340"><rect/></clipPath></defs></symbol><use xlink:href="#sprite-icon-whatsapp" width="40" height="40" y="2128"/><view id="sprite-icon-whatsapp-view" viewBox="0 2128 40 40"/><symbol id="sprite-icon-zoom-in" viewBox="0 0 14 14"><path d="M14 8h-6v6h-2v-6h-6v-2h6v-6h2v6h6z"/></symbol><use xlink:href="#sprite-icon-zoom-in" width="14" height="14" y="2168"/><view id="sprite-icon-zoom-in-view" viewBox="0 2168 14 14"/><symbol id="sprite-icon-zoom-out" viewBox="0 0 14 2"><path d="M14 2h-14v-2h14z"/></symbol><use xlink:href="#sprite-icon-zoom-out" width="14" height="2" y="2182"/><view id="sprite-icon-zoom-out-view" viewBox="0 2182 14 2"/><symbol id="sprite-mail" viewBox="0 0 40 41"><path d="M35 6.17h-30a3.96 3.96 0 0 0-3.94 3.93v20.25a3.96 3.96 0 0 0 3.94 3.94h30a3.96 3.96 0 0 0 3.94-3.94v-20.31a3.95 3.95 0 0 0-3.94-3.87m0 2.8h.19l-15.19 9.76-15.19-9.75zm0 22.38h-30c-.62 0-1.12-.5-1.12-1.12v-18.5l14.62 9.37q.68.45 1.44.44.77.02 1.43-.44l14.63-9.37v18.56c.13.63-.37 1.06-1 1.06"/></symbol><use xlink:href="#sprite-mail" width="40" height="41" y="2184"/><view id="sprite-mail-view" viewBox="0 2184 40 41"/><symbol id="sprite-moneybox" viewBox="0 0 101 101"><path d="M26.83 41.65a5.03 5.03 0 1 0 10.07-.02 5.03 5.03 0 0 0-10.07.02m7.15 0a2.12 2.12 0 1 1-4.25 0 2.12 2.12 0 0 1 4.25 0"/><path d="M76.43 26.05a1.46 1.46 0 0 0-1.4 2.55c9.99 5.45 15.95 14.24 15.95 23.52 0 8.55-3.42 14.86-11.08 20.47q-.43.33-.56.86l-2.87 12.9h-5.36l-1.7-6.57a1.46 1.46 0 0 0-1.92-1c-4.75 1.77-8.36 2.33-14.83 2.33-6.15 0-10.54-.43-16.14-2.7a1.44 1.44 0 0 0-1.96 1l-1.65 6.94h-5.32l-2.82-13.92c-.07-.37-.3-.7-.61-.91-12.1-8.15-18.23-15.19-18.23-20.9v-5.5c0-2.35 1.67-4.26 3.71-4.26h6.75c.55.05 1.1-.22 1.38-.7a31 31 0 0 1 9-9.35c.4-.27.63-.72.63-1.2v-12.07a12.5 12.5 0 0 1 10.23 7.27 1.45 1.45 0 0 0 2.69-1.12c-1.9-4.55-7.09-9.13-14.38-9.13-.8 0-1.45.65-1.45 1.45v12.86a34 34 0 0 0-8.77 9.08h-6.08c-3.65 0-6.62 3.22-6.62 7.18v5.48c0 9.85 13.76 19.43 19.02 22.98l2.94 14.5c.14.68.73 1.17 1.43 1.17h7.65c.67 0 1.25-.47 1.41-1.12l1.53-6.44c5.31 1.93 9.72 2.32 15.66 2.32 5.48 0 9.36-.32 14.33-1.98l1.6 6.13c.16.64.74 1.09 1.4 1.09h7.65c.68 0 1.27-.48 1.42-1.14l3-13.51c8.06-6.06 11.83-13.22 11.83-22.49 0-10.36-6.53-20.1-17.46-26.07"/><path d="M47.67 30.17c.44.03.85-.15 1.14-.47 1.97-2.16 5.13-3.45 8.46-3.45 3.3 0 6.35 1.28 8.4 3.53.27.3.66.47 1.07.47h.06c.43-.02.83-.22 1.09-.56a13.42 13.42 0 0 0-10.62-21.57 13.42 13.42 0 0 0-10.7 21.48c.27.34.67.55 1.1.57m9.6-19.15a10.5 10.5 0 0 1 9.21 15.53 14.5 14.5 0 0 0-9.21-3.21c-3.5 0-6.79 1.12-9.26 3.13a10.5 10.5 0 0 1 9.25-15.45"/></symbol><use xlink:href="#sprite-moneybox" width="101" height="101" y="2225"/><view id="sprite-moneybox-view" viewBox="0 2225 101 101"/><symbol id="sprite-plane" viewBox="0 0 22 22"><g stroke="#fff" stroke-linecap="round" stroke-linejoin="round" clip-path="url(#clip0_23_110)"><path d="m21 1-11 11m11-11-7 20-4-9-9-4z"/></g><defs><clipPath id="clip0_23_110"><rect/></clipPath></defs></symbol><use xlink:href="#sprite-plane" width="22" height="22" y="2326"/><view id="sprite-plane-view" viewBox="0 2326 22 22"/></svg>