<svg xmlns="http://www.w3.org/2000/svg" xmlns:xlink="http://www.w3.org/1999/xlink"><symbol id="sprite-arrow-right" viewBox="0 0 24 24"><path d="M18.75 12a.75.75 0 0 0-.75-.75h-12a.75.75 0 0 0 0 1.5h12c.41 0 .75-.34.75-.75"/><path d="M11.47 5.47c-.3.3-.3.77 0 1.06l5.47 5.47-5.47 5.47a.75.75 0 1 0 1.06 1.06l6-6c.3-.3.3-.77 0-1.06l-6-6a.75.75 0 0 0-1.06 0"/></symbol><use xlink:href="#sprite-arrow-right" width="24" height="24"/><view id="sprite-arrow-right-view" viewBox="0 0 24 24"/><symbol id="sprite-icon-check" viewBox="0 0 60 60"><g clip-path="url(#clip0_2254_3377)"><path d="M27.5 57.46a27.53 27.53 0 0 1-27.5-27.5 27.53 27.53 0 0 1 27.5-27.5c5.27 0 10.4 1.5 14.83 4.35a1.88 1.88 0 0 1-2.02 3.16 23.78 23.78 0 0 0-36.56 20 23.8 23.8 0 0 0 23.75 23.74 23.8 23.8 0 0 0 23.64-26.07 1.87 1.87 0 1 1 3.73-.36q.13 1.32.13 2.68a27.53 27.53 0 0 1-27.5 27.5"/><path d="M30.62 36.21c-.48 0-.96-.18-1.32-.55l-11.25-11.25a1.88 1.88 0 0 1 2.65-2.65l9.93 9.92 26.17-26.17a1.88 1.88 0 0 1 2.65 2.65l-27.5 27.5c-.37.37-.85.55-1.33.55"/></g><defs><clipPath id="clip0_2254_3377"><rect/></clipPath></defs></symbol><use xlink:href="#sprite-icon-check" width="60" height="60" y="24"/><view id="sprite-icon-check-view" viewBox="0 24 60 60"/><symbol id="sprite-icon-chevron-down" viewBox="0 0 25 24"><path fill-rule="evenodd" d="M12.87 15.66a.56.56 0 0 1-.8 0l-5.74-5.73a.56.56 0 0 1 0-.8l.27-.26a.56.56 0 0 1 .8 0l5.07 5.07 5.07-5.07a.56.56 0 0 1 .8 0l.26.26c.22.22.22.58 0 .8z" clip-rule="evenodd"/></symbol><use xlink:href="#sprite-icon-chevron-down" width="25" height="24" y="84"/><view id="sprite-icon-chevron-down-view" viewBox="0 84 25 24"/><symbol id="sprite-icon-main" viewBox="0 0 60 60"><path fill-rule="evenodd" d="M10 10h40a5 5 0 0 1 5 5v30a5 5 0 0 1-5 5h-40a5 5 0 0 1-5-5v-30a5 5 0 0 1 5-5m24.13 28.63 15.87-11.13v-5.25l-18.37 12.88c-.98.67-2.28.67-3.25 0l-18.38-12.88v5.25l15.88 11.13a7.2 7.2 0 0 0 8.25 0" clip-rule="evenodd"/></symbol><use xlink:href="#sprite-icon-main" width="60" height="60" y="108"/><view id="sprite-icon-main-view" viewBox="0 108 60 60"/><symbol id="sprite-icon-phone" viewBox="0 0 60 60"><path d="M42.5 52.5c-4.13 0-8.2-1.02-11.85-2.97l-1.12-.63a45 45 0 0 1-18.33-18.32l-.62-1.13c-2-3.67-3.06-7.77-3.08-11.95v-1.67a5 5 0 0 1 1.47-3.55l4.23-4.23a1.88 1.88 0 0 1 2.95.38l5.63 9.65c.56.98.4 2.22-.4 3.02l-4.73 4.73c-.4.38-.48.98-.22 1.47l.87 1.65a34 34 0 0 0 13.75 13.73l1.65.9c.49.25 1.09.16 1.47-.23l4.73-4.72a2.5 2.5 0 0 1 3.02-.4l9.66 5.62a1.87 1.87 0 0 1 .37 2.95l-4.23 4.23a5 5 0 0 1-3.55 1.47z"/></symbol><use xlink:href="#sprite-icon-phone" width="60" height="60" y="168"/><view id="sprite-icon-phone-view" viewBox="0 168 60 60"/><symbol id="sprite-icon-pin" viewBox="0 0 60 60"><path d="M30 5c-9.98 0-18.1 8.12-18.1 18.1 0 12.4 16.2 30.59 16.89 31.36.65.72 1.78.72 2.42 0 .7-.77 16.9-18.96 16.9-31.35 0-9.99-8.12-18.11-18.1-18.11m0 27.22a9.12 9.12 0 0 1 0-18.22 9.12 9.12 0 0 1 0 18.22"/></symbol><use xlink:href="#sprite-icon-pin" width="60" height="60" y="228"/><view id="sprite-icon-pin-view" viewBox="0 228 60 60"/><symbol id="sprite-icon-zoom-in" viewBox="0 0 14 14"><path d="M14 8h-6v6h-2v-6h-6v-2h6v-6h2v6h6z"/></symbol><use xlink:href="#sprite-icon-zoom-in" width="14" height="14" y="288"/><view id="sprite-icon-zoom-in-view" viewBox="0 288 14 14"/><symbol id="sprite-icon-zoom-out" viewBox="0 0 14 2"><path d="M14 2h-14v-2h14z"/></symbol><use xlink:href="#sprite-icon-zoom-out" width="14" height="2" y="302"/><view id="sprite-icon-zoom-out-view" viewBox="0 302 14 2"/><symbol id="sprite-mail" viewBox="0 0 40 41"><path d="M35 6.17h-30a3.96 3.96 0 0 0-3.94 3.93v20.25a3.96 3.96 0 0 0 3.94 3.94h30a3.96 3.96 0 0 0 3.94-3.94v-20.31a3.95 3.95 0 0 0-3.94-3.87m0 2.8h.19l-15.19 9.76-15.19-9.75zm0 22.38h-30c-.62 0-1.12-.5-1.12-1.12v-18.5l14.62 9.37q.68.45 1.44.44.77.02 1.43-.44l14.63-9.37v18.56c.13.63-.37 1.06-1 1.06"/></symbol><use xlink:href="#sprite-mail" width="40" height="41" y="304"/><view id="sprite-mail-view" viewBox="0 304 40 41"/><symbol id="sprite-moneybox" viewBox="0 0 101 101"><path d="M26.83 41.65a5.03 5.03 0 1 0 10.07-.02 5.03 5.03 0 0 0-10.07.02m7.15 0a2.12 2.12 0 1 1-4.25 0 2.12 2.12 0 0 1 4.25 0"/><path d="M76.43 26.05a1.46 1.46 0 0 0-1.4 2.55c9.99 5.45 15.95 14.24 15.95 23.52 0 8.55-3.42 14.86-11.08 20.47q-.43.33-.56.86l-2.87 12.9h-5.36l-1.7-6.57a1.46 1.46 0 0 0-1.92-1c-4.75 1.77-8.36 2.33-14.83 2.33-6.15 0-10.54-.43-16.14-2.7a1.44 1.44 0 0 0-1.96 1l-1.65 6.94h-5.32l-2.82-13.92c-.07-.37-.3-.7-.61-.91-12.1-8.15-18.23-15.19-18.23-20.9v-5.5c0-2.35 1.67-4.26 3.71-4.26h6.75c.55.05 1.1-.22 1.38-.7a31 31 0 0 1 9-9.35c.4-.27.63-.72.63-1.2v-12.07a12.5 12.5 0 0 1 10.23 7.27 1.45 1.45 0 0 0 2.69-1.12c-1.9-4.55-7.09-9.13-14.38-9.13-.8 0-1.45.65-1.45 1.45v12.86a34 34 0 0 0-8.77 9.08h-6.08c-3.65 0-6.62 3.22-6.62 7.18v5.48c0 9.85 13.76 19.43 19.02 22.98l2.94 14.5c.14.68.73 1.17 1.43 1.17h7.65c.67 0 1.25-.47 1.41-1.12l1.53-6.44c5.31 1.93 9.72 2.32 15.66 2.32 5.48 0 9.36-.32 14.33-1.98l1.6 6.13c.16.64.74 1.09 1.4 1.09h7.65c.68 0 1.27-.48 1.42-1.14l3-13.51c8.06-6.06 11.83-13.22 11.83-22.49 0-10.36-6.53-20.1-17.46-26.07"/><path d="M47.67 30.17c.44.03.85-.15 1.14-.47 1.97-2.16 5.13-3.45 8.46-3.45 3.3 0 6.35 1.28 8.4 3.53.27.3.66.47 1.07.47h.06c.43-.02.83-.22 1.09-.56a13.42 13.42 0 0 0-10.62-21.57 13.42 13.42 0 0 0-10.7 21.48c.27.34.67.55 1.1.57m9.6-19.15a10.5 10.5 0 0 1 9.21 15.53 14.5 14.5 0 0 0-9.21-3.21c-3.5 0-6.79 1.12-9.26 3.13a10.5 10.5 0 0 1 9.25-15.45"/></symbol><use xlink:href="#sprite-moneybox" width="101" height="101" y="345"/><view id="sprite-moneybox-view" viewBox="0 345 101 101"/><symbol id="sprite-plane" viewBox="0 0 22 22"><g stroke="#fff" stroke-linecap="round" stroke-linejoin="round" clip-path="url(#clip0_23_110)"><path d="m21 1-11 11m11-11-7 20-4-9-9-4z"/></g><defs><clipPath id="clip0_23_110"><rect/></clipPath></defs></symbol><use xlink:href="#sprite-plane" width="22" height="22" y="446"/><view id="sprite-plane-view" viewBox="0 446 22 22"/></svg>