<svg xmlns="http://www.w3.org/2000/svg" xmlns:xlink="http://www.w3.org/1999/xlink"><symbol id="sprite-arrow-right" viewBox="0 0 24 24"><path d="M18.75 12a.75.75 0 0 0-.75-.75h-12a.75.75 0 0 0 0 1.5h12c.41 0 .75-.34.75-.75"/><path d="M11.47 5.47c-.3.3-.3.77 0 1.06l5.47 5.47-5.47 5.47a.75.75 0 1 0 1.06 1.06l6-6c.3-.3.3-.77 0-1.06l-6-6a.75.75 0 0 0-1.06 0"/></symbol><use xlink:href="#sprite-arrow-right" width="24" height="24"/><view id="sprite-arrow-right-view" viewBox="0 0 24 24"/><symbol id="sprite-icon-check" viewBox="0 0 60 60"><g clip-path="url(#clip0_2254_3377)"><path d="M27.5 57.46a27.53 27.53 0 0 1-27.5-27.5 27.53 27.53 0 0 1 27.5-27.5c5.27 0 10.4 1.5 14.83 4.35a1.88 1.88 0 0 1-2.02 3.16 23.78 23.78 0 0 0-36.56 20 23.8 23.8 0 0 0 23.75 23.74 23.8 23.8 0 0 0 23.64-26.07 1.87 1.87 0 1 1 3.73-.36q.13 1.32.13 2.68a27.53 27.53 0 0 1-27.5 27.5"/><path d="M30.62 36.21c-.48 0-.96-.18-1.32-.55l-11.25-11.25a1.88 1.88 0 0 1 2.65-2.65l9.93 9.92 26.17-26.17a1.88 1.88 0 0 1 2.65 2.65l-27.5 27.5c-.37.37-.85.55-1.33.55"/></g><defs><clipPath id="clip0_2254_3377"><rect/></clipPath></defs></symbol><use xlink:href="#sprite-icon-check" width="60" height="60" y="24"/><view id="sprite-icon-check-view" viewBox="0 24 60 60"/><symbol id="sprite-icon-chevron-down" viewBox="0 0 25 24"><path fill-rule="evenodd" d="M12.87 15.66a.56.56 0 0 1-.8 0l-5.74-5.73a.56.56 0 0 1 0-.8l.27-.26a.56.56 0 0 1 .8 0l5.07 5.07 5.07-5.07a.56.56 0 0 1 .8 0l.26.26c.22.22.22.58 0 .8z" clip-rule="evenodd"/></symbol><use xlink:href="#sprite-icon-chevron-down" width="25" height="24" y="84"/><view id="sprite-icon-chevron-down-view" viewBox="0 84 25 24"/><symbol id="sprite-icon-email" viewBox="0 0 40 40"><path d="M38.8 6.83h-37.6c-.66 0-1.2.53-1.2 1.2v23.95c0 .66.54 1.2 1.2 1.2h37.6c.66 0 1.2-.54 1.2-1.2v-23.96c0-.66-.54-1.2-1.2-1.2m-3.43 2.4-15.37 12.2-15.37-12.2zm-32.97 1.27 11.52 9.16-11.52 9.74zm2.07 20.28 11.36-9.6 3.43 2.71a1.2 1.2 0 0 0 1.49 0l3.42-2.71 11.36 9.6zm33.13-1.38-11.52-9.74 11.52-9.16z"/></symbol><use xlink:href="#sprite-icon-email" width="40" height="40" y="108"/><view id="sprite-icon-email-view" viewBox="0 108 40 40"/><symbol id="sprite-icon-mail-2" viewBox="0 0 40 40"><path d="M35 6h-30a3.96 3.96 0 0 0-3.94 3.94v20.25a3.96 3.96 0 0 0 3.94 3.93h30a3.96 3.96 0 0 0 3.94-3.93v-20.32a3.95 3.95 0 0 0-3.94-3.87m0 2.81h.19l-15.19 9.75-15.19-9.75zm0 22.38h-30c-.62 0-1.12-.5-1.12-1.13v-18.5l14.62 9.38q.68.45 1.44.43.77.02 1.43-.43l14.63-9.38v18.56c.13.63-.37 1.07-1 1.07"/></symbol><use xlink:href="#sprite-icon-mail-2" width="40" height="40" y="148"/><view id="sprite-icon-mail-2-view" viewBox="0 148 40 40"/><symbol id="sprite-icon-main" viewBox="0 0 60 60"><path fill-rule="evenodd" d="M10 10h40a5 5 0 0 1 5 5v30a5 5 0 0 1-5 5h-40a5 5 0 0 1-5-5v-30a5 5 0 0 1 5-5m24.13 28.63 15.87-11.13v-5.25l-18.37 12.88c-.98.67-2.28.67-3.25 0l-18.38-12.88v5.25l15.88 11.13a7.2 7.2 0 0 0 8.25 0" clip-rule="evenodd"/></symbol><use xlink:href="#sprite-icon-main" width="60" height="60" y="188"/><view id="sprite-icon-main-view" viewBox="0 188 60 60"/><symbol id="sprite-icon-phone-2" viewBox="0 0 40 40"><path d="M30.37 38.06c-5.06 0-12.25-3.62-18.87-9.87-9-8.63-12.81-18.25-8.81-22.5q.29-.3.68-.5l5.07-2.88a2.9 2.9 0 0 1 3.8.88l3.7 5.25c.43.62.62 1.37.43 2.12a2.8 2.8 0 0 1-1.18 1.75l-2.2 1.44a45 45 0 0 0 13.5 12.81c.07.07.13 0 .13 0l1.57-2.12a2.9 2.9 0 0 1 3.87-.69l5.5 3.5c1.31.81 1.69 2.5.88 3.81l-3 4.82c-.2.24-.38.5-.57.68a6.6 6.6 0 0 1-4.5 1.5m-20.5-33.31-5.12 2.88c-2.38 2.56.56 10.75 8.75 18.5 8.31 7.87 16.87 10.68 19.62 8.3l3-4.8-5.5-3.5h-.12l-1.56 2.12a2.9 2.9 0 0 1-3.82.75 48 48 0 0 1-14.43-13.75 2.7 2.7 0 0 1-.44-2.06 2.5 2.5 0 0 1 1.19-1.75l2.18-1.44-3.62-5.19c-.06 0-.13-.06-.13-.06"/></symbol><use xlink:href="#sprite-icon-phone-2" width="40" height="40" y="248"/><view id="sprite-icon-phone-2-view" viewBox="0 248 40 40"/><symbol id="sprite-icon-phone-3" viewBox="0 0 40 40"><path d="m37.63 34.5-1.13-11.31a4 4 0 0 0-4-3.63h-25a4.05 4.05 0 0 0-4 3.63l-1.12 11.31a4 4 0 0 0 1 3.06 4 4 0 0 0 2.93 1.31h27.25c1.13 0 2.19-.5 2.94-1.3a3.8 3.8 0 0 0 1.13-3.07m-3.13 1.19q-.39.37-.87.37h-27.25q-.5 0-.88-.37c-.25-.25-.31-.56-.31-.94l1.12-11.31c.07-.63.57-1.07 1.19-1.07h25c.63 0 1.13.44 1.19 1.07l1.12 11.31c0 .38-.06.69-.31.94"/><path d="M20 24.56a4.68 4.68 0 1 0-.01 9.39 4.68 4.68 0 0 0 .01-9.39m0 6.57a1.9 1.9 0 0 1-1.87-1.88 1.87 1.87 0 0 1 3.75 0c0 1.06-.82 1.88-1.88 1.88m-16.19-18.25a4.37 4.37 0 0 0 4.13 4.18h4.43c2-.12 4-1.43 4-4.18v-1.2h8.25v1.2c0 2.74 2 4.06 4 4.18h4.44c1.69 0 4-1.43 4.13-4.18v-2.76a7.4 7.4 0 0 0-1.94-4.5l-.06-.06a14 14 0 0 0-4.94-2.81c-4.25-1.62-9.56-1.62-9.81-1.62-3.75.06-6.13.37-9.75 1.62a16 16 0 0 0-5 2.81l-.07.07a7.4 7.4 0 0 0-1.93 4.5v.18a32 32 0 0 1 .12 2.56m3.88-5.26a13 13 0 0 1 4-2.24c3.25-1.2 5.31-1.38 8.81-1.5.31 0 5.06.06 8.81 1.5 1.32.5 2.82 1.12 4 2.25.63.68 1 1.62 1.13 2.68v2.44c-.06 1.31-1.31 1.5-1.31 1.5h-4.32c-.62-.06-1.31-.31-1.31-1.37v-2.57c0-.62-.37-1.19-1-1.31-.44-.25-11.5-.25-11.94-.06-.56.19-1 .75-1 1.31v2.63c0 1.06-.69 1.3-1.31 1.37h-4.31s-1.25-.19-1.32-1.44v-2.44a4.2 4.2 0 0 1 1.07-2.74"/></symbol><use xlink:href="#sprite-icon-phone-3" width="40" height="40" y="288"/><view id="sprite-icon-phone-3-view" viewBox="0 288 40 40"/><symbol id="sprite-icon-phone" viewBox="0 0 60 60"><path d="M42.5 52.5c-4.13 0-8.2-1.02-11.85-2.97l-1.12-.63a45 45 0 0 1-18.33-18.32l-.62-1.13c-2-3.67-3.06-7.77-3.08-11.95v-1.67a5 5 0 0 1 1.47-3.55l4.23-4.23a1.88 1.88 0 0 1 2.95.38l5.63 9.65c.56.98.4 2.22-.4 3.02l-4.73 4.73c-.4.38-.48.98-.22 1.47l.87 1.65a34 34 0 0 0 13.75 13.73l1.65.9c.49.25 1.09.16 1.47-.23l4.73-4.72a2.5 2.5 0 0 1 3.02-.4l9.66 5.62a1.87 1.87 0 0 1 .37 2.95l-4.23 4.23a5 5 0 0 1-3.55 1.47z"/></symbol><use xlink:href="#sprite-icon-phone" width="60" height="60" y="328"/><view id="sprite-icon-phone-view" viewBox="0 328 60 60"/><symbol id="sprite-icon-pin" viewBox="0 0 60 60"><path d="M30 5c-9.98 0-18.1 8.12-18.1 18.1 0 12.4 16.2 30.59 16.89 31.36.65.72 1.78.72 2.42 0 .7-.77 16.9-18.96 16.9-31.35 0-9.99-8.12-18.11-18.1-18.11m0 27.22a9.12 9.12 0 0 1 0-18.22 9.12 9.12 0 0 1 0 18.22"/></symbol><use xlink:href="#sprite-icon-pin" width="60" height="60" y="388"/><view id="sprite-icon-pin-view" viewBox="0 388 60 60"/><symbol id="sprite-icon-telegram" viewBox="0 0 40 40"><g clip-path="url(#clip0_2660_165)"><path d="M39.22 3.28a2.4 2.4 0 0 0-2.39-.52l-35.17 11.6a2.4 2.4 0 0 0-1.66 2.18 2.4 2.4 0 0 0 1.45 2.32l8.7 3.8 2.62 12.18c.1.5.36.96.9 1.1.56.14.95-.17 1.36-.47l6.45-4.84 7.55 6.18a2.4 2.4 0 0 0 2.3.42 2.4 2.4 0 0 0 1.58-1.74l7.03-29.88c.2-.85-.08-1.74-.72-2.33m-23.63 21.57-.01.04-1.46 5.08-1.62-7.53 11.16-6.2-7.8 8.16q-.2.2-.27.45m.46 6.92.66-2.31.63-2.21 2.27 1.85zm21.6-26.7-7.03 29.89q.01.02-.04.04h-.06l-8.26-6.77-3.83-3.13 12.3-12.85a1.17 1.17 0 0 0-1.43-1.84l-18.2 10.11-8.71-3.8q-.04-.02-.04-.07t.04-.06l35.18-11.6.06.02q.03.04.02.06"/></g><defs><clipPath id="clip0_2660_165"><rect/></clipPath></defs></symbol><use xlink:href="#sprite-icon-telegram" width="40" height="40" y="448"/><view id="sprite-icon-telegram-view" viewBox="0 448 40 40"/><symbol id="sprite-icon-telephone" viewBox="0 0 40 40"><g clip-path="url(#clip0_2660_173)"><path d="M31.61 24.78a4 4 0 0 0-2.85-1.31c-1.04 0-2.04.45-2.89 1.3l-2.67 2.66-.65-.34q-.46-.22-.83-.45a29 29 0 0 1-6.95-6.33 17 17 0 0 1-2.28-3.6q1.03-.96 1.96-1.92.36-.35.7-.72c1.78-1.77 1.78-4.07 0-5.84l-2.3-2.3-.78-.8q-.76-.8-1.59-1.58a4 4 0 0 0-2.83-1.24c-1.03 0-2.02.43-2.87 1.24l-.01.02-2.87 2.9a6.2 6.2 0 0 0-1.84 3.92 15 15 0 0 0 1.08 6.27 36 36 0 0 0 6.46 10.77 40 40 0 0 0 13.23 10.36c1.94.92 4.54 2 7.43 2.2l.53.01q2.94 0 4.87-2.1l.04-.04c.44-.53.94-1 1.48-1.52q.54-.52 1.1-1.1a4.2 4.2 0 0 0 1.27-2.91c0-1.05-.45-2.06-1.3-2.9zm3.03 8.89q-.01 0 0 0l-1.03 1.03a22 22 0 0 0-1.63 1.69 4 4 0 0 1-3.18 1.34h-.39c-2.5-.17-4.83-1.15-6.58-1.98a37.5 37.5 0 0 1-12.46-9.76 34 34 0 0 1-6.08-10.13 12 12 0 0 1-.95-5.28q.13-1.47 1.17-2.5l2.88-2.89q.63-.6 1.28-.6c.53 0 .96.32 1.23.6l.03.02q.75.72 1.52 1.51l.8.82 2.3 2.3c.9.9.9 1.73 0 2.62l-.72.73q-1.04 1.08-2.12 2.06l-.04.04c-.73.73-.6 1.43-.44 1.92l.02.07a19 19 0 0 0 2.73 4.45 31 31 0 0 0 7.5 6.83q.53.32 1.04.57.47.23.84.44l.1.06q.43.22.84.21c.7 0 1.14-.44 1.28-.58l2.89-2.89c.28-.28.74-.63 1.27-.63s.96.33 1.22.62l.02.01 4.65 4.66q1.3 1.29 0 2.64m-13.01-24.16a10.7 10.7 0 0 1 5.82 3.03c1.6 1.6 2.65 3.61 3.03 5.82.09.56.57.95 1.12.95l.2-.02c.62-.1 1.03-.7.93-1.32a13 13 0 0 0-3.66-7.05 13 13 0 0 0-7.05-3.65c-.62-.1-1.2.31-1.31.93-.11.61.3 1.21.92 1.31m18.33 8.13a21.4 21.4 0 0 0-6.02-11.6 21.4 21.4 0 0 0-11.6-6.02 1.14 1.14 0 1 0-.38 2.24c3.94.67 7.53 2.54 10.38 5.38a19 19 0 0 1 5.38 10.38c.09.55.57.94 1.12.94l.2-.02c.61-.09 1.03-.68.92-1.3"/></g><defs><clipPath id="clip0_2660_173"><rect/></clipPath></defs></symbol><use xlink:href="#sprite-icon-telephone" width="40" height="40" y="488"/><view id="sprite-icon-telephone-view" viewBox="0 488 40 40"/><symbol id="sprite-icon-tg-2" viewBox="0 0 32 32"><path d="M26.07 4q-.51.03-.93.22c-.3.11-1.65.68-3.7 1.55l-7.39 3.1-10.5 4.43.06-.02s-.36.11-.73.37q-.3.18-.6.57c-.17.27-.32.68-.27 1.1.1.73.56 1.16.9 1.4s.66.36.66.36l4.9 1.64 1.78 5.84c.18.57.36.93.58 1.2q.15.22.38.36l.24.1h-.05l.04.01.12.02c.77.24 1.4-.24 1.4-.24l.03-.03 2.88-2.62 4.83 3.7.11.05c1.01.44 2.03.2 2.57-.24s.75-1 .75-1l.04-.08 3.73-19.13c.1-.48.14-.92.02-1.35a1.8 1.8 0 0 0-1.85-1.31m-.1 2.05-.02.17v.01l-3.7 18.93q-.02.05-.12.15c-.08.06-.14.1-.46-.03l-5.91-4.53-3.57 3.25.75-4.79s9.26-8.62 9.65-9c.4-.37.27-.44.27-.44.03-.46-.6-.14-.6-.14l-12.18 7.55v-.02l-5.84-1.97h-.01l.03-.02.03-.01.03-.02 10.5-4.42 7.39-3.11 3.66-1.53c.08-.03.04-.03.1-.03"/></symbol><use xlink:href="#sprite-icon-tg-2" width="800" height="800" y="528"/><view id="sprite-icon-tg-2-view" viewBox="0 528 800 800"/><symbol id="sprite-icon-tg" viewBox="0 0 40 40"><g clip-path="url(#clip0_2254_3338)"><path d="M39.39 4.3a2.6 2.6 0 0 0-2.07-.93q-.68 0-1.43.28l-33.86 12.83c-1.8.69-2.05 1.71-2.03 2.26s.31 1.56 2.13 2.14l7.18 2.63 3.78 8.66c.38 1.2 1.18 2.04 2.2 2.32q.35.09.7.09c.83 0 1.67-.36 2.4-1.05l3.14-2.94 7.65 5.26q1.05.77 2.17.78c1.48 0 2.67-1.09 3.02-2.77l5.53-26.78c.23-1.1.05-2.1-.51-2.78m-27.7 18.8 9.77-5.24-6.81 6.25c-.24.22-.38.54-.38.86v.04l-.02 3.95zm5.1 8.72-.22.18.03-4.8 2.95 2.03zm20.82-25.22-5.54 26.79c-.05.27-.24.9-.72.9a1.4 1.4 0 0 1-.82-.36l-8.44-5.8-4.77-3.29 12.6-11.55a1.17 1.17 0 0 0-1.35-1.9l-18.48 9.91-7.18-2.63h-.02l33.83-12.83q.43-.14.6-.13c.06 0 .2.01.25.07.06.08.14.33.04.82"/></g><defs><clipPath id="clip0_2254_3338"><rect/></clipPath></defs></symbol><use xlink:href="#sprite-icon-tg" width="40" height="40" y="1328"/><view id="sprite-icon-tg-view" viewBox="0 1328 40 40"/><symbol id="sprite-icon-tgm" viewBox="0 0 40 40"><g clip-path="url(#clip0_2651_159)"><path d="M39.39 4.3a2.6 2.6 0 0 0-2.07-.93q-.68 0-1.43.28l-33.86 12.83c-1.8.69-2.05 1.71-2.03 2.26s.31 1.56 2.13 2.14l7.18 2.63 3.78 8.66c.38 1.2 1.18 2.04 2.2 2.32q.35.09.7.09c.83 0 1.67-.36 2.4-1.05l3.14-2.94 7.65 5.26q1.05.77 2.17.78c1.48 0 2.67-1.09 3.02-2.77l5.53-26.78c.23-1.1.05-2.1-.51-2.78m-27.7 18.8 9.77-5.24-6.81 6.25c-.24.22-.38.54-.38.86v.04l-.02 3.95zm5.1 8.72-.22.18.03-4.8 2.95 2.03zm20.82-25.22-5.54 26.79c-.05.27-.24.9-.72.9a1.4 1.4 0 0 1-.82-.36l-8.44-5.8-4.77-3.29 12.6-11.55a1.17 1.17 0 0 0-1.35-1.9l-18.48 9.91-7.18-2.63h-.02l33.83-12.83q.43-.14.6-.13c.06 0 .2.01.25.07.06.08.14.33.04.82"/></g><defs><clipPath id="clip0_2651_159"><rect/></clipPath></defs></symbol><use xlink:href="#sprite-icon-tgm" width="40" height="40" y="1368"/><view id="sprite-icon-tgm-view" viewBox="0 1368 40 40"/><symbol id="sprite-icon-whap-2" viewBox="0 0 24 24"><path d="M17.6 6.32a7.85 7.85 0 0 0-9.56-1.26 7.94 7.94 0 0 0-2.92 10.83l-1.12 4.11 4.2-1.1c1.16.65 2.46.99 3.79 1a8 8 0 0 0 8-7.93 8 8 0 0 0-2.39-5.65m-5.6 12.21a6.6 6.6 0 0 1-3.36-.92l-.24-.15-2.49.66.66-2.43-.16-.25a6.6 6.6 0 0 1 10.25-8.17 6.7 6.7 0 0 1 2 4.66 6.66 6.66 0 0 1-6.66 6.6m3.61-4.94c-.2-.1-1.17-.58-1.35-.64s-.32-.1-.45.1a9 9 0 0 1-.63.77q-.15.22-.43 0a5.3 5.3 0 0 1-2.69-2.35c-.21-.35.2-.33.58-1.08a.4.4 0 0 0 0-.35c0-.1-.45-1.08-.61-1.47s-.32-.33-.45-.34h-.39a.7.7 0 0 0-.53.25 2.2 2.2 0 0 0-.66 1.69c.06.75.34 1.46.81 2.05a9 9 0 0 0 3.39 3c.72.42 1.55.6 2.38.5a2 2 0 0 0 1.33-.94q.2-.46.12-.94c-.09-.1-.22-.15-.42-.25"/></symbol><use xlink:href="#sprite-icon-whap-2" width="800" height="800" y="1408"/><view id="sprite-icon-whap-2-view" viewBox="0 1408 800 800"/><symbol id="sprite-icon-whatsapp" viewBox="0 0 40 40"><g clip-path="url(#clip0_2660_158)"><path d="m30.01 24.08-2.12-2.12a2.74 2.74 0 0 0-4.2.38l-.74 1.06c-1-.18-2.95-.68-4.31-2.04a8.3 8.3 0 0 1-2.04-4.3l1.06-.74a2.74 2.74 0 0 0 .38-4.21l-2.12-2.12a2.7 2.7 0 0 0-3.2-.5 6.6 6.6 0 0 0-3.43 5.07c-.59 3.77 1.16 8.22 4.54 11.6 2.96 2.96 6.72 4.66 10.13 4.66q.75 0 1.48-.1a6.6 6.6 0 0 0 5.08-3.44 2.7 2.7 0 0 0-.51-3.2m-1.65 2.08a4.3 4.3 0 0 1-3.3 2.15c-2.97.46-6.7-1.05-9.5-3.86-2.82-2.81-4.33-6.54-3.87-9.52a4.3 4.3 0 0 1 2.15-3.29l.13-.03q.13 0 .23.1l2.12 2.12q.12.14.1.25 0 .12-.14.24l-1.68 1.16a1.2 1.2 0 0 0-.52 1.08c.01.16.29 3.96 2.84 6.52 2.56 2.55 6.36 2.83 6.52 2.84.43.02.83-.17 1.08-.52l1.16-1.68q.12-.14.24-.13.1-.03.25.09l2.12 2.12c.1.1.13.25.07.36"/><path d="M34.14 5.86a20 20 0 0 0-14.14-5.86 20 20 0 0 0-14.14 5.86 20.05 20.05 0 0 0-3.13 24.23l-2.09 7.78a1.21 1.21 0 0 0 1.49 1.49l7.78-2.09a20 20 0 0 0 12.27 2.61c4.5-.49 8.75-2.53 11.96-5.74a20 20 0 0 0 5.86-14.14c0-5.34-2.08-10.36-5.86-14.14m-1.72 26.57a17.5 17.5 0 0 1-21.69 2.5 1.2 1.2 0 0 0-.95-.14l-6.25 1.68 1.68-6.25c.08-.32.03-.67-.15-.95a17.5 17.5 0 0 1 2.51-21.7 17.6 17.6 0 0 1 24.85 0 17.6 17.6 0 0 1 0 24.86"/></g><defs><clipPath id="clip0_2660_158"><rect/></clipPath></defs></symbol><use xlink:href="#sprite-icon-whatsapp" width="40" height="40" y="2208"/><view id="sprite-icon-whatsapp-view" viewBox="0 2208 40 40"/><symbol id="sprite-icon-zoom-in" viewBox="0 0 14 14"><path d="M14 8h-6v6h-2v-6h-6v-2h6v-6h2v6h6z"/></symbol><use xlink:href="#sprite-icon-zoom-in" width="14" height="14" y="2248"/><view id="sprite-icon-zoom-in-view" viewBox="0 2248 14 14"/><symbol id="sprite-icon-zoom-out" viewBox="0 0 14 2"><path d="M14 2h-14v-2h14z"/></symbol><use xlink:href="#sprite-icon-zoom-out" width="14" height="2" y="2262"/><view id="sprite-icon-zoom-out-view" viewBox="0 2262 14 2"/><symbol id="sprite-mail" viewBox="0 0 40 41"><path d="M35 6.17h-30a3.96 3.96 0 0 0-3.94 3.93v20.25a3.96 3.96 0 0 0 3.94 3.94h30a3.96 3.96 0 0 0 3.94-3.94v-20.31a3.95 3.95 0 0 0-3.94-3.87m0 2.8h.19l-15.19 9.76-15.19-9.75zm0 22.38h-30c-.62 0-1.12-.5-1.12-1.12v-18.5l14.62 9.37q.68.45 1.44.44.77.02 1.43-.44l14.63-9.37v18.56c.13.63-.37 1.06-1 1.06"/></symbol><use xlink:href="#sprite-mail" width="40" height="41" y="2264"/><view id="sprite-mail-view" viewBox="0 2264 40 41"/><symbol id="sprite-moneybox" viewBox="0 0 101 101"><path d="M26.83 41.65a5.03 5.03 0 1 0 10.07-.02 5.03 5.03 0 0 0-10.07.02m7.15 0a2.12 2.12 0 1 1-4.25 0 2.12 2.12 0 0 1 4.25 0"/><path d="M76.43 26.05a1.46 1.46 0 0 0-1.4 2.55c9.99 5.45 15.95 14.24 15.95 23.52 0 8.55-3.42 14.86-11.08 20.47q-.43.33-.56.86l-2.87 12.9h-5.36l-1.7-6.57a1.46 1.46 0 0 0-1.92-1c-4.75 1.77-8.36 2.33-14.83 2.33-6.15 0-10.54-.43-16.14-2.7a1.44 1.44 0 0 0-1.96 1l-1.65 6.94h-5.32l-2.82-13.92c-.07-.37-.3-.7-.61-.91-12.1-8.15-18.23-15.19-18.23-20.9v-5.5c0-2.35 1.67-4.26 3.71-4.26h6.75c.55.05 1.1-.22 1.38-.7a31 31 0 0 1 9-9.35c.4-.27.63-.72.63-1.2v-12.07a12.5 12.5 0 0 1 10.23 7.27 1.45 1.45 0 0 0 2.69-1.12c-1.9-4.55-7.09-9.13-14.38-9.13-.8 0-1.45.65-1.45 1.45v12.86a34 34 0 0 0-8.77 9.08h-6.08c-3.65 0-6.62 3.22-6.62 7.18v5.48c0 9.85 13.76 19.43 19.02 22.98l2.94 14.5c.14.68.73 1.17 1.43 1.17h7.65c.67 0 1.25-.47 1.41-1.12l1.53-6.44c5.31 1.93 9.72 2.32 15.66 2.32 5.48 0 9.36-.32 14.33-1.98l1.6 6.13c.16.64.74 1.09 1.4 1.09h7.65c.68 0 1.27-.48 1.42-1.14l3-13.51c8.06-6.06 11.83-13.22 11.83-22.49 0-10.36-6.53-20.1-17.46-26.07"/><path d="M47.67 30.17c.44.03.85-.15 1.14-.47 1.97-2.16 5.13-3.45 8.46-3.45 3.3 0 6.35 1.28 8.4 3.53.27.3.66.47 1.07.47h.06c.43-.02.83-.22 1.09-.56a13.42 13.42 0 0 0-10.62-21.57 13.42 13.42 0 0 0-10.7 21.48c.27.34.67.55 1.1.57m9.6-19.15a10.5 10.5 0 0 1 9.21 15.53 14.5 14.5 0 0 0-9.21-3.21c-3.5 0-6.79 1.12-9.26 3.13a10.5 10.5 0 0 1 9.25-15.45"/></symbol><use xlink:href="#sprite-moneybox" width="101" height="101" y="2305"/><view id="sprite-moneybox-view" viewBox="0 2305 101 101"/><symbol id="sprite-plane" viewBox="0 0 22 22"><g stroke="#fff" stroke-linecap="round" stroke-linejoin="round" clip-path="url(#clip0_23_110)"><path d="m21 1-11 11m11-11-7 20-4-9-9-4z"/></g><defs><clipPath id="clip0_23_110"><rect/></clipPath></defs></symbol><use xlink:href="#sprite-plane" width="22" height="22" y="2406"/><view id="sprite-plane-view" viewBox="0 2406 22 22"/></svg>