<svg xmlns="http://www.w3.org/2000/svg" xmlns:xlink="http://www.w3.org/1999/xlink"><symbol id="sprite-arrow-right" viewBox="0 0 24 24"><path d="M18.75 12a.75.75 0 0 0-.75-.75h-12a.75.75 0 0 0 0 1.5h12c.41 0 .75-.34.75-.75"/><path d="M11.47 5.47c-.3.3-.3.77 0 1.06l5.47 5.47-5.47 5.47a.75.75 0 1 0 1.06 1.06l6-6c.3-.3.3-.77 0-1.06l-6-6a.75.75 0 0 0-1.06 0"/></symbol><use xlink:href="#sprite-arrow-right" width="24" height="24"/><view id="sprite-arrow-right-view" viewBox="0 0 24 24"/><symbol id="sprite-icon-check" viewBox="0 0 60 60"><g clip-path="url(#clip0_2254_3377)"><path d="M27.5 57.46a27.53 27.53 0 0 1-27.5-27.5 27.53 27.53 0 0 1 27.5-27.5c5.27 0 10.4 1.5 14.83 4.35a1.88 1.88 0 0 1-2.02 3.16 23.78 23.78 0 0 0-36.56 20 23.8 23.8 0 0 0 23.75 23.74 23.8 23.8 0 0 0 23.64-26.07 1.87 1.87 0 1 1 3.73-.36q.13 1.32.13 2.68a27.53 27.53 0 0 1-27.5 27.5"/><path d="M30.62 36.21c-.48 0-.96-.18-1.32-.55l-11.25-11.25a1.88 1.88 0 0 1 2.65-2.65l9.93 9.92 26.17-26.17a1.88 1.88 0 0 1 2.65 2.65l-27.5 27.5c-.37.37-.85.55-1.33.55"/></g><defs><clipPath id="clip0_2254_3377"><rect/></clipPath></defs></symbol><use xlink:href="#sprite-icon-check" width="60" height="60" y="24"/><view id="sprite-icon-check-view" viewBox="0 24 60 60"/><symbol id="sprite-icon-chevron-down" viewBox="0 0 25 24"><path fill-rule="evenodd" d="M12.87 15.66a.56.56 0 0 1-.8 0l-5.74-5.73a.56.56 0 0 1 0-.8l.27-.26a.56.56 0 0 1 .8 0l5.07 5.07 5.07-5.07a.56.56 0 0 1 .8 0l.26.26c.22.22.22.58 0 .8z" clip-rule="evenodd"/></symbol><use xlink:href="#sprite-icon-chevron-down" width="25" height="24" y="84"/><view id="sprite-icon-chevron-down-view" viewBox="0 84 25 24"/><symbol id="sprite-icon-pin" viewBox="0 0 60 60"><path d="M30 5c-9.98 0-18.1 8.12-18.1 18.1 0 12.4 16.2 30.59 16.89 31.36.65.72 1.78.72 2.42 0 .7-.77 16.9-18.96 16.9-31.35 0-9.99-8.12-18.11-18.1-18.11m0 27.22a9.12 9.12 0 0 1 0-18.22 9.12 9.12 0 0 1 0 18.22"/></symbol><use xlink:href="#sprite-icon-pin" width="60" height="60" y="108"/><view id="sprite-icon-pin-view" viewBox="0 108 60 60"/><symbol id="sprite-icon-zoom-in" viewBox="0 0 14 14"><path d="M14 8h-6v6h-2v-6h-6v-2h6v-6h2v6h6z"/></symbol><use xlink:href="#sprite-icon-zoom-in" width="14" height="14" y="168"/><view id="sprite-icon-zoom-in-view" viewBox="0 168 14 14"/><symbol id="sprite-icon-zoom-out" viewBox="0 0 14 2"><path d="M14 2h-14v-2h14z"/></symbol><use xlink:href="#sprite-icon-zoom-out" width="14" height="2" y="182"/><view id="sprite-icon-zoom-out-view" viewBox="0 182 14 2"/></svg>