<svg xmlns="http://www.w3.org/2000/svg" xmlns:xlink="http://www.w3.org/1999/xlink"><symbol id="sprite-arrow-right" viewBox="0 0 24 24"><path d="M18.75 12a.75.75 0 0 0-.75-.75h-12a.75.75 0 0 0 0 1.5h12c.41 0 .75-.34.75-.75"/><path d="M11.47 5.47c-.3.3-.3.77 0 1.06l5.47 5.47-5.47 5.47a.75.75 0 1 0 1.06 1.06l6-6c.3-.3.3-.77 0-1.06l-6-6a.75.75 0 0 0-1.06 0"/></symbol><use xlink:href="#sprite-arrow-right" width="24" height="24"/><view id="sprite-arrow-right-view" viewBox="0 0 24 24"/><symbol id="sprite-icon-check" viewBox="0 0 60 60"><g clip-path="url(#clip0_2254_3377)"><path d="M27.5 57.46a27.53 27.53 0 0 1-27.5-27.5 27.53 27.53 0 0 1 27.5-27.5c5.27 0 10.4 1.5 14.83 4.35a1.88 1.88 0 0 1-2.02 3.16 23.78 23.78 0 0 0-36.56 20 23.8 23.8 0 0 0 23.75 23.74 23.8 23.8 0 0 0 23.64-26.07 1.87 1.87 0 1 1 3.73-.36q.13 1.32.13 2.68a27.53 27.53 0 0 1-27.5 27.5"/><path d="M30.62 36.21c-.48 0-.96-.18-1.32-.55l-11.25-11.25a1.88 1.88 0 0 1 2.65-2.65l9.93 9.92 26.17-26.17a1.88 1.88 0 0 1 2.65 2.65l-27.5 27.5c-.37.37-.85.55-1.33.55"/></g><defs><clipPath id="clip0_2254_3377"><rect/></clipPath></defs></symbol><use xlink:href="#sprite-icon-check" width="60" height="60" y="24"/><view id="sprite-icon-check-view" viewBox="0 24 60 60"/><symbol id="sprite-icon-chevron-down" viewBox="0 0 25 24"><path fill-rule="evenodd" d="M12.87 15.66a.56.56 0 0 1-.8 0l-5.74-5.73a.56.56 0 0 1 0-.8l.27-.26a.56.56 0 0 1 .8 0l5.07 5.07 5.07-5.07a.56.56 0 0 1 .8 0l.26.26c.22.22.22.58 0 .8z" clip-rule="evenodd"/></symbol><use xlink:href="#sprite-icon-chevron-down" width="25" height="24" y="84"/><view id="sprite-icon-chevron-down-view" viewBox="0 84 25 24"/><symbol id="sprite-icon-pin" viewBox="0 0 60 60"><path d="M30 5c-9.98 0-18.1 8.12-18.1 18.1 0 12.4 16.2 30.59 16.89 31.36.65.72 1.78.72 2.42 0 .7-.77 16.9-18.96 16.9-31.35 0-9.99-8.12-18.11-18.1-18.11m0 27.22a9.12 9.12 0 0 1 0-18.22 9.12 9.12 0 0 1 0 18.22"/></symbol><use xlink:href="#sprite-icon-pin" width="60" height="60" y="108"/><view id="sprite-icon-pin-view" viewBox="0 108 60 60"/><symbol id="sprite-icon-zoom-in" viewBox="0 0 14 14"><path d="M14 8h-6v6h-2v-6h-6v-2h6v-6h2v6h6z"/></symbol><use xlink:href="#sprite-icon-zoom-in" width="14" height="14" y="168"/><view id="sprite-icon-zoom-in-view" viewBox="0 168 14 14"/><symbol id="sprite-icon-zoom-out" viewBox="0 0 14 2"><path d="M14 2h-14v-2h14z"/></symbol><use xlink:href="#sprite-icon-zoom-out" width="14" height="2" y="182"/><view id="sprite-icon-zoom-out-view" viewBox="0 182 14 2"/><symbol id="sprite-mail" viewBox="0 0 40 40"><path d="M35 6h-30a3.96 3.96 0 0 0-3.94 3.94v20.25a3.96 3.96 0 0 0 3.94 3.93h30a3.96 3.96 0 0 0 3.94-3.93v-20.32a3.95 3.95 0 0 0-3.94-3.87m0 2.81h.19l-15.19 9.75-15.19-9.75zm0 22.38h-30c-.62 0-1.12-.5-1.12-1.13v-18.5l14.62 9.38q.68.45 1.44.43.77.02 1.43-.43l14.63-9.38v18.56c.13.63-.37 1.07-1 1.07"/></symbol><use xlink:href="#sprite-mail" width="40" height="40" y="184"/><view id="sprite-mail-view" viewBox="0 184 40 40"/><symbol id="sprite-phone" viewBox="0 0 40 40"><path d="M30.37 38.06c-5.06 0-12.25-3.62-18.87-9.87-9-8.63-12.81-18.25-8.81-22.5q.29-.3.68-.5l5.07-2.88a2.9 2.9 0 0 1 3.8.88l3.7 5.25c.43.62.62 1.37.43 2.12a2.8 2.8 0 0 1-1.18 1.75l-2.2 1.44a45 45 0 0 0 13.5 12.81c.07.07.13 0 .13 0l1.57-2.12a2.9 2.9 0 0 1 3.87-.69l5.5 3.5c1.31.81 1.69 2.5.88 3.81l-3 4.82c-.2.24-.38.5-.57.68a6.6 6.6 0 0 1-4.5 1.5m-20.5-33.31-5.12 2.88c-2.38 2.56.56 10.75 8.75 18.5 8.31 7.87 16.87 10.68 19.62 8.3l3-4.8-5.5-3.5h-.12l-1.56 2.12a2.9 2.9 0 0 1-3.82.75 48 48 0 0 1-14.43-13.75 2.7 2.7 0 0 1-.44-2.06 2.5 2.5 0 0 1 1.19-1.75l2.18-1.44-3.62-5.19c-.06 0-.13-.06-.13-.06"/></symbol><use xlink:href="#sprite-phone" width="40" height="40" y="224"/><view id="sprite-phone-view" viewBox="0 224 40 40"/><symbol id="sprite-tg" viewBox="0 0 800 800"><path d="M735.75 47.07c-10.17.47-19.75 3.43-28.27 6.74h-.12c-8.63 3.43-49.67 20.7-112 46.84l-223.52 94.15a815737 815737 0 0 0-318.01 134.02l1.89-.71s-10.88 3.54-22.24 11.35a61.5 61.5 0 0 0-17.74 17.15c-5.55 8.16-10.05 20.7-8.4 33.6 2.73 21.88 16.92 35 27.1 42.22a90 90 0 0 0 20.1 10.77h.23l147.83 49.8c6.63 21.28 45.06 147.61 54.29 176.7 5.44 17.4 10.76 28.28 17.38 36.56 3.2 4.26 6.98 7.8 11.48 10.64a34 34 0 0 0 5.55 2.6c.6.36 1.19.48 1.9.6l-1.54-.36c.47.12.83.48 1.18.6 1.18.35 2.01.47 3.55.7 23.42 7.1 42.22-7.45 42.22-7.45l1.06-.83 87.28-79.48 146.3 112.25 3.31 1.42c30.51 13.36 61.38 5.91 77.7-7.22 16.44-13.25 22.83-30.16 22.83-30.16l1.06-2.72 113.06-579.23c3.2-14.32 4.02-27.68.47-40.7-3.54-13-12.65-25.19-23.65-31.7a56.7 56.7 0 0 0-32.28-8.15m-3.08 62.1c-.12 1.89.24 1.65-.6 5.32v.35l-111.99 573.2c-.47.83-1.3 2.6-3.55 4.38-2.36 1.9-4.25 3.07-14.07-.83l-178.94-137.2-108.09 98.52 22.7-145.01 292.36-272.53c12.06-11.23 8.04-13.6 8.04-13.6.83-13.72-18.21-4.02-18.21-4.02l-368.64 228.4-.11-.59-176.7-59.5v-.11c-.11 0-.35-.12-.47-.12.12 0 .95-.36.95-.36l.95-.47.94-.35s157.77-66.48 318.14-134.02c80.3-33.83 161.2-67.9 223.4-94.15 62.2-26.14 108.21-45.3 110.82-46.37 2.48-.95 1.3-.95 3.07-.95"/></symbol><use xlink:href="#sprite-tg" width="800" height="800" y="264"/><view id="sprite-tg-view" viewBox="0 264 800 800"/><symbol id="sprite-whatsapp" viewBox="0 0 800 800"><path d="M679.72 125.23a393 393 0 0 0-128.1-83.31 403 403 0 0 0-151.37-28.92 406 406 0 0 0-197.74 51.46c-60.13 33.65-110.08 82.02-144.85 140.27a375 375 0 0 0-53.28 191.62 375 375 0 0 0 52.51 191.83l-55.89 198.82 209.6-53.21a405.6 405.6 0 0 0 189.15 48.37c105.29 0 206.31-40.3 281.08-112.15 74.78-71.84 117.25-169.4 118.17-271.46a377 377 0 0 0-31.54-148.18 387 387 0 0 0-87.74-125.14m-279.47 590.66a336.3 336.3 0 0 1-167.68-44.5l-11.98-7.26-124.27 31.92 32.94-117.54-7.99-12.1c-42.45-66.43-58.3-145.66-44.53-222.66s56.2-146.43 119.24-195.14 142.33-73.32 222.84-69.16c80.5 4.17 156.65 36.8 214 91.74 62.67 59.41 98.56 140.45 99.8 225.43-.78 84.94-36.15 166.14-98.4 225.93-62.24 59.8-146.34 93.34-233.97 93.34m180.16-238.97c-9.98-4.84-58.39-28.06-67.37-30.96s-15.97-4.84-22.46 4.84a439 439 0 0 1-31.44 37.24c-5.5 6.78-11.48 7.26-21.46 0-56.9-21.8-104.32-61.94-134.25-113.68-10.48-16.93 9.98-15.96 28.95-52.24a17.9 17.9 0 0 0 0-16.93c0-4.84-22.46-52.25-30.45-71.12-7.98-18.86-15.97-15.96-22.45-16.44h-19.47a36 36 0 0 0-14.57 3.28 35 35 0 0 0-11.88 8.81 106 106 0 0 0-25.61 37.42 103 103 0 0 0-7.32 44.34 181.6 181.6 0 0 0 40.42 99.16c42.53 61.72 100.81 111.72 169.18 145.13a197.2 197.2 0 0 0 118.78 24.19 101 101 0 0 0 38.18-15.9 98 98 0 0 0 28.2-29.58 76 76 0 0 0 5.98-45.47c-4.49-4.84-10.98-7.25-20.96-12.1"/></symbol><use xlink:href="#sprite-whatsapp" width="800" height="800" y="1064"/><view id="sprite-whatsapp-view" viewBox="0 1064 800 800"/></svg>