<svg xmlns="http://www.w3.org/2000/svg" xmlns:xlink="http://www.w3.org/1999/xlink"><symbol id="sprite-arrow-right" viewBox="0 0 24 24"><path d="M18.75 12a.75.75 0 0 0-.75-.75h-12a.75.75 0 0 0 0 1.5h12c.41 0 .75-.34.75-.75"/><path d="M11.47 5.47c-.3.3-.3.77 0 1.06l5.47 5.47-5.47 5.47a.75.75 0 1 0 1.06 1.06l6-6c.3-.3.3-.77 0-1.06l-6-6a.75.75 0 0 0-1.06 0"/></symbol><use xlink:href="#sprite-arrow-right" width="24" height="24"/><view id="sprite-arrow-right-view" viewBox="0 0 24 24"/><symbol id="sprite-icon-check" viewBox="0 0 60 60"><g clip-path="url(#clip0_2254_3377)"><path d="M27.5 57.46a27.53 27.53 0 0 1-27.5-27.5 27.53 27.53 0 0 1 27.5-27.5c5.27 0 10.4 1.5 14.83 4.35a1.88 1.88 0 0 1-2.02 3.16 23.78 23.78 0 0 0-36.56 20 23.8 23.8 0 0 0 23.75 23.74 23.8 23.8 0 0 0 23.64-26.07 1.87 1.87 0 1 1 3.73-.36q.13 1.32.13 2.68a27.53 27.53 0 0 1-27.5 27.5"/><path d="M30.62 36.21c-.48 0-.96-.18-1.32-.55l-11.25-11.25a1.88 1.88 0 0 1 2.65-2.65l9.93 9.92 26.17-26.17a1.88 1.88 0 0 1 2.65 2.65l-27.5 27.5c-.37.37-.85.55-1.33.55"/></g><defs><clipPath id="clip0_2254_3377"><rect/></clipPath></defs></symbol><use xlink:href="#sprite-icon-check" width="60" height="60" y="24"/><view id="sprite-icon-check-view" viewBox="0 24 60 60"/><symbol id="sprite-icon-chevron-down" viewBox="0 0 25 24"><path fill-rule="evenodd" d="M12.87 15.66a.56.56 0 0 1-.8 0l-5.74-5.73a.56.56 0 0 1 0-.8l.27-.26a.56.56 0 0 1 .8 0l5.07 5.07 5.07-5.07a.56.56 0 0 1 .8 0l.26.26c.22.22.22.58 0 .8z" clip-rule="evenodd"/></symbol><use xlink:href="#sprite-icon-chevron-down" width="25" height="24" y="84"/><view id="sprite-icon-chevron-down-view" viewBox="0 84 25 24"/><symbol id="sprite-icon-pin" viewBox="0 0 60 60"><path d="M30 5c-9.98 0-18.1 8.12-18.1 18.1 0 12.4 16.2 30.59 16.89 31.36.65.72 1.78.72 2.42 0 .7-.77 16.9-18.96 16.9-31.35 0-9.99-8.12-18.11-18.1-18.11m0 27.22a9.12 9.12 0 0 1 0-18.22 9.12 9.12 0 0 1 0 18.22"/></symbol><use xlink:href="#sprite-icon-pin" width="60" height="60" y="108"/><view id="sprite-icon-pin-view" viewBox="0 108 60 60"/><symbol id="sprite-icon-zoom-in" viewBox="0 0 14 14"><path d="M14 8h-6v6h-2v-6h-6v-2h6v-6h2v6h6z"/></symbol><use xlink:href="#sprite-icon-zoom-in" width="14" height="14" y="168"/><view id="sprite-icon-zoom-in-view" viewBox="0 168 14 14"/><symbol id="sprite-icon-zoom-out" viewBox="0 0 14 2"><path d="M14 2h-14v-2h14z"/></symbol><use xlink:href="#sprite-icon-zoom-out" width="14" height="2" y="182"/><view id="sprite-icon-zoom-out-view" viewBox="0 182 14 2"/><symbol id="sprite-mail" viewBox="0 0 40 40"><path d="M38.8 6.83h-37.6c-.66 0-1.2.53-1.2 1.2v23.95c0 .66.54 1.2 1.2 1.2h37.6c.66 0 1.2-.54 1.2-1.2v-23.96c0-.66-.54-1.2-1.2-1.2m-3.43 2.4-15.37 12.2-15.37-12.2zm-32.97 1.27 11.52 9.16-11.52 9.74zm2.07 20.28 11.36-9.6 3.43 2.71a1.2 1.2 0 0 0 1.49 0l3.42-2.71 11.36 9.6zm33.13-1.38-11.52-9.74 11.52-9.16z"/></symbol><use xlink:href="#sprite-mail" width="40" height="40" y="184"/><view id="sprite-mail-view" viewBox="0 184 40 40"/><symbol id="sprite-phone" viewBox="0 0 40 40"><g clip-path="url(#clip0_2660_173)"><path d="M31.61 24.78a4 4 0 0 0-2.85-1.31c-1.04 0-2.04.45-2.89 1.3l-2.67 2.66-.65-.34q-.46-.22-.83-.45a29 29 0 0 1-6.95-6.33 17 17 0 0 1-2.28-3.6q1.03-.96 1.96-1.92.36-.35.7-.72c1.78-1.77 1.78-4.07 0-5.84l-2.3-2.3-.78-.8q-.76-.8-1.59-1.58a4 4 0 0 0-2.83-1.24c-1.03 0-2.02.43-2.87 1.24l-.01.02-2.87 2.9a6.2 6.2 0 0 0-1.84 3.92 15 15 0 0 0 1.08 6.27 36 36 0 0 0 6.46 10.77 40 40 0 0 0 13.23 10.36c1.94.92 4.54 2 7.43 2.2l.53.01q2.94 0 4.87-2.1l.04-.04c.44-.53.94-1 1.48-1.52q.54-.52 1.1-1.1a4.2 4.2 0 0 0 1.27-2.91c0-1.05-.45-2.06-1.3-2.9zm3.03 8.89q-.01 0 0 0l-1.03 1.03a22 22 0 0 0-1.63 1.69 4 4 0 0 1-3.18 1.34h-.39c-2.5-.17-4.83-1.15-6.58-1.98a37.5 37.5 0 0 1-12.46-9.76 34 34 0 0 1-6.08-10.13 12 12 0 0 1-.95-5.28q.13-1.47 1.17-2.5l2.88-2.89q.63-.6 1.28-.6c.53 0 .96.32 1.23.6l.03.02q.75.72 1.52 1.51l.8.82 2.3 2.3c.9.9.9 1.73 0 2.62l-.72.73q-1.04 1.08-2.12 2.06l-.04.04c-.73.73-.6 1.43-.44 1.92l.02.07a19 19 0 0 0 2.73 4.45 31 31 0 0 0 7.5 6.83q.53.32 1.04.57.47.23.84.44l.1.06q.43.22.84.21c.7 0 1.14-.44 1.28-.58l2.89-2.89c.28-.28.74-.63 1.27-.63s.96.33 1.22.62l.02.01 4.65 4.66q1.3 1.29 0 2.64m-13.01-24.16a10.7 10.7 0 0 1 5.82 3.03c1.6 1.6 2.65 3.61 3.03 5.82.09.56.57.95 1.12.95l.2-.02c.62-.1 1.03-.7.93-1.32a13 13 0 0 0-3.66-7.05 13 13 0 0 0-7.05-3.65c-.62-.1-1.2.31-1.31.93-.11.61.3 1.21.92 1.31m18.33 8.13a21.4 21.4 0 0 0-6.02-11.6 21.4 21.4 0 0 0-11.6-6.02 1.14 1.14 0 1 0-.38 2.24c3.94.67 7.53 2.54 10.38 5.38a19 19 0 0 1 5.38 10.38c.09.55.57.94 1.12.94l.2-.02c.61-.09 1.03-.68.92-1.3"/></g><defs><clipPath id="clip0_2660_173"><rect/></clipPath></defs></symbol><use xlink:href="#sprite-phone" width="40" height="40" y="224"/><view id="sprite-phone-view" viewBox="0 224 40 40"/><symbol id="sprite-tg" viewBox="0 0 40 40"><g clip-path="url(#clip0_2660_165)"><path d="M39.22 3.28a2.4 2.4 0 0 0-2.39-.52l-35.17 11.6a2.4 2.4 0 0 0-1.66 2.18 2.4 2.4 0 0 0 1.45 2.32l8.7 3.8 2.62 12.18c.1.5.36.96.9 1.1.56.14.95-.17 1.36-.47l6.45-4.84 7.55 6.18a2.4 2.4 0 0 0 2.3.42 2.4 2.4 0 0 0 1.58-1.74l7.03-29.88c.2-.85-.08-1.74-.72-2.33m-23.63 21.57-.01.04-1.46 5.08-1.62-7.53 11.16-6.2-7.8 8.16q-.2.2-.27.45m.46 6.92.66-2.31.63-2.21 2.27 1.85zm21.6-26.7-7.03 29.89q.01.02-.04.04h-.06l-8.26-6.77-3.83-3.13 12.3-12.85a1.17 1.17 0 0 0-1.43-1.84l-18.2 10.11-8.71-3.8q-.04-.02-.04-.07t.04-.06l35.18-11.6.06.02q.03.04.02.06"/></g><defs><clipPath id="clip0_2660_165"><rect/></clipPath></defs></symbol><use xlink:href="#sprite-tg" width="40" height="40" y="264"/><view id="sprite-tg-view" viewBox="0 264 40 40"/><symbol id="sprite-whatsapp" viewBox="0 0 40 40"><g clip-path="url(#clip0_2660_158)"><path d="m30.01 24.08-2.12-2.12a2.74 2.74 0 0 0-4.2.38l-.74 1.06c-1-.18-2.95-.68-4.31-2.04a8.3 8.3 0 0 1-2.04-4.3l1.06-.74a2.74 2.74 0 0 0 .38-4.21l-2.12-2.12a2.7 2.7 0 0 0-3.2-.5 6.6 6.6 0 0 0-3.43 5.07c-.59 3.77 1.16 8.22 4.54 11.6 2.96 2.96 6.72 4.66 10.13 4.66q.75 0 1.48-.1a6.6 6.6 0 0 0 5.08-3.44 2.7 2.7 0 0 0-.51-3.2m-1.65 2.08a4.3 4.3 0 0 1-3.3 2.15c-2.97.46-6.7-1.05-9.5-3.86-2.82-2.81-4.33-6.54-3.87-9.52a4.3 4.3 0 0 1 2.15-3.29l.13-.03q.13 0 .23.1l2.12 2.12q.12.14.1.25 0 .12-.14.24l-1.68 1.16a1.2 1.2 0 0 0-.52 1.08c.01.16.29 3.96 2.84 6.52 2.56 2.55 6.36 2.83 6.52 2.84.43.02.83-.17 1.08-.52l1.16-1.68q.12-.14.24-.13.1-.03.25.09l2.12 2.12c.1.1.13.25.07.36"/><path d="M34.14 5.86a20 20 0 0 0-14.14-5.86 20 20 0 0 0-14.14 5.86 20.05 20.05 0 0 0-3.13 24.23l-2.09 7.78a1.21 1.21 0 0 0 1.49 1.49l7.78-2.09a20 20 0 0 0 12.27 2.61c4.5-.49 8.75-2.53 11.96-5.74a20 20 0 0 0 5.86-14.14c0-5.34-2.08-10.36-5.86-14.14m-1.72 26.57a17.5 17.5 0 0 1-21.69 2.5 1.2 1.2 0 0 0-.95-.14l-6.25 1.68 1.68-6.25c.08-.32.03-.67-.15-.95a17.5 17.5 0 0 1 2.51-21.7 17.6 17.6 0 0 1 24.85 0 17.6 17.6 0 0 1 0 24.86"/></g><defs><clipPath id="clip0_2660_158"><rect/></clipPath></defs></symbol><use xlink:href="#sprite-whatsapp" width="40" height="40" y="304"/><view id="sprite-whatsapp-view" viewBox="0 304 40 40"/></svg>