<svg xmlns="http://www.w3.org/2000/svg" fill="none" viewBox="0 0 40 40"><g fill="#A70A12" clip-path="url(#clip0_2343_139)"><path d="M32.24 10.33a.5.5 0 0 0-.48.1c-.16.1-.22.29-.22.48v.77a.59.59 0 1 0 1.17 0v-.24q.22-.04.48-.16a.59.59 0 0 0-.48-1.07c-.26.12-.42.12-.47.12m-1.02 3.43c-.49.3-1.1.3-1.59 0a.59.59 0 1 0-.61 1 2.7 2.7 0 0 0 2.82 0 .59.59 0 1 0-.62-1m-1.91-2.08v-.77q0-.3-.21-.48a.5.5 0 0 0-.48-.1c-.05 0-.22 0-.48-.12a.59.59 0 0 0-.47 1.07q.26.12.47.16v.24a.59.59 0 0 0 1.17 0m-20.13-.7v-.77a.59.59 0 1 0-1.17 0v.77a.59.59 0 0 0 1.17 0m2.07.59c.33 0 .59-.26.59-.59v-.77a.59.59 0 0 0-1.17 0v.77c0 .33.26.59.58.59m.27 1.67a.6.6 0 0 0-.8-.2c-.5.3-1.1.3-1.59 0a.59.59 0 1 0-.6 1 2.7 2.7 0 0 0 2.8 0 .6.6 0 0 0 .2-.8m7.96 5.42v-.6a.59.59 0 1 0-1.17 0v.6a.59.59 0 1 0 1.17 0m1.48-1.19a.6.6 0 0 0-.58.59v.6a.59.59 0 0 0 1.17 0v-.6a.6.6 0 0 0-.59-.59m-.48 2.69c-.34.2-.76.2-1.1 0a.59.59 0 0 0-.61 1 2.2 2.2 0 0 0 2.32 0 .59.59 0 0 0-.61-1"/><path d="M39.98 32.4a2.1 2.1 0 0 0-1.54-1.75v-5.12a.6.6 0 0 0-.67-.58l-1.92.28v-2.64c0-1.9-1.02-3.65-2.6-4.63q1.31-.76 2.07-2.05h2.04c.32 0 .58-.26.58-.59v-7.33a7.52 7.52 0 0 0-15.03 0v2.86a5 5 0 0 0-2.16-.45h-1.62q-.42 0-.84.06a2.4 2.4 0 0 0-1.1-1.71v-5.3a2.9 2.9 0 0 0-5.13-1.82 2.7 2.7 0 0 0-2.13-1.07h-2.76q-.9 0-1.7.35a.59.59 0 0 0 .47 1.08q.6-.26 1.23-.26h2.76c.82 0 1.48.66 1.48 1.48v.9l-.09.15a3.4 3.4 0 0 1-3.18 2.12l-.68.01c-1.3.09-2.4.9-2.9 2.01h-.43v-3.63q0-.77.37-1.45a.59.59 0 1 0-1.03-.56q-.51.93-.51 2v3.83a2.3 2.3 0 0 0-1.42 2.15c0 1.3 1.05 2.35 2.34 2.35h.37a5.6 5.6 0 0 0 2.84 4.88 5.5 5.5 0 0 0-2.59 4.62v2.69l-2.27-.33a.6.6 0 0 0-.67.58v5.12a2.15 2.15 0 0 0 .28 4.2l13.08 1.89a6.02 6.02 0 0 0 10.16 0l2.26-.33v1.72a1.4 1.4 0 0 0 1.4 1.4q.46 0 .85-.3l1-.8q.15-.09.28 0l1 .8c.43.33.99.39 1.47.15.48-.23.78-.71.78-1.25v-2.7l4.04-.59a2.13 2.13 0 0 0 1.82-2.43m-37.27-21.66a1.16 1.16 0 0 1 1.17-1.17h.38v2.35h-.38c-.64 0-1.17-.53-1.17-1.18m31.97 11.85v2.8l-1.92.29a.59.59 0 1 0 .17 1.16l4.33-.63v4.42l-3.14.45v-1.08a.6.6 0 0 0-.67-.58l-5.6.81a.6.6 0 0 0-.5.58v1.25l-4 .58c-.74.11-1.39.61-1.68 1.31l-.08.2c-.19.47-.56.8-1 .97v-2.47a4.65 4.65 0 0 1 3.99-4.6l6.04-.88a.59.59 0 0 0-.16-1.16l-4.28.62v-4.04a4.3 4.3 0 0 1 2.88-4.03q.66.17 1.37.17h.04q.67 0 1.32-.17a4.3 4.3 0 0 1 2.89 4.03m-19.33 4.26v-4.26c0-1.9-1.02-3.66-2.6-4.63q.6-.35 1.11-.84.36 1.45 1.44 2.53l.1.1v.52a4.5 4.5 0 0 0 1.94 3.73 4 4 0 0 0-1.29 2.89v.08l-.46-.08zm-4.8-8.16q.38-.04.74-.13a4.3 4.3 0 0 1 2.89 4.03v4.1l-3.63-.53zm13.94 1.53v-.47a5.4 5.4 0 0 0 1.6-3.03 6 6 0 0 0 1.5 1.25 5.5 5.5 0 0 0-2.58 4.62v4.21l-.6.09h-.04l-.55.11v-.11c0-1.13-.48-2.17-1.29-2.9a4.6 4.6 0 0 0 1.96-3.77m-1.18 0a3.4 3.4 0 0 1-3.35 3.43 3.35 3.35 0 0 1-3.4-3.37v-2.53c0-.86.67-1.57 1.53-1.63h.46c1.1 0 2.13-.49 2.83-1.3a3 3 0 0 0 1.93 1.24zm-6.08 6.67c0-.95.48-1.81 1.28-2.3q.68.23 1.43.23h.03a5 5 0 0 0 1.4-.23 2.7 2.7 0 0 1 1.28 2.3v.54a6 6 0 0 0-2.65 2.68 5.8 5.8 0 0 0-2.77-2.73zm17.72-13.92a4.6 4.6 0 0 1-4.49 4.58h-.03a4.5 4.5 0 0 1-4.53-4.52v-1.42c0-1.2.94-2.19 2.13-2.27h.6c1.47 0 2.8-.68 3.66-1.79a4 4 0 0 0 2.66 1.74zm-10.86-4.98a6.35 6.35 0 0 1 12.68 0v6.75h-.92a6 6 0 0 0 .28-1.77v-4.22a.6.6 0 0 0-.6-.58 2.65 2.65 0 0 1-2.58-2.05.59.59 0 0 0-1.12-.09 3.45 3.45 0 0 1-3.2 2.14h-.68a3.45 3.45 0 0 0-3.22 3.44v.53a6 6 0 0 0-.64-.59zm-3.34 3.58a4.2 4.2 0 0 1 4.25 4.25q0 1.08-.51 2.02v-2.3a.6.6 0 0 0-.6-.6 1.9 1.9 0 0 1-1.87-1.48.59.59 0 0 0-1.11-.09 2.5 2.5 0 0 1-2.36 1.58h-.54a2.8 2.8 0 0 0-2.62 2.8v.1a4.2 4.2 0 0 1 .11-4.25 4.2 4.2 0 0 1 3.63-2.03zm-5.15.13v-2.13h.37c.64 0 1.17.53 1.17 1.17v.03q-.85.34-1.54.93m-1.3-9.97c.95 0 1.72.77 1.72 1.72v4.95h-.42v-1.43a.6.6 0 0 0-.59-.59 2.6 2.6 0 0 1-2.43-1.59v-1.34c0-.95.77-1.72 1.72-1.72m-8.88 11.32v-3.23c0-1.2.93-2.18 2.12-2.26h.6a4.6 4.6 0 0 0 3.64-1.78 4 4 0 0 0 2.65 1.73v5.62c-.41.7-.65 1.5-.7 2.3a4.6 4.6 0 0 1-3.77 2.12 4.47 4.47 0 0 1-4.54-4.5m.25 9.54a4.3 4.3 0 0 1 2.89-4.03q.4.1.82.14v7.29l-3.7-.54zm9.75 5.46h.02a4.65 4.65 0 0 1 3.97 4.6v2.47c-.44-.16-.81-.5-1-.96l-.08-.2c-.3-.7-.94-1.2-1.68-1.32l-13.91-2.01v-4.42zm9.21 7.57a.6.6 0 0 0-.42.29 4.84 4.84 0 0 1-8.42 0 .6.6 0 0 0-.42-.3l-13.36-1.93a.97.97 0 0 1-.83-1.1 1 1 0 0 1 1.11-.83l14.19 2.05c.34.05.63.28.76.6l.09.2a2.9 2.9 0 0 0 2.65 1.8h.04a2.9 2.9 0 0 0 2.65-1.8l.09-.2a1 1 0 0 1 .76-.6l3.82-.55v1.97zm8.32 2.51c0 .12-.08.17-.12.2a.2.2 0 0 1-.23-.03l-1-.79a1.4 1.4 0 0 0-1.72 0l-1.01.8a.2.2 0 0 1-.23.02.2.2 0 0 1-.12-.2v-6.8l4.43-.65zm5.68-4.83a1 1 0 0 1-.64.38l-3.87.56v-1.97l3.59-.52a.98.98 0 0 1 .92 1.55"/></g><defs><clipPath id="clip0_2343_139"><path fill="#fff" d="M0 0h40v40h-40z"/></clipPath></defs></svg>