<svg xmlns="http://www.w3.org/2000/svg" fill="none" viewBox="0 0 40 40"><path fill="#A70A12" d="m36.86 11.74-3.65-3.65v-4.44a3.66 3.66 0 0 0-3.66-3.65h-24.05a3.66 3.66 0 0 0-3.66 3.65v4.67a.59.59 0 1 0 1.18 0v-4.67a2.5 2.5 0 0 1 2.48-2.48h24.05a2.5 2.5 0 0 1 2.48 2.48v3.27l-1.41-1.42a4.4 4.4 0 0 0-3.13-1.3h-17.05a3.66 3.66 0 0 0-3.65 3.66v26.76h-1.3a2.5 2.5 0 0 1-2.47-2.48v-21.48a.59.59 0 1 0-1.18 0v21.48a3.66 3.66 0 0 0 3.66 3.66h1.3v.55a3.66 3.66 0 0 0 3.64 3.65h24.06a3.66 3.66 0 0 0 3.66-3.65v-21.48c0-1.18-.46-2.3-1.3-3.13m-.83.83q.15.15.26.3-.45-.18-.96-.18h-3.18a2.5 2.5 0 0 1-2.48-2.48v-3.18q0-.51-.17-.96.15.12.29.26zm.95 23.78a2.5 2.5 0 0 1-2.48 2.48h-24.06a2.5 2.5 0 0 1-2.48-2.48v-28.5a2.5 2.5 0 0 1 2.48-2.47h16.4c.91 0 1.65.74 1.65 1.65v3.18a3.66 3.66 0 0 0 3.66 3.65h3.18c.91 0 1.65.75 1.65 1.66z"/><path fill="#A70A12" d="M11.33 17.8h22.28a.59.59 0 1 0 0-1.16h-22.28a.59.59 0 1 0 0 1.17m22.28 2.55h-5.4a.59.59 0 1 0 0 1.17h5.4a.59.59 0 1 0 0-1.17m-22.28 0a.59.59 0 1 0 0 1.17h14.54a.59.59 0 1 0 0-1.17zm0 4.89h22.28a.59.59 0 1 0 0-1.17h-22.28a.59.59 0 1 0 0 1.17m11.94 3.15a.6.6 0 0 0-.59-.6h-11.35a.59.59 0 1 0 0 1.18h11.35a.6.6 0 0 0 .59-.59m10.36.94a2.66 2.66 0 0 0-4.46-2.58 2.66 2.66 0 0 0-4.46 2.58 2.66 2.66 0 0 0 0 5.15 2.64 2.64 0 0 0 1.23 3.03 2.65 2.65 0 0 0 3.23-.46c.46.48 1.1.78 1.78.81a.59.59 0 1 0 .06-1.17c-.5-.03-.96-.3-1.21-.74l-.12-.2a.6.6 0 0 0-1.01 0l-.12.2a1.5 1.5 0 0 1-2.03.54 1.47 1.47 0 0 1-.54-2.02l.12-.2a.6.6 0 0 0-.5-.89h-.25q-.61 0-1.04-.43a1.48 1.48 0 0 1 1.05-2.53h.23a.6.6 0 0 0 .51-.88l-.12-.2a1.48 1.48 0 1 1 2.57-1.48l.12.2c.1.18.3.3.5.3q.33-.01.51-.3l.12-.2a1.5 1.5 0 0 1 2.02-.55c.71.41.95 1.32.55 2.03l-.12.2a.6.6 0 0 0 .5.88h.24a1.47 1.47 0 0 1 1.48 1.48c0 .82-.66 1.48-1.48 1.48h-.24a.6.6 0 0 0-.5.88l.12.21a1.5 1.5 0 0 1 .03 1.41.59.59 0 1 0 1.05.54 2.7 2.7 0 0 0 .18-1.94 2.66 2.66 0 0 0 0-5.15"/><path fill="#A70A12" d="M31.3 30.58h-4.26a.59.59 0 1 0 0 1.18h4.27a.59.59 0 1 0 0-1.18m-3.27 2.16a.59.59 0 0 0 0 1.17h2.27a.59.59 0 1 0 0-1.17z"/></svg>