<svg xmlns="http://www.w3.org/2000/svg" fill="none" viewBox="0 0 40 40"><g fill="#A70A12" clip-path="url(#clip0_2343_171)"><path d="M18.3 3.72a.6.6 0 0 0-.58-.59q-.85 0-1.57.45l-14.64 9.06a1.9 1.9 0 0 0-.63 2.66l1.1 1.79c.57.9 1.76 1.18 2.66.62l.17-.1v12.09a.59.59 0 0 0 1.17 0v-12.82l11.15-6.9v7.85h-5a2.5 2.5 0 0 0-2.48 2.5v7.64a2.5 2.5 0 0 0 2.49 2.49h5v3.97h-11.16v-2.39a.59.59 0 0 0-1.17 0v2.97c0 .33.26.59.58.59h12.33c.32 0 .58-.26.58-.59zm-14.27 13a.76.76 0 0 1-1.05-.25l-1.1-1.79a.76.76 0 0 1 .24-1.04l14.64-9.07q.18-.1.37-.17v4.2zm13.1 6.04h-3.96v-1.4h3.96zm0 6.53h-5c-.72 0-1.3-.6-1.3-1.32v-7.65c0-.72.58-1.31 1.3-1.31h5v1.17h-4.54a.6.6 0 0 0-.59.59v6.75c0 .33.26.59.59.59h4.54zm-3.96-2.35v-3.01h3.96v3zm24.56-3.68a3.3 3.3 0 0 0-3.75.35v-9.13a2 2 0 0 0 1.62.34c.5-.12.93-.43 1.2-.86l1.1-1.8c.56-.9.28-2.09-.62-2.65l-4.04-2.5a.59.59 0 0 0-.62 1l4.04 2.5c.36.22.47.69.25 1.04l-1.1 1.79a.77.77 0 0 1-1.05.24l-13.1-8.11v-4.2q.19.06.36.17l8.65 5.36a.59.59 0 1 0 .62-1l-8.65-5.35a3 3 0 0 0-1.57-.45.6.6 0 0 0-.59.59v31.3c0 .32.27.58.59.58h1.66q.12.21.27.4l4.53 5.85a3.3 3.3 0 0 0 2.85 1.27c1.1-.08 2.08-.7 2.63-1.67l5.97-10.57a3.3 3.3 0 0 0-1.25-4.5m-12.12-3.64h-3.95v-1.4h3.95zm0 1.18v3h-3.95v-3zm-3.95 4.18h4.54a.6.6 0 0 0 .59-.59v-6.75a.6.6 0 0 0-.59-.59h-4.54v-1.18h4.99c.72 0 1.31.6 1.31 1.32v7.65c0 .72-.59 1.31-1.31 1.31h-5zm0 6.32v-3.97h4.99a2.5 2.5 0 0 0 2.49-2.5v-7.64a2.5 2.5 0 0 0-2.5-2.49h-4.98v-7.85l11.15 6.9v11.52l-3.1 5.5-1.5-1.93a3.3 3.3 0 0 0-5.87 2.46zm16.3-4.13-5.97 10.58a2.12 2.12 0 0 1-3.53.26l-4.53-5.85a2.13 2.13 0 0 1 3.35-2.6l2.04 2.62a.6.6 0 0 0 .97-.07l3.97-7.03a2.13 2.13 0 0 1 3.7 2.09"/></g><defs><clipPath id="clip0_2343_171"><path fill="#fff" d="M0 0h40v40h-40z"/></clipPath></defs></svg>