<svg xmlns="http://www.w3.org/2000/svg" fill="none" viewBox="0 0 40 40"><g fill="#A70A12" clip-path="url(#clip0_2343_260)"><path d="M20.48 10a1.75 1.75 0 1 0-3.5.01 1.75 1.75 0 0 0 3.5 0m-2.33 0a.58.58 0 1 1 1.16 0 .58.58 0 0 1-1.16 0"/><path d="M37.5 18.9q-.72 0-1.31.37v-2.57a2.9 2.9 0 0 0-2.91-2.91q-.76.01-1.4.35v-12.05c0-1.15-.93-2.09-2.08-2.09h-19.1a.59.59 0 1 0 0 1.17h19.1c.5 0 .92.41.92.92v10.18l-.03-.03a3 3 0 0 0-2.04-.85h-.02a3 3 0 0 0-2.2 1.02l-.88-1.96a2.23 2.23 0 0 0-.83-4.3h-4.17v-1.32a1.8 1.8 0 0 0-1.82-1.83c-1 0-1.83.82-1.83 1.83v1.32h-4.16a2.23 2.23 0 0 0-.83 4.3l-1.52 3.38h-.31a.6.6 0 0 0-.59.58 3.25 3.25 0 0 0 6.5 0 .6.6 0 0 0-.58-.58h-.32l-1.44-3.22h1.25a3.9 3.9 0 0 0 2 2.83v4.83h-2.18a1.8 1.8 0 0 0-1.82 1.82c0 1 .81 1.82 1.82 1.82h6.35v3.84l-1.34-1.33a3.17 3.17 0 0 0-5.32 1.48h-8.13v-24.73h2.07a.59.59 0 1 0 0-1.17h-2.65a5.7 5.7 0 0 0-5.67 5.67v25.9c0 3.09 2.49 5.6 5.57 5.66v1.22a1.54 1.54 0 0 0 2.49 1.22l1.2-.94q.23-.15.46 0l1.2.94a1.5 1.5 0 0 0 1.62.17c.54-.26.87-.79.87-1.39v-1.21h10.15c.38.39.6.92.6 1.47v.7a.59.59 0 1 0 1.17 0v-.7c0-.86-.35-1.7-.96-2.32l-8.32-8.32a2 2 0 0 1 0-2.83 2 2 0 0 1 2.82 0l2.34 2.34a.59.59 0 0 0 1-.41v-10.84a1.73 1.73 0 0 1 1.74-1.74c.96 0 1.74.78 1.74 1.74v8.22a.59.59 0 1 0 1.17 0v-10.21c0-.47.2-.94.54-1.27.32-.33.75-.51 1.2-.51h.01a1.73 1.73 0 0 1 1.73 1.74v4.97a.59.59 0 1 0 1.17 0v-2.57a1.74 1.74 0 0 1 3.48 0v10.16a.59.59 0 1 0 1.17 0v-5.49a1.3 1.3 0 0 1 1.3-1.3c.72 0 1.3.58 1.3 1.3v9.99a8.3 8.3 0 0 1-1.35 4.56 6 6 0 0 0-.97 3.31v.18a.59.59 0 1 0 1.17 0v-.18a5 5 0 0 1 .8-2.7 9.5 9.5 0 0 0 1.53-5.17v-9.99a2.5 2.5 0 0 0-2.48-2.47m-36.3-13.23a4.5 4.5 0 0 1 3.91-4.46v2.54a5.7 5.7 0 0 0-3.91 2.2zm0 3.7a4.5 4.5 0 0 1 3.91-4.44v2.73a5.7 5.7 0 0 0-3.91 2.19zm0 3.91a4.5 4.5 0 0 1 3.91-4.44v8.1a5.7 5.7 0 0 0-3.91 2.2zm0 9.29a4.5 4.5 0 0 1 3.91-4.45v2.72a5.7 5.7 0 0 0-3.91 2.2zm0 3.9a4.5 4.5 0 0 1 3.91-4.45v3.9a5.7 5.7 0 0 0-3.91 2.2zm0 5.1a4.5 4.5 0 0 1 4.5-4.5h8.65c.09.69.4 1.33.9 1.83h-9.55a2.67 2.67 0 0 0-.1 5.33v1.83a4.5 4.5 0 0 1-4.4-4.5m12.24-1.5h2.98l3 2.99h-5.98zm-7.84 2.99a1.5 1.5 0 0 1 0-2.98zm6.46 5.73a.4.4 0 0 1-.4-.04l-1.19-.94a1.54 1.54 0 0 0-1.9 0l-1.2.94a.4.4 0 0 1-.4.04.4.4 0 0 1-.2-.34v-8.38h5.5v8.38c0 .21-.15.3-.21.34m1.38-4.56h7.14l1.84 1.83h-8.98zm4.64-29.4a.65.65 0 0 1 1.3 0v1.32h-1.3zm-5.34 11.66a2.1 2.1 0 0 1-2-1.5h4a2.1 2.1 0 0 1-2 1.5m-1.07-2.66 1.07-2.38 1.07 2.38zm4.36-3.8a.6.6 0 0 0-.59-.6h-2.7a1.06 1.06 0 0 1 0-2.1h11.98a1.06 1.06 0 0 1 0 2.1h-2.7a.6.6 0 0 0-.59.6 2.7 2.7 0 0 1-5.4 0m2.05 3.81a4 4 0 0 0 1.3 0v4.43h-1.3zm-3.36 6.9a.65.65 0 0 1 0-1.3h6.35v1.3zm7.2-6.47a3 3 0 0 0-.85 2.06v1.94h-.52v-4.83a3.9 3.9 0 0 0 2-2.83h1.26l-1.5 3.34q-.21.14-.39.32m2.06-.85h-.15l.89-1.97 1.05 2.34-.03.22a3 3 0 0 0-1.76-.59"/><path d="M30.95 21.03a.6.6 0 0 0-.58.58v3.02a.59.59 0 1 0 1.17 0v-3.02a.6.6 0 0 0-.59-.58"/></g><defs><clipPath id="clip0_2343_260"><path fill="#fff" d="M0 0h40v40h-40z"/></clipPath></defs></svg>