<svg xmlns="http://www.w3.org/2000/svg" fill="none" viewBox="0 0 40 40"><path fill="#A70A12" d="M37.51 11.89c0-1.3-.5-2.53-1.43-3.46l-7-7a5 5 0 0 0-3.45-1.43h-19.12a4.03 4.03 0 0 0-4.02 4.02v1.3a.59.59 0 0 0 1.17 0v-1.3a2.86 2.86 0 0 1 2.85-2.85h18.4c1.05 0 1.91.87 1.91 1.93v3.57c0 2.22 1.8 4.02 4.03 4.02h3.56c1.07 0 1.93.87 1.93 1.93v23.36a2.86 2.86 0 0 1-2.85 2.85h-26.98a2.86 2.86 0 0 1-2.85-2.85v-28.32a.59.59 0 0 0-1.17 0v28.32c0 2.21 1.8 4.02 4.02 4.02h26.98c2.22 0 4.02-1.8 4.02-4.02zm-6.66-2.37a2.86 2.86 0 0 1-2.86-2.85v-3.57q0-.7-.28-1.29.3.2.54.45l7 7q.26.26.45.54-.6-.28-1.29-.28z"/><path fill="#A70A12" d="M11.87 19.86c0 .33.26.6.59.6h18.68a.59.59 0 1 0 0-1.18h-18.68a.6.6 0 0 0-.59.58m-3.01 4.31h22.28a.59.59 0 0 0 0-1.17h-22.28a.59.59 0 0 0 0 1.17m15.56 3.14a.6.6 0 0 0-.6-.58h-14.96a.59.59 0 1 0 0 1.17h14.97a.6.6 0 0 0 .59-.59m6.72-.58h-4.97a.59.59 0 1 0 0 1.17h4.97a.59.59 0 0 0 0-1.17m-22.28 3.72a.59.59 0 1 0 0 1.17h11.35a.59.59 0 1 0 0-1.17zm4.63-26.55a.7.7 0 0 0-1.29 0l-.01.01-1.84 4.83a.59.59 0 1 0 1.1.42l.3-.83h2.15l.31.83a.59.59 0 0 0 1.1-.42zm-1.29 3.25.64-1.66.62 1.66zm4.56 3.02a.6.6 0 0 0-.59.6v4.88c0 .29.2.53.5.58l.6.01h1.2a.59.59 0 1 0 0-1.17h-1.12v-4.3a.6.6 0 0 0-.59-.6m2.73.59v4.9c0 .28.2.52.49.57l.6.01h1.21a.59.59 0 0 0 0-1.17h-1.13v-4.3a.59.59 0 1 0-1.17 0m-12.04-7.31a.6.6 0 0 0-.58.58v4.9c0 .28.2.52.48.57l.62.01h1.2a.59.59 0 0 0 0-1.17h-1.13v-4.3a.6.6 0 0 0-.59-.6m7.74 12.21v-4.9a.59.59 0 1 0-1.18 0v4.9a.59.59 0 1 0 1.18 0m2.65-7.31c-.5 0-.97-.2-1.27-.53a.59.59 0 0 0-.87.79c.52.57 1.32.91 2.14.91 1.02 0 1.87-.64 2.03-1.54.12-.67-.18-1.55-1.4-2-.6-.22-1.17-.47-1.34-.54a.4.4 0 0 1-.13-.35c.01-.09.08-.31.4-.41.7-.21 1.36.3 1.38.32a.59.59 0 0 0 .75-.9c-.05-.04-1.14-.94-2.46-.54a1.7 1.7 0 0 0-1.23 1.37 1.5 1.5 0 0 0 .76 1.56c.03 0 .7.3 1.46.59.22.08.73.31.66.7-.05.28-.4.57-.88.57m-10.96 2.52.95 4.83q0 .04.03.08a.7.7 0 0 0 1.32-.02l.93-3 .92 3v.02c.1.28.37.46.67.46a.7.7 0 0 0 .67-.54l.96-4.82a.59.59 0 0 0-1.15-.22l-.58 2.95-.93-3.02a.59.59 0 0 0-1.14.05l-.92 2.97-.58-2.96a.59.59 0 0 0-1.15.22m15.07-1.35c.32 0 .58-.26.58-.58v-4.31h.77a.59.59 0 0 0 0-1.17h-2.7a.59.59 0 0 0 0 1.17h.76v4.3c0 .33.26.6.59.6m8.34 21.92c-.82 0-1.48.66-1.48 1.48v.6a.3.3 0 0 1-.31.3h-.08v-1.4a2.6 2.6 0 1 0-2.59 2.58h1.42v1.47a.59.59 0 1 0 1.17 0v-1.47h.08c.82 0 1.48-.66 1.48-1.48v-.6a.3.3 0 0 1 .61 0v1.38c0 1.08.88 1.95 1.95 1.95h.5a.59.59 0 1 0 0-1.17h-.5a.8.8 0 0 1-.77-.78v-1.38c0-.82-.67-1.48-1.48-1.48m-5.88.97a1.42 1.42 0 0 1 2.84 0v1.42h-1.42c-.78 0-1.42-.64-1.42-1.42"/></svg>